GeoramaExtended-BlackItalic.ufo
<glyph name="exclam" format="2">
  <advance width="330.0"/>
  <unicode hex="0021"/>
  <outline>
    <contour>
      <point x="59.300000000000004" y="259.0" type="line"/>
      <point x="262.9" y="259.0" type="line"/>
      <point x="358.6" y="740.0" type="line"/>
      <point x="121.0" y="740.0" type="line"/>
    </contour>
    <contour>
      <point x="4.699999999999996" y="75.4" type="curve" smooth="yes"/>
      <point x="4.699999999999996" y="18.8"/>
      <point x="38.19999999999999" y="-10.0"/>
      <point x="120.4" y="-10.0" type="curve" smooth="yes"/>
      <point x="216.59999999999997" y="-10.0"/>
      <point x="272.4" y="43.7"/>
      <point x="272.4" y="135.4" type="curve" smooth="yes"/>
      <point x="272.4" y="192.0"/>
      <point x="238.89999999999998" y="220.8"/>
      <point x="157.39999999999998" y="220.8" type="curve" smooth="yes"/>
      <point x="58.3" y="220.8"/>
      <point x="4.699999999999996" y="164.2"/>
    </contour>
  </outline>
</glyph>
<glyph name="numbersign" format="2">
  <advance width="861.0"/>
  <unicode hex="0023"/>
  <outline>
    <contour>
      <point x="135.0" y="409.3" type="line"/>
      <point x="199.1" y="409.3" type="line"/>
      <point x="160.50000000000003" y="293.4" type="line"/>
      <point x="97.3" y="293.4" type="line"/>
      <point x="70.9" y="132.3" type="line"/>
      <point x="110.3" y="132.3" type="line"/>
      <point x="69.0" y="0.0" type="line"/>
      <point x="299.59999999999997" y="0.0" type="line"/>
      <point x="340.9" y="132.3" type="line"/>
      <point x="401.9" y="132.3" type="line"/>
      <point x="360.6" y="0.0" type="line"/>
      <point x="590.9000000000001" y="0.0" type="line"/>
      <point x="632.1999999999999" y="132.3" type="line"/>
      <point x="724.6999999999999" y="132.3" type="line"/>
      <point x="750.3999999999999" y="293.4" type="line"/>
      <point x="683.8" y="293.4" type="line"/>
      <point x="721.0" y="409.3" type="line"/>
      <point x="788.1" y="409.3" type="line"/>
      <point x="814.8" y="569.6" type="line"/>
      <point x="771.1999999999999" y="569.6" type="line"/>
      <point x="811.9999999999999" y="700.0" type="line"/>
      <point x="581.3999999999999" y="700.0" type="line"/>
      <point x="540.6" y="569.6" type="line"/>
      <point x="479.6" y="569.6" type="line"/>
      <point x="520.4" y="700.0" type="line"/>
      <point x="290.09999999999997" y="700.0" type="line"/>
      <point x="249.3" y="569.6" type="line"/>
      <point x="161.0" y="569.6" type="line"/>
    </contour>
    <contour>
      <point x="429.4" y="409.3" type="line"/>
      <point x="490.4" y="409.3" type="line"/>
      <point x="452.09999999999997" y="293.4" type="line"/>
      <point x="391.1" y="293.4" type="line"/>
    </contour>
  </outline>
</glyph>
<glyph name="dollar" format="2">
  <advance width="861.0"/>
  <unicode hex="0024"/>
  <outline>
    <contour>
      <point x="800.8000000000001" y="669.1" type="line"/>
      <point x="747.0999999999999" y="683.9000000000001"/>
      <point x="681.6" y="701.0999999999999"/>
      <point x="596.5999999999999" y="707.1" type="curve"/>
      <point x="612.3" y="804.4" type="line"/>
      <point x="439.29999999999995" y="804.4" type="line"/>
      <point x="422.7" y="702.8000000000001" type="line"/>
      <point x="254.39999999999998" y="686.6"/>
      <point x="121.29999999999998" y="619.1"/>
      <point x="121.29999999999998" y="456.9" type="curve" smooth="yes"/>
      <point x="121.29999999999998" y="214.79999999999998"/>
      <point x="515.3" y="262.20000000000005"/>
      <point x="515.3" y="204.7" type="curve" smooth="yes"/>
      <point x="515.3" y="183.3"/>
      <point x="489.7" y="173.20000000000002"/>
      <point x="421.49999999999994" y="173.20000000000002" type="curve" smooth="yes"/>
      <point x="316.5" y="173.20000000000002"/>
      <point x="203.39999999999998" y="195.1"/>
      <point x="109.8" y="229.8" type="curve"/>
      <point x="39.3" y="43.900000000000006" type="line"/>
      <point x="114.19999999999997" y="17.200000000000003"/>
      <point x="209.49999999999997" y="-2.1999999999999993"/>
      <point x="309.2" y="-7.5" type="curve"/>
      <point x="294.2" y="-105.0" type="line"/>
      <point x="466.5" y="-105.0" type="line"/>
      <point x="481.5" y="-3.0999999999999996" type="line"/>
      <point x="638.0999999999999" y="21.0"/>
      <point x="779.9" y="76.6"/>
      <point x="779.9" y="243.79999999999998" type="curve" smooth="yes"/>
      <point x="779.9" y="481.70000000000005"/>
      <point x="385.79999999999995" y="429.5"/>
      <point x="385.79999999999995" y="490.70000000000005" type="curve" smooth="yes"/>
      <point x="385.79999999999995" y="512.6"/>
      <point x="413.7" y="520.5999999999999"/>
      <point x="471.5999999999999" y="520.5999999999999" type="curve" smooth="yes"/>
      <point x="557.7" y="520.5999999999999"/>
      <point x="648.9" y="512.4"/>
      <point x="731.8" y="482.09999999999997" type="curve"/>
    </contour>
  </outline>
</glyph>
<glyph name="ampersand" format="2">
  <advance width="923.0"/>
  <unicode hex="0026"/>
  <outline>
    <contour>
      <point x="388.79999999999995" y="-10.0" type="curve" smooth="yes"/>
      <point x="642.3999999999999" y="-10.0"/>
      <point x="787.6" y="112.69999999999999"/>
      <point x="826.0" y="315.3" type="curve"/>
      <point x="646.3" y="310.90000000000003" type="line"/>
      <point x="649.5" y="220.7"/>
      <point x="552.9" y="160.2"/>
      <point x="420.0" y="160.2" type="curve" smooth="yes"/>
      <point x="324.0" y="160.2"/>
      <point x="268.0" y="190.1"/>
      <point x="268.0" y="236.70000000000002" type="curve" smooth="yes"/>
      <point x="268.0" y="281.0"/>
      <point x="299.9" y="312.9"/>
      <point x="358.99999999999994" y="312.9" type="curve" smooth="yes"/>
      <point x="430.4" y="312.9" type="line"/>
      <point x="461.5" y="430.5" type="line"/>
      <point x="438.3" y="433.79999999999995" type="line" smooth="yes"/>
      <point x="383.5" y="441.2"/>
      <point x="358.4" y="461.1"/>
      <point x="358.4" y="491.09999999999997" type="curve" smooth="yes"/>
      <point x="358.4" y="523.2"/>
      <point x="393.09999999999997" y="544.7"/>
      <point x="438.4" y="544.7" type="curve" smooth="yes"/>
      <point x="474.9" y="544.7"/>
      <point x="508.4" y="535.0"/>
      <point x="549.0" y="510.5" type="curve"/>
      <point x="673.4999999999999" y="633.9" type="line"/>
      <point x="597.5" y="685.7"/>
      <point x="516.2" y="710.0"/>
      <point x="410.90000000000003" y="710.0" type="curve" smooth="yes"/>
      <point x="230.1" y="710.0"/>
      <point x="110.1" y="632.1999999999999"/>
      <point x="110.1" y="529.1999999999999" type="curve" smooth="yes"/>
      <point x="110.1" y="476.9"/>
      <point x="151.6" y="430.90000000000003"/>
      <point x="216.19999999999996" y="406.2" type="curve"/>
      <point x="95.6" y="390.9"/>
      <point x="14.300000000000004" y="324.5"/>
      <point x="14.300000000000004" y="214.9" type="curve" smooth="yes"/>
      <point x="14.300000000000004" y="75.10000000000001"/>
      <point x="139.9" y="-10.0"/>
    </contour>
    <contour>
      <point x="575.5" y="220.7" type="line"/>
      <point x="584.6" y="254.10000000000002"/>
      <point x="604.8999999999999" y="273.59999999999997"/>
      <point x="633.7" y="273.59999999999997" type="curve" smooth="yes"/>
      <point x="689.7" y="273.59999999999997"/>
      <point x="760.6" y="262.40000000000003"/>
      <point x="802.1999999999999" y="262.40000000000003" type="curve" smooth="yes"/>
      <point x="892.2" y="262.40000000000003"/>
      <point x="953.0999999999998" y="345.2"/>
      <point x="946.2" y="458.40000000000003" type="curve"/>
      <point x="806.5999999999999" y="458.40000000000003" type="line"/>
      <point x="805.3" y="409.6"/>
      <point x="781.1999999999999" y="395.9"/>
      <point x="732.8" y="395.9" type="curve" smooth="yes"/>
      <point x="692.0999999999999" y="395.9"/>
      <point x="653.5" y="408.5"/>
      <point x="612.8" y="408.5" type="curve" smooth="yes"/>
      <point x="512.5999999999999" y="408.5"/>
      <point x="456.4" y="344.09999999999997"/>
      <point x="447.3" y="255.3" type="curve"/>
    </contour>
  </outline>
</glyph>
<glyph name="quotesingle" format="2">
  <advance width="259.1"/>
  <unicode hex="0027"/>
  <outline>
    <contour>
      <point x="56.9" y="427.0" type="line"/>
      <point x="247.3" y="427.0" type="line"/>
      <point x="300.3" y="700.0" type="line"/>
      <point x="92.8" y="700.0" type="line"/>
    </contour>
  </outline>
</glyph>
<glyph name="parenleft" format="2">
  <advance width="421.70000000000005"/>
  <unicode hex="0028"/>
  <outline>
    <contour>
      <point x="47.9" y="126.1" type="curve" smooth="yes"/>
      <point x="47.9" y="-54.900000000000006"/>
      <point x="122.69999999999999" y="-199.1"/>
      <point x="312.90000000000003" y="-220.0" type="curve"/>
      <point x="339.20000000000005" y="-60.6" type="line"/>
      <point x="266.7" y="-33.199999999999996"/>
      <point x="239.1" y="22.599999999999994"/>
      <point x="239.1" y="112.9" type="curve" smooth="yes"/>
      <point x="239.1" y="267.7"/>
      <point x="292.7" y="560.9000000000001"/>
      <point x="440.3" y="585.0" type="curve"/>
      <point x="466.0" y="750.0" type="line"/>
      <point x="173.8" y="751.4"/>
      <point x="47.9" y="411.1"/>
    </contour>
  </outline>
</glyph>
<glyph name="parenright" format="2">
  <advance width="421.70000000000005"/>
  <unicode hex="0029"/>
  <outline>
    <contour>
      <point x="370.1" y="403.9" type="curve" smooth="yes"/>
      <point x="370.1" y="588.4"/>
      <point x="295.3" y="729.1"/>
      <point x="105.1" y="750.0" type="curve"/>
      <point x="78.8" y="587.0999999999999" type="line"/>
      <point x="151.3" y="559.6999999999999"/>
      <point x="178.89999999999998" y="503.9"/>
      <point x="178.89999999999998" y="413.6" type="curve" smooth="yes"/>
      <point x="178.89999999999998" y="258.8"/>
      <point x="125.30000000000001" y="-30.900000000000006"/>
      <point x="-22.3" y="-55.0" type="curve"/>
      <point x="-48.0" y="-220.0" type="line"/>
      <point x="244.2" y="-215.8"/>
      <point x="370.1" y="125.90000000000002"/>
    </contour>
  </outline>
</glyph>
<glyph name="asterisk" format="2">
  <advance width="438.99999999999994"/>
  <unicode hex="002A"/>
  <outline>
    <contour>
      <point x="153.0" y="325.8" type="line"/>
      <point x="239.50000000000003" y="409.7" type="line"/>
      <point x="298.4" y="325.8" type="line"/>
      <point x="389.5" y="385.8" type="line"/>
      <point x="354.5" y="488.3" type="line"/>
      <point x="457.80000000000007" y="539.2" type="line"/>
      <point x="444.0" y="637.9000000000001" type="line"/>
      <point x="337.3" y="619.1" type="line"/>
      <point x="342.7" y="733.0" type="line"/>
      <point x="242.20000000000002" y="733.0" type="line"/>
      <point x="210.59999999999997" y="619.1" type="line"/>
      <point x="110.5" y="637.9" type="line"/>
      <point x="65.10000000000001" y="539.2" type="line"/>
      <point x="150.7" y="488.3" type="line"/>
      <point x="83.60000000000001" y="385.8" type="line"/>
    </contour>
  </outline>
</glyph>
<glyph name="plus" format="2">
  <advance width="635.5"/>
  <unicode hex="002B"/>
  <outline>
    <contour>
      <point x="188.0" y="109.80000000000001" type="line"/>
      <point x="392.9" y="109.80000000000001" type="line"/>
      <point x="411.1" y="226.5" type="line"/>
      <point x="572.0" y="226.5" type="line"/>
      <point x="603.3" y="418.0" type="line"/>
      <point x="442.4" y="418.0" type="line"/>
      <point x="461.3" y="534.0" type="line"/>
      <point x="257.79999999999995" y="534.0" type="line"/>
      <point x="237.5" y="418.0" type="line"/>
      <point x="78.7" y="418.0" type="line"/>
      <point x="47.4" y="226.5" type="line"/>
      <point x="207.6" y="226.5" type="line"/>
    </contour>
  </outline>
</glyph>
<glyph name="comma" format="2">
  <advance width="316.7"/>
  <unicode hex="002C"/>
  <outline>
    <contour>
      <point x="25.7" y="111.0" type="line"/>
      <point x="24.700000000000003" y="84.5"/>
      <point x="20.7" y="58.8"/>
      <point x="17.0" y="38.9" type="curve" smooth="yes"/>
      <point x="4.5" y="-28.6"/>
      <point x="-24.900000000000002" y="-103.9"/>
      <point x="-74.5" y="-166.2" type="curve"/>
      <point x="107.3" y="-193.1" type="line"/>
      <point x="184.7" y="-114.89999999999999"/>
      <point x="247.8" y="-26.400000000000006"/>
      <point x="247.8" y="79.7" type="curve" smooth="yes"/>
      <point x="247.8" y="91.0"/>
      <point x="246.79999999999998" y="102.0"/>
      <point x="244.7" y="112.0" type="curve"/>
    </contour>
  </outline>
</glyph>
<glyph name="hyphen" format="2">
  <advance width="405.90000000000003"/>
  <unicode hex="002D"/>
  <outline>
    <contour>
      <point x="36.099999999999994" y="220.0" type="line"/>
      <point x="350.9" y="220.0" type="line"/>
      <point x="383.4" y="417.79999999999995" type="line"/>
      <point x="68.60000000000001" y="417.79999999999995" type="line"/>
    </contour>
  </outline>
</glyph>
<glyph name="period" format="2">
  <advance width="325.8"/>
  <unicode hex="002E"/>
  <outline>
    <contour>
      <point x="1.8000000000000007" y="76.3" type="curve" smooth="yes"/>
      <point x="1.8000000000000007" y="19.4"/>
      <point x="34.99999999999999" y="-9.1"/>
      <point x="117.5" y="-9.1" type="curve" smooth="yes"/>
      <point x="213.70000000000002" y="-9.1"/>
      <point x="269.2" y="44.6"/>
      <point x="269.2" y="136.9" type="curve" smooth="yes"/>
      <point x="269.2" y="193.2"/>
      <point x="236.0" y="221.7"/>
      <point x="154.5" y="221.7" type="curve" smooth="yes"/>
      <point x="55.1" y="221.7"/>
      <point x="1.8000000000000007" y="165.1"/>
    </contour>
  </outline>
</glyph>
<glyph name="slash" format="2">
  <advance width="535.3"/>
  <unicode hex="002F"/>
  <outline>
    <contour>
      <point x="-73.0" y="-210.0" type="line"/>
      <point x="120.29999999999998" y="-210.0" type="line"/>
      <point x="605.3" y="740.0" type="line"/>
      <point x="410.7" y="740.0" type="line"/>
    </contour>
  </outline>
</glyph>
<glyph name="zero" format="2">
  <advance width="861.0"/>
  <unicode hex="0030"/>
  <outline>
    <contour>
      <point x="422.99999999999994" y="-10.0" type="curve" smooth="yes"/>
      <point x="662.5" y="-10.0"/>
      <point x="824.5" y="151.5"/>
      <point x="824.5" y="405.0" type="curve" smooth="yes"/>
      <point x="824.5" y="610.0"/>
      <point x="695.0" y="710.0"/>
      <point x="460.99999999999994" y="710.0" type="curve" smooth="yes"/>
      <point x="221.0" y="710.0"/>
      <point x="59.499999999999986" y="550.0"/>
      <point x="59.499999999999986" y="296.0" type="curve" smooth="yes"/>
      <point x="59.499999999999986" y="91.5"/>
      <point x="189.0" y="-10.0"/>
    </contour>
    <contour>
      <point x="424.49999999999994" y="171.5" type="curve" smooth="yes"/>
      <point x="368.5" y="171.5"/>
      <point x="322.5" y="195.0"/>
      <point x="322.5" y="278.0" type="curve" smooth="yes"/>
      <point x="322.5" y="379.0"/>
      <point x="367.00000000000006" y="530.0"/>
      <point x="459.49999999999994" y="530.0" type="curve" smooth="yes"/>
      <point x="515.0" y="530.0"/>
      <point x="561.5" y="505.99999999999994"/>
      <point x="561.5" y="423.5" type="curve" smooth="yes"/>
      <point x="561.5" y="322.0"/>
      <point x="517.5" y="171.5"/>
    </contour>
  </outline>
</glyph>
<glyph name="one" format="2">
  <advance width="861.0"/>
  <unicode hex="0031"/>
  <outline>
    <contour>
      <point x="125.1" y="0.0" type="line"/>
      <point x="716.7" y="0.0" type="line"/>
      <point x="747.6" y="188.0" type="line"/>
      <point x="584.1999999999999" y="188.0" type="line"/>
      <point x="667.7" y="700.0" type="line"/>
      <point x="543.6" y="700.0" type="line"/>
      <point x="179.2" y="573.6999999999999" type="line"/>
      <point x="207.20000000000002" y="376.1" type="line"/>
      <point x="368.09999999999997" y="431.3" type="line"/>
      <point x="330.49999999999994" y="188.0" type="line"/>
      <point x="155.7" y="188.0" type="line"/>
    </contour>
  </outline>
</glyph>
<glyph name="two" format="2">
  <advance width="861.0"/>
  <unicode hex="0032"/>
  <outline>
    <contour>
      <point x="68.5" y="143.0" type="curve"/>
      <point x="47.5" y="0.0" type="line"/>
      <point x="730.5" y="0.0" type="line"/>
      <point x="762.4999999999999" y="185.0" type="line"/>
      <point x="493.0" y="185.0" type="line"/>
      <point x="620.5" y="267.0"/>
      <point x="745.5000000000001" y="361.5"/>
      <point x="745.5000000000001" y="511.0" type="curve" smooth="yes"/>
      <point x="745.5000000000001" y="644.5"/>
      <point x="620.4999999999999" y="710.0"/>
      <point x="473.0" y="710.0" type="curve" smooth="yes"/>
      <point x="362.49999999999994" y="710.0"/>
      <point x="224.49999999999997" y="676.0"/>
      <point x="134.99999999999997" y="629.0" type="curve"/>
      <point x="169.99999999999997" y="431.50000000000006" type="line"/>
      <point x="248.5" y="462.5"/>
      <point x="323.5" y="486.5"/>
      <point x="385.99999999999994" y="486.5" type="curve" smooth="yes"/>
      <point x="445.99999999999994" y="486.5"/>
      <point x="469.50000000000006" y="462.0"/>
      <point x="469.50000000000006" y="427.0" type="curve" smooth="yes"/>
      <point x="469.5" y="329.50000000000006"/>
      <point x="299.0" y="222.0"/>
    </contour>
  </outline>
</glyph>
<glyph name="three" format="2">
  <advance width="860.9999999999999"/>
  <unicode hex="0033"/>
  <outline>
    <contour>
      <point x="34.0" y="41.50000000000001" type="line"/>
      <point x="123.5" y="4.0000000000000036"/>
      <point x="231.0" y="-9.5"/>
      <point x="345.99999999999994" y="-9.5" type="curve" smooth="yes"/>
      <point x="503.5" y="-9.5"/>
      <point x="762.5" y="33.5"/>
      <point x="762.5" y="237.5" type="curve" smooth="yes"/>
      <point x="762.5" y="309.5"/>
      <point x="726.5" y="354.0"/>
      <point x="656.0" y="376.5" type="curve"/>
      <point x="738.0" y="404.5"/>
      <point x="797.0" y="463.5"/>
      <point x="797.0" y="550.5" type="curve" smooth="yes"/>
      <point x="797.0" y="650.0"/>
      <point x="699.5" y="710.0"/>
      <point x="476.0" y="710.0" type="curve" smooth="yes"/>
      <point x="337.5" y="710.0"/>
      <point x="208.0" y="690.0"/>
      <point x="146.5" y="663.5" type="curve"/>
      <point x="154.5" y="490.0" type="line"/>
      <point x="233.0" y="508.0"/>
      <point x="320.0" y="519.0"/>
      <point x="398.0" y="519.0" type="curve" smooth="yes"/>
      <point x="482.5" y="519.0"/>
      <point x="541.0" y="507.5"/>
      <point x="541.0" y="478.0" type="curve" smooth="yes"/>
      <point x="541.0" y="447.0"/>
      <point x="507.0" y="434.0"/>
      <point x="390.99999999999994" y="434.0" type="curve" smooth="yes"/>
      <point x="251.5" y="434.0" type="line"/>
      <point x="224.0" y="268.5" type="line"/>
      <point x="413.49999999999994" y="268.5" type="line" smooth="yes"/>
      <point x="492.5" y="268.5"/>
      <point x="513.5" y="254.0"/>
      <point x="513.5" y="230.5" type="curve" smooth="yes"/>
      <point x="513.5" y="193.0"/>
      <point x="467.0" y="178.5"/>
      <point x="360.99999999999994" y="178.5" type="curve" smooth="yes"/>
      <point x="270.0" y="178.5"/>
      <point x="169.5" y="194.0"/>
      <point x="110.5" y="213.0" type="curve"/>
    </contour>
  </outline>
</glyph>
<glyph name="four" format="2">
  <advance width="860.9999999999999"/>
  <unicode hex="0034"/>
  <outline>
    <contour>
      <point x="15.000000000000004" y="86.0" type="line"/>
      <point x="407.0" y="86.0" type="line"/>
      <point x="393.5" y="-4.440892098500626e-16" type="line"/>
      <point x="651.0" y="-4.440892098500626e-16" type="line"/>
      <point x="664.5" y="86.0" type="line"/>
      <point x="771.0" y="86.0" type="line"/>
      <point x="798.0" y="255.5" type="line"/>
      <point x="692.0" y="255.5" type="line"/>
      <point x="765.5" y="700.0" type="line"/>
      <point x="586.5" y="700.0" type="line"/>
      <point x="37.5" y="228.5" type="line"/>
    </contour>
    <contour>
      <point x="285.0" y="255.5" type="line"/>
      <point x="465.0" y="416.5" type="line"/>
      <point x="437.5" y="255.5" type="line"/>
    </contour>
  </outline>
</glyph>
<glyph name="five" format="2">
  <advance width="861.0"/>
  <unicode hex="0035"/>
  <outline>
    <contour>
      <point x="36.49999999999999" y="37.99999999999999" type="line"/>
      <point x="128.99999999999997" y="1.5000000000000018"/>
      <point x="233.49999999999997" y="-10.0"/>
      <point x="352.5" y="-10.0" type="curve" smooth="yes"/>
      <point x="649.5" y="-10.0"/>
      <point x="767.5" y="101.0"/>
      <point x="767.5" y="263.00000000000006" type="curve" smooth="yes"/>
      <point x="767.5" y="388.99999999999994"/>
      <point x="684.5000000000001" y="439.0"/>
      <point x="493.9999999999999" y="440.0" type="curve" smooth="yes"/>
      <point x="366.5" y="440.5" type="line"/>
      <point x="379.0" y="504.5" type="line"/>
      <point x="761.0" y="504.5" type="line"/>
      <point x="793.5" y="700.0" type="line"/>
      <point x="249.49999999999997" y="700.0" type="line"/>
      <point x="124.5" y="279.50000000000006" type="line"/>
      <point x="132.0" y="271.0" type="line"/>
      <point x="398.49999999999994" y="271.0" type="line" smooth="yes"/>
      <point x="502.49999999999994" y="271.0"/>
      <point x="517.0" y="253.00000000000003"/>
      <point x="517.0" y="231.5" type="curve" smooth="yes"/>
      <point x="517.0" y="201.5"/>
      <point x="477.0" y="180.0"/>
      <point x="365.5" y="180.0" type="curve" smooth="yes"/>
      <point x="269.0" y="180.0"/>
      <point x="167.5" y="197.5"/>
      <point x="108.0" y="215.0" type="curve"/>
    </contour>
  </outline>
</glyph>
<glyph name="six" format="2">
  <advance width="860.9999999999999"/>
  <unicode hex="0036"/>
  <note>
14
</note>
  <outline>
    <contour>
      <point x="406.99999999999994" y="-10.0" type="curve" smooth="yes"/>
      <point x="608.5" y="-10.0"/>
      <point x="795.0" y="55.50000000000001"/>
      <point x="795.0" y="263.5" type="curve" smooth="yes"/>
      <point x="795.0" y="380.0"/>
      <point x="705.5" y="450.5"/>
      <point x="532.0" y="450.5" type="curve" smooth="yes"/>
      <point x="450.5" y="450.5"/>
      <point x="363.0" y="438.0"/>
      <point x="296.0" y="400.5" type="curve"/>
      <point x="284.0" y="257.0" type="line"/>
      <point x="323.5" y="273.0"/>
      <point x="381.5" y="286.5"/>
      <point x="438.5" y="286.5" type="curve" smooth="yes"/>
      <point x="527.0" y="286.5"/>
      <point x="549.0" y="269.5"/>
      <point x="549.0" y="240.0" type="curve" smooth="yes"/>
      <point x="549.0" y="200.0"/>
      <point x="509.5" y="174.5"/>
      <point x="439.0" y="174.5" type="curve" smooth="yes"/>
      <point x="355.5" y="174.5"/>
      <point x="300.0" y="204.5"/>
      <point x="300.0" y="276.5" type="curve" smooth="yes"/>
      <point x="300.0" y="359.0"/>
      <point x="329.0" y="425.0"/>
      <point x="385.5" y="467.5" type="curve" smooth="yes"/>
      <point x="430.5" y="500.5"/>
      <point x="496.0" y="520.0"/>
      <point x="571.0" y="520.0" type="curve" smooth="yes"/>
      <point x="649.0" y="520.0"/>
      <point x="702.0" y="510.0"/>
      <point x="763.5" y="493.5" type="curve"/>
      <point x="833.0" y="669.5" type="line"/>
      <point x="782.5" y="689.5"/>
      <point x="683.0" y="710.0"/>
      <point x="564.0" y="710.0" type="curve" smooth="yes"/>
      <point x="266.5" y="710.0"/>
      <point x="60.49999999999999" y="542.0"/>
      <point x="60.49999999999999" y="269.5" type="curve" smooth="yes"/>
      <point x="60.49999999999999" y="78.0"/>
      <point x="193.49999999999997" y="-10.0"/>
    </contour>
  </outline>
</glyph>
<glyph name="seven" format="2">
  <advance width="861.0"/>
  <unicode hex="0037"/>
  <note>
9
</note>
  <outline>
    <contour>
      <point x="166.60000000000002" y="0.0" type="curve"/>
      <point x="429.19999999999993" y="0.0" type="line"/>
      <point x="452.59999999999997" y="107.4"/>
      <point x="507.69999999999993" y="197.7"/>
      <point x="636.8" y="346.5" type="curve" smooth="yes"/>
      <point x="806.0999999999999" y="539.8" type="line"/>
      <point x="831.6999999999999" y="700.0" type="line"/>
      <point x="164.10000000000002" y="700.0" type="line"/>
      <point x="132.20000000000002" y="502.3" type="line"/>
      <point x="505.9999999999999" y="502.3" type="line"/>
      <point x="358.6" y="344.8" type="line" smooth="yes"/>
      <point x="241.49999999999994" y="218.9"/>
      <point x="187.2" y="122.4"/>
    </contour>
  </outline>
</glyph>
<glyph name="eight" format="2">
  <advance width="891.9999999999999"/>
  <unicode hex="0038"/>
  <outline>
    <contour>
      <point x="422.49999999999994" y="-10.0" type="curve" smooth="yes"/>
      <point x="645.0" y="-10.0"/>
      <point x="828.0" y="29.000000000000004"/>
      <point x="828.0" y="226.0" type="curve" smooth="yes"/>
      <point x="828.0" y="481.0"/>
      <point x="343.5" y="395.0"/>
      <point x="343.5" y="505.5" type="curve" smooth="yes"/>
      <point x="343.5" y="527.5"/>
      <point x="389.0" y="540.5"/>
      <point x="485.5" y="540.5" type="curve" smooth="yes"/>
      <point x="576.5" y="540.5"/>
      <point x="627.0" y="519.5"/>
      <point x="627.0" y="485.0" type="curve" smooth="yes"/>
      <point x="627.0" y="450.5"/>
      <point x="592.0" y="437.5"/>
      <point x="544.5" y="418.0" type="curve"/>
      <point x="684.0" y="356.5" type="line"/>
      <point x="758.5" y="388.5"/>
      <point x="832.0" y="441.0"/>
      <point x="832.0" y="528.5" type="curve" smooth="yes"/>
      <point x="832.0" y="632.5"/>
      <point x="729.5" y="710.0"/>
      <point x="498.0" y="710.0" type="curve" smooth="yes"/>
      <point x="287.0" y="710.0"/>
      <point x="129.0" y="649.0"/>
      <point x="129.0" y="487.0" type="curve" smooth="yes"/>
      <point x="129.0" y="220.0"/>
      <point x="591.0" y="316.5"/>
      <point x="591.0" y="198.0" type="curve" smooth="yes"/>
      <point x="591.0" y="150.5"/>
      <point x="527.0" y="149.0"/>
      <point x="436.99999999999994" y="149.0" type="curve" smooth="yes"/>
      <point x="322.0" y="149.0"/>
      <point x="266.0" y="179.0"/>
      <point x="266.0" y="217.0" type="curve" smooth="yes"/>
      <point x="266.0" y="258.0"/>
      <point x="312.5" y="274.5"/>
      <point x="370.5" y="284.0" type="curve"/>
      <point x="232.0" y="364.0" type="line"/>
      <point x="125.5" y="353.0"/>
      <point x="38.5" y="282.5"/>
      <point x="38.5" y="196.5" type="curve" smooth="yes"/>
      <point x="38.5" y="74.5"/>
      <point x="156.0" y="-10.0"/>
    </contour>
  </outline>
</glyph>
<glyph name="nine" format="2">
  <advance width="860.9999999999999"/>
  <unicode hex="0039"/>
  <outline>
    <contour>
      <point x="471.0" y="710.0" type="curve" smooth="yes"/>
      <point x="220.0" y="710.0"/>
      <point x="88.0" y="616.5"/>
      <point x="88.0" y="444.0" type="curve" smooth="yes"/>
      <point x="88.0" y="318.5"/>
      <point x="182.5" y="249.5"/>
      <point x="356.0" y="249.5" type="curve" smooth="yes"/>
      <point x="437.49999999999994" y="249.5"/>
      <point x="520.0" y="262.0"/>
      <point x="587.0" y="299.5" type="curve"/>
      <point x="599.0" y="443.0" type="line"/>
      <point x="559.5" y="427.0"/>
      <point x="501.5" y="413.5"/>
      <point x="444.5" y="413.5" type="curve" smooth="yes"/>
      <point x="356.0" y="413.5"/>
      <point x="334.0" y="430.5"/>
      <point x="334.0" y="460.0" type="curve" smooth="yes"/>
      <point x="334.0" y="500.0"/>
      <point x="373.5" y="525.5"/>
      <point x="444.0" y="525.5" type="curve" smooth="yes"/>
      <point x="527.5" y="525.5"/>
      <point x="583.0" y="495.5"/>
      <point x="583.0" y="423.5" type="curve" smooth="yes"/>
      <point x="583.0" y="341.0"/>
      <point x="556.0" y="274.0"/>
      <point x="499.5" y="231.5" type="curve" smooth="yes"/>
      <point x="455.0" y="198.0"/>
      <point x="393.5" y="179.0"/>
      <point x="313.49999999999994" y="179.0" type="curve" smooth="yes"/>
      <point x="235.5" y="179.0"/>
      <point x="180.99999999999997" y="190.0"/>
      <point x="119.5" y="206.5" type="curve"/>
      <point x="49.999999999999986" y="30.5" type="line"/>
      <point x="100.49999999999997" y="10.500000000000002"/>
      <point x="200.0" y="-10.0"/>
      <point x="318.99999999999994" y="-10.0" type="curve" smooth="yes"/>
      <point x="616.5" y="-10.0"/>
      <point x="822.5" y="158.00000000000003"/>
      <point x="822.5" y="425.5" type="curve" smooth="yes"/>
      <point x="822.5" y="608.0"/>
      <point x="697.0" y="710.0"/>
    </contour>
  </outline>
</glyph>
<glyph name="less" format="2">
  <advance width="634.0"/>
  <unicode hex="003C"/>
  <outline>
    <contour>
      <point x="547.8" y="47.1" type="line"/>
      <point x="578.2" y="238.8" type="line"/>
      <point x="261.1" y="316.2" type="line"/>
      <point x="604.5" y="393.2" type="line"/>
      <point x="634.9" y="586.0" type="line"/>
      <point x="71.19999999999999" y="421.09999999999997" type="line"/>
      <point x="39.199999999999996" y="219.7" type="line"/>
    </contour>
  </outline>
</glyph>
<glyph name="equal" format="2">
  <advance width="623.5999999999999"/>
  <unicode hex="003D"/>
  <outline>
    <contour>
      <point x="570.1" y="290.8" type="line"/>
      <point x="59.3" y="290.8" type="line"/>
      <point x="28.599999999999998" y="99.30000000000001" type="line"/>
      <point x="539.4" y="99.30000000000001" type="line"/>
    </contour>
    <contour>
      <point x="608.1" y="534.1" type="line"/>
      <point x="96.89999999999999" y="534.1" type="line"/>
      <point x="66.6" y="342.6" type="line"/>
      <point x="577.4" y="342.6" type="line"/>
    </contour>
  </outline>
</glyph>
<glyph name="greater" format="2">
  <advance width="634.0"/>
  <unicode hex="003E"/>
  <outline>
    <contour>
      <point x="576.6" y="219.7" type="line"/>
      <point x="607.1999999999999" y="410.6" type="line"/>
      <point x="100.3" y="579.0" type="line"/>
      <point x="68.5" y="393.2" type="line"/>
      <point x="386.59999999999997" y="316.2" type="line"/>
      <point x="43.599999999999994" y="238.8" type="line"/>
      <point x="12.5" y="47.10000000000001" type="line"/>
    </contour>
  </outline>
</glyph>
<glyph name="question" format="2">
  <advance width="586.7"/>
  <unicode hex="003F"/>
  <outline>
    <contour>
      <point x="164.29999999999998" y="259.0" type="line"/>
      <point x="368.19999999999993" y="259.0" type="line"/>
      <point x="378.8" y="311.7" type="line"/>
      <point x="510.30000000000007" y="349.0"/>
      <point x="615.6999999999999" y="421.7"/>
      <point x="615.6999999999999" y="561.9" type="curve" smooth="yes"/>
      <point x="615.6999999999999" y="695.5"/>
      <point x="502.2" y="750.0"/>
      <point x="366.79999999999995" y="750.0" type="curve" smooth="yes"/>
      <point x="266.7" y="750.0"/>
      <point x="149.3" y="723.3"/>
      <point x="74.39999999999999" y="677.5" type="curve"/>
      <point x="105.2" y="493.20000000000005" type="line"/>
      <point x="173.4" y="525.1999999999999"/>
      <point x="231.7" y="542.5"/>
      <point x="292.19999999999993" y="542.5" type="curve" smooth="yes"/>
      <point x="333.59999999999997" y="542.5"/>
      <point x="353.7" y="531.1"/>
      <point x="353.7" y="511.09999999999997" type="curve" smooth="yes"/>
      <point x="353.7" y="476.7"/>
      <point x="324.7" y="456.29999999999995"/>
      <point x="186.3" y="427.5" type="curve"/>
    </contour>
    <contour>
      <point x="107.99999999999999" y="74.8" type="curve" smooth="yes"/>
      <point x="108.0" y="18.5"/>
      <point x="141.2" y="-10.0"/>
      <point x="223.1" y="-10.0" type="curve" smooth="yes"/>
      <point x="319.3" y="-10.0"/>
      <point x="375.09999999999997" y="42.5"/>
      <point x="375.09999999999997" y="135.1" type="curve" smooth="yes"/>
      <point x="375.1" y="192.0"/>
      <point x="342.2" y="220.8"/>
      <point x="261.0" y="220.8" type="curve" smooth="yes"/>
      <point x="161.0" y="220.8"/>
      <point x="108.0" y="164.2"/>
    </contour>
  </outline>
</glyph>
<glyph name="at" format="2">
  <advance width="1031.5"/>
  <unicode hex="0040"/>
  <outline>
    <contour>
      <point x="444.5" y="-121.5" type="curve" smooth="yes"/>
      <point x="513.5" y="-121.5"/>
      <point x="602.0" y="-108.5"/>
      <point x="676.0" y="-87.0" type="curve"/>
      <point x="663.0" y="-2.5000000000000027" type="line"/>
      <point x="586.0" y="-20.0"/>
      <point x="513.0" y="-29.0"/>
      <point x="451.0" y="-29.0" type="curve" smooth="yes"/>
      <point x="262.5" y="-29.0"/>
      <point x="137.0" y="62.5"/>
      <point x="137.0" y="249.5" type="curve" smooth="yes"/>
      <point x="137.0" y="437.0"/>
      <point x="305.5" y="627.0"/>
      <point x="571.5" y="627.0" type="curve" smooth="yes"/>
      <point x="790.5" y="627.0"/>
      <point x="903.5" y="523.0"/>
      <point x="903.5" y="340.0" type="curve" smooth="yes"/>
      <point x="903.5" y="261.5"/>
      <point x="881.0" y="168.5"/>
      <point x="788.5" y="168.5" type="curve" smooth="yes"/>
      <point x="740.5" y="168.5"/>
      <point x="728.5" y="197.0"/>
      <point x="742.5" y="257.0" type="curve" smooth="yes"/>
      <point x="800.5" y="495.5" type="line"/>
      <point x="734.0" y="522.5"/>
      <point x="651.0" y="540.5"/>
      <point x="578.0" y="540.5" type="curve" smooth="yes"/>
      <point x="362.5" y="540.5"/>
      <point x="245.0" y="376.5"/>
      <point x="245.0" y="228.5" type="curve" smooth="yes"/>
      <point x="245.0" y="118.0"/>
      <point x="304.5" y="62.0"/>
      <point x="405.0" y="62.0" type="curve" smooth="yes"/>
      <point x="481.5" y="62.0"/>
      <point x="550.5" y="107.5"/>
      <point x="595.5" y="158.0" type="curve"/>
      <point x="612.5" y="77.0"/>
      <point x="675.5" y="54.0"/>
      <point x="750.5" y="54.0" type="curve" smooth="yes"/>
      <point x="928.5" y="54.0"/>
      <point x="1004.0" y="187.0"/>
      <point x="1004.0" y="349.5" type="curve" smooth="yes"/>
      <point x="1004.0" y="578.0"/>
      <point x="839.0" y="718.0"/>
      <point x="592.5" y="718.0" type="curve" smooth="yes"/>
      <point x="247.0" y="718.0"/>
      <point x="34.50000000000001" y="494.0"/>
      <point x="34.50000000000001" y="236.5" type="curve" smooth="yes"/>
      <point x="34.50000000000001" y="15.500000000000007"/>
      <point x="191.0" y="-121.5"/>
    </contour>
    <contour>
      <point x="491.0" y="210.5" type="curve" smooth="yes"/>
      <point x="446.5" y="210.5"/>
      <point x="424.0" y="232.5"/>
      <point x="424.0" y="270.5" type="curve" smooth="yes"/>
      <point x="424.0" y="316.5"/>
      <point x="479.5" y="411.0"/>
      <point x="554.0" y="411.0" type="curve" smooth="yes"/>
      <point x="582.5" y="411.0"/>
      <point x="598.0" y="408.0"/>
      <point x="620.5" y="399.5" type="curve"/>
      <point x="582.5" y="246.5" type="line" smooth="yes"/>
      <point x="566.5" y="228.0"/>
      <point x="527.5" y="210.5"/>
    </contour>
  </outline>
</glyph>
<glyph name="A" format="2">
  <advance width="855.3"/>
  <unicode hex="0041"/>
  <anchor x="384.322" y="0.0" name="bottom"/>
  <anchor x="809.1" y="0.0" name="ogonek"/>
  <anchor x="497.2" y="700.0" name="top"/>
  <outline>
    <contour>
      <point x="-41.8" y="0.0" type="line"/>
      <point x="243.8" y="0.0" type="line"/>
      <point x="286.0" y="99.3" type="line"/>
      <point x="512.6" y="99.3" type="line"/>
      <point x="526.0" y="0.0" type="line"/>
      <point x="809.1" y="0.0" type="line"/>
      <point x="642.4" y="707.0" type="line"/>
      <point x="348.0" y="707.0" type="line"/>
    </contour>
    <contour>
      <point x="373.7" y="280.3" type="line"/>
      <point x="466.6" y="509.8" type="line"/>
      <point x="486.7" y="280.3" type="line"/>
    </contour>
  </outline>
</glyph>
<glyph name="B" format="2">
  <advance width="825.4"/>
  <unicode hex="0042"/>
  <outline>
    <contour>
      <point x="14.599999999999994" y="5.0" type="line"/>
      <point x="156.39999999999998" y="-4.6"/>
      <point x="268.5" y="-10.0"/>
      <point x="390.69999999999993" y="-10.0" type="curve" smooth="yes"/>
      <point x="588.6999999999999" y="-10.0"/>
      <point x="809.3000000000001" y="30.900000000000006"/>
      <point x="809.3000000000001" y="244.6" type="curve" smooth="yes"/>
      <point x="809.3000000000001" y="316.6"/>
      <point x="765.3" y="374.4"/>
      <point x="668.1" y="390.79999999999995" type="curve"/>
      <point x="756.7" y="424.8"/>
      <point x="816.6999999999999" y="475.59999999999997"/>
      <point x="816.6999999999999" y="572.4" type="curve" smooth="yes"/>
      <point x="816.6999999999999" y="666.6"/>
      <point x="729.6" y="710.0"/>
      <point x="486.99999999999994" y="710.0" type="curve" smooth="yes"/>
      <point x="405.79999999999995" y="710.0"/>
      <point x="290.5" y="706.3000000000001"/>
      <point x="126.80000000000001" y="695.0" type="curve"/>
    </contour>
    <contour>
      <point x="342.4" y="431.0" type="line"/>
      <point x="355.40000000000003" y="515.1999999999999" type="line"/>
      <point x="402.7" y="517.9"/>
      <point x="409.1" y="519.2"/>
      <point x="448.99999999999994" y="519.2" type="curve" smooth="yes"/>
      <point x="534.9" y="519.2"/>
      <point x="553.8" y="511.3"/>
      <point x="553.8" y="485.6" type="curve" smooth="yes"/>
      <point x="553.8" y="440.5"/>
      <point x="508.7" y="431.0"/>
      <point x="483.3999999999999" y="431.0" type="curve" smooth="yes"/>
    </contour>
    <contour>
      <point x="314.5" y="265.09999999999997" type="line"/>
      <point x="453.49999999999994" y="265.09999999999997" type="line" smooth="yes"/>
      <point x="524.1" y="265.09999999999997"/>
      <point x="539.4000000000001" y="254.89999999999998"/>
      <point x="539.4000000000001" y="233.5" type="curve" smooth="yes"/>
      <point x="539.4000000000001" y="184.2"/>
      <point x="498.40000000000003" y="174.5"/>
      <point x="383.69999999999993" y="174.5" type="curve" smooth="yes"/>
      <point x="367.4" y="174.5"/>
      <point x="325.29999999999995" y="175.9"/>
      <point x="300.5" y="178.2" type="curve"/>
    </contour>
  </outline>
</glyph>
<glyph name="C" format="2">
  <advance width="794.0000000000001"/>
  <unicode hex="0043"/>
  <anchor x="412.5" y="0.0" name="bottom"/>
  <anchor x="513.0" y="700.0" name="top"/>
  <outline>
    <contour>
      <point x="460.99999999999994" y="-10.0" type="curve" smooth="yes"/>
      <point x="550.4999999999999" y="-10.0"/>
      <point x="631.5" y="-1.1102230246251565e-15"/>
      <point x="730.4999999999999" y="20.999999999999996" type="curve"/>
      <point x="712.5" y="213.0" type="line"/>
      <point x="638.0" y="201.5"/>
      <point x="575.4999999999999" y="189.5"/>
      <point x="501.00000000000006" y="189.5" type="curve" smooth="yes"/>
      <point x="374.0" y="189.5"/>
      <point x="307.5" y="210.99999999999997"/>
      <point x="307.5" y="308.5" type="curve" smooth="yes"/>
      <point x="307.5" y="434.0"/>
      <point x="376.5" y="510.5"/>
      <point x="506.00000000000006" y="510.5" type="curve" smooth="yes"/>
      <point x="585.9999999999999" y="510.5"/>
      <point x="682.5" y="491.0"/>
      <point x="742.5" y="474.49999999999994" type="curve"/>
      <point x="800.5" y="661.5" type="line"/>
      <point x="698.0" y="699.0"/>
      <point x="590.5" y="710.0"/>
      <point x="485.5" y="710.0" type="curve" smooth="yes"/>
      <point x="207.5" y="710.0"/>
      <point x="39.50000000000001" y="550.5"/>
      <point x="39.50000000000001" y="279.50000000000006" type="curve" smooth="yes"/>
      <point x="39.50000000000001" y="73.5"/>
      <point x="179.0" y="-10.0"/>
    </contour>
  </outline>
</glyph>
<glyph name="D" format="2">
  <advance width="882.9999999999999"/>
  <unicode hex="0044"/>
  <anchor x="390.50000000000006" y="0.0" name="bottom"/>
  <anchor x="454.4395" y="350.0" name="center"/>
  <anchor x="446.99999999999994" y="700.0" name="top"/>
  <outline>
    <contour>
      <point x="385.49999999999994" y="-10.0" type="curve" smooth="yes"/>
      <point x="700.0" y="-10.0"/>
      <point x="864.5" y="138.5"/>
      <point x="864.5" y="401.5" type="curve" smooth="yes"/>
      <point x="864.5" y="600.0"/>
      <point x="744.0" y="710.0"/>
      <point x="451.0" y="710.0" type="curve" smooth="yes"/>
      <point x="358.0" y="710.0"/>
      <point x="254.0" y="707.0"/>
      <point x="127.00000000000001" y="699.5" type="curve"/>
      <point x="13.500000000000005" y="1.5" type="line"/>
      <point x="122.99999999999999" y="-5.5"/>
      <point x="226.49999999999994" y="-10.0"/>
    </contour>
    <contour>
      <point x="411.49999999999994" y="170.5" type="curve" smooth="yes"/>
      <point x="360.0" y="170.5"/>
      <point x="341.0" y="172.99999999999997"/>
      <point x="300.0" y="174.5" type="curve"/>
      <point x="356.5" y="524.0" type="line"/>
      <point x="382.0" y="526.0"/>
      <point x="411.50000000000006" y="527.0"/>
      <point x="460.0" y="527.0" type="curve" smooth="yes"/>
      <point x="555.0000000000001" y="527.0"/>
      <point x="600.0" y="474.5"/>
      <point x="600.0" y="391.49999999999994" type="curve" smooth="yes"/>
      <point x="600.0" y="257.0"/>
      <point x="533.9999999999999" y="170.5"/>
    </contour>
  </outline>
</glyph>
<glyph name="E" format="2">
  <advance width="779.9000000000001"/>
  <unicode hex="0045"/>
  <anchor x="358.90000000000003" y="0.0" name="bottom"/>
  <anchor x="704.1999999999999" y="0.0" name="ogonek"/>
  <anchor x="457.4" y="700.0" name="top"/>
  <anchor x="87.31299999999999" y="700.0" name="topleft"/>
  <outline>
    <contour>
      <point x="13.3" y="0.0" type="line"/>
      <point x="704.1999999999999" y="0.0" type="line"/>
      <point x="735.4999999999999" y="190.9" type="line"/>
      <point x="298.0" y="190.9" type="line"/>
      <point x="309.7" y="264.9" type="line"/>
      <point x="697.9999999999999" y="264.9" type="line"/>
      <point x="726.4999999999999" y="435.3" type="line"/>
      <point x="337.9" y="435.3" type="line"/>
      <point x="349.6" y="507.6" type="line"/>
      <point x="764.8000000000001" y="507.6" type="line"/>
      <point x="796.7" y="700.0" type="line"/>
      <point x="126.8" y="700.0" type="line"/>
    </contour>
  </outline>
</glyph>
<glyph name="F" format="2">
  <advance width="741.8"/>
  <unicode hex="0046"/>
  <outline>
    <contour>
      <point x="13.0" y="0.0" type="line"/>
      <point x="271.6" y="0.0" type="line"/>
      <point x="301.7" y="188.60000000000002" type="line"/>
      <point x="651.5999999999999" y="188.60000000000002" type="line"/>
      <point x="683.8999999999999" y="384.5" type="line"/>
      <point x="333.7" y="384.5" type="line"/>
      <point x="351.7" y="497.1" type="line"/>
      <point x="755.8" y="497.1" type="line"/>
      <point x="789.8" y="700.0" type="line"/>
      <point x="126.8" y="700.0" type="line"/>
    </contour>
  </outline>
</glyph>
<glyph name="G" format="2">
  <advance width="834.3"/>
  <unicode hex="0047"/>
  <anchor x="418.8" y="0.0" name="bottom"/>
  <anchor x="520.3" y="700.0" name="top"/>
  <outline>
    <contour>
      <point x="415.9" y="-10.0" type="curve" smooth="yes"/>
      <point x="572.6999999999999" y="-10.0"/>
      <point x="680.5" y="17.5"/>
      <point x="755.0" y="49.6" type="curve"/>
      <point x="816.6999999999999" y="424.1" type="line"/>
      <point x="474.79999999999995" y="424.1" type="line"/>
      <point x="447.2" y="253.0" type="line"/>
      <point x="562.8" y="253.0" type="line"/>
      <point x="552.3000000000001" y="187.1" type="line"/>
      <point x="532.8" y="179.5"/>
      <point x="501.4" y="172.9"/>
      <point x="458.59999999999997" y="172.9" type="curve" smooth="yes"/>
      <point x="349.5" y="172.9"/>
      <point x="299.2" y="207.20000000000002"/>
      <point x="299.2" y="294.3" type="curve" smooth="yes"/>
      <point x="299.2" y="426.4"/>
      <point x="377.0" y="512.5"/>
      <point x="526.0" y="512.5" type="curve" smooth="yes"/>
      <point x="614.3" y="512.5"/>
      <point x="684.4000000000001" y="499.8"/>
      <point x="752.5" y="485.1" type="curve"/>
      <point x="828.3999999999999" y="672.6" type="line"/>
      <point x="727.0999999999999" y="700.6"/>
      <point x="631.0999999999999" y="710.0"/>
      <point x="513.9999999999999" y="710.0" type="curve" smooth="yes"/>
      <point x="193.29999999999998" y="710.0"/>
      <point x="37.9" y="525.8"/>
      <point x="37.9" y="274.8" type="curve" smooth="yes"/>
      <point x="37.9" y="89.4"/>
      <point x="173.2" y="-10.0"/>
    </contour>
  </outline>
</glyph>
<glyph name="H" format="2">
  <advance width="877.8"/>
  <unicode hex="0048"/>
  <anchor x="395.34399999999994" y="0.0" name="bottom"/>
  <anchor x="450.77899999999994" y="350.0" name="center"/>
  <anchor x="506.21299999999997" y="700.0" name="top"/>
  <anchor x="87.313" y="700.0" name="topleft"/>
  <outline>
    <contour>
      <point x="13.0" y="0.0" type="line"/>
      <point x="271.6" y="0.0" type="line"/>
      <point x="306.8" y="223.4" type="line"/>
      <point x="558.3" y="223.4" type="line"/>
      <point x="522.0" y="0.0" type="line"/>
      <point x="774.0" y="0.0" type="line"/>
      <point x="887.8" y="700.0" type="line"/>
      <point x="636.2" y="700.0" type="line"/>
      <point x="591.7" y="431.6" type="line"/>
      <point x="340.2" y="431.6" type="line"/>
      <point x="385.4" y="700.0" type="line"/>
      <point x="126.8" y="700.0" type="line"/>
    </contour>
  </outline>
</glyph>
<glyph name="I" format="2">
  <advance width="375.4"/>
  <unicode hex="0049"/>
  <anchor x="143.8332" y="0.0" name="bottom"/>
  <anchor x="272.5084" y="3.0" name="ogonek"/>
  <anchor x="254.79389999999998" y="700.0" name="top"/>
  <anchor x="87.09389999999999" y="700.0" name="topleft"/>
  <outline>
    <contour>
      <point x="13.0" y="0.0" type="line"/>
      <point x="271.6" y="0.0" type="line"/>
      <point x="385.4" y="700.0" type="line"/>
      <point x="126.8" y="700.0" type="line"/>
    </contour>
  </outline>
</glyph>
<glyph name="J" format="2">
  <advance width="690.1999999999999"/>
  <unicode hex="004A"/>
  <anchor x="298.9332" y="0.0" name="bottom"/>
  <anchor x="419.19999999999993" y="700.0" name="top"/>
  <outline>
    <contour>
      <point x="-24.300000000000004" y="33.8" type="line"/>
      <point x="79.4" y="3.8999999999999986"/>
      <point x="187.79999999999998" y="-10.0"/>
      <point x="286.09999999999997" y="-10.0" type="curve" smooth="yes"/>
      <point x="503.0" y="-10.0"/>
      <point x="602.9999999999999" y="80.30000000000001"/>
      <point x="635.5" y="272.7" type="curve" smooth="yes"/>
      <point x="706.4" y="700.0" type="line"/>
      <point x="140.4" y="700.0" type="line"/>
      <point x="105.9" y="491.9" type="line"/>
      <point x="413.3" y="491.9" type="line"/>
      <point x="385.79999999999995" y="317.7" type="line" smooth="yes"/>
      <point x="371.79999999999995" y="228.6"/>
      <point x="334.0" y="199.6"/>
      <point x="255.7" y="199.6" type="curve" smooth="yes"/>
      <point x="204.7" y="199.6"/>
      <point x="136.3" y="212.3"/>
      <point x="44.099999999999994" y="234.10000000000002" type="curve"/>
    </contour>
  </outline>
</glyph>
<glyph name="K" format="2">
  <advance width="837.4"/>
  <unicode hex="004B"/>
  <anchor x="395.5" y="0.0" name="bottom"/>
  <anchor x="493.7" y="700.0" name="top"/>
  <outline>
    <contour>
      <point x="12.700000000000003" y="0.0" type="line"/>
      <point x="271.8" y="0.0" type="line"/>
      <point x="385.1" y="700.0" type="line"/>
      <point x="128.2" y="700.0" type="line"/>
    </contour>
    <contour>
      <point x="707.9" y="-9.8" type="curve" smooth="yes"/>
      <point x="721.8" y="-9.8"/>
      <point x="759.2" y="-6.0"/>
      <point x="769.3" y="-2.8" type="curve"/>
      <point x="800.9" y="224.6" type="line"/>
      <point x="791.2" y="224.2"/>
      <point x="782.5" y="224.0"/>
      <point x="774.3" y="224.0" type="curve" smooth="yes"/>
      <point x="727.8" y="224.0"/>
      <point x="682.4" y="236.5"/>
      <point x="617.3" y="277.9" type="curve" smooth="yes"/>
      <point x="304.2" y="475.7" type="line"/>
      <point x="271.8" y="240.1" type="line"/>
      <point x="506.0" y="57.400000000000006" type="line" smooth="yes"/>
      <point x="569.5" y="12.200000000000003"/>
      <point x="646.2" y="-9.8"/>
    </contour>
    <contour>
      <point x="491.3" y="298.4" type="line"/>
      <point x="661.1" y="370.4"/>
      <point x="783.2" y="472.3"/>
      <point x="859.5" y="583.4" type="curve"/>
      <point x="685.3" y="713.3" type="line"/>
      <point x="579.2" y="583.7"/>
      <point x="455.8" y="477.2"/>
      <point x="336.6" y="410.5" type="curve"/>
    </contour>
  </outline>
</glyph>
<glyph name="L" format="2">
  <advance width="731.0"/>
  <unicode hex="004C"/>
  <anchor x="339.8" y="0.0" name="bottom"/>
  <anchor x="377.379" y="350.0" name="center"/>
  <anchor x="256.1" y="700.0" name="top"/>
  <anchor x="492.59999999999997" y="700.0" name="topright"/>
  <outline>
    <contour>
      <point x="13.000000000000004" y="0.0" type="line"/>
      <point x="658.8" y="0.0" type="line"/>
      <point x="694.3" y="204.9" type="line"/>
      <point x="305.7" y="204.9" type="line"/>
      <point x="385.4" y="700.0" type="line"/>
      <point x="126.8" y="700.0" type="line"/>
    </contour>
  </outline>
</glyph>
<glyph name="M" format="2">
  <advance width="964.2"/>
  <unicode hex="004D"/>
  <outline>
    <contour>
      <point x="12.700000000000003" y="0.0" type="line"/>
      <point x="253.3" y="0.0" type="line"/>
      <point x="309.5" y="368.8" type="line"/>
      <point x="395.8" y="101.80000000000001" type="line"/>
      <point x="508.0" y="101.80000000000001" type="line"/>
      <point x="684.8999999999999" y="376.4" type="line"/>
      <point x="622.3999999999999" y="0.0" type="line"/>
      <point x="860.4" y="0.0" type="line"/>
      <point x="974.2" y="700.0" type="line"/>
      <point x="705.5999999999999" y="700.0" type="line"/>
      <point x="489.5" y="363.9" type="line"/>
      <point x="378.3" y="700.0" type="line"/>
      <point x="126.8" y="700.0" type="line"/>
    </contour>
  </outline>
</glyph>
<glyph name="N" format="2">
  <advance width="830.4999999999999"/>
  <unicode hex="004E"/>
  <anchor x="373.722" y="0.0" name="bottom"/>
  <anchor x="483.1565" y="700.0" name="top"/>
  <outline>
    <contour>
      <point x="13.000000000000004" y="0.0" type="line"/>
      <point x="244.5" y="0.0" type="line"/>
      <point x="299.5" y="334.0" type="line"/>
      <point x="497.0" y="-8.881784197001252e-16" type="line"/>
      <point x="726.0" y="-8.881784197001252e-16" type="line"/>
      <point x="840.5" y="700.0" type="line"/>
      <point x="608.5" y="700.0" type="line"/>
      <point x="549.5" y="344.5" type="line"/>
      <point x="356.5" y="700.0" type="line"/>
      <point x="127.5" y="700.0" type="line"/>
    </contour>
  </outline>
</glyph>
<glyph name="O" format="2">
  <advance width="879.9999999999999"/>
  <unicode hex="004F"/>
  <note>
8
</note>
  <anchor x="395.49999999999994" y="0.0" name="bottom"/>
  <anchor x="450.99999999999994" y="350.0" name="center"/>
  <anchor x="514.0" y="2.220446049250313e-16" name="ogonek"/>
  <anchor x="500.0" y="700.0" name="top"/>
  <anchor x="82.5" y="700.0" name="topleft"/>
  <anchor x="739.5" y="691.0" name="topright"/>
  <outline>
    <contour>
      <point x="418.99999999999994" y="-8.0" type="curve" smooth="yes"/>
      <point x="701.0" y="-8.0"/>
      <point x="857.9999999999999" y="143.00000000000003"/>
      <point x="863.4999999999999" y="405.0" type="curve" smooth="yes"/>
      <point x="867.4999999999999" y="602.5"/>
      <point x="743.0" y="708.0"/>
      <point x="484.5" y="708.0" type="curve" smooth="yes"/>
      <point x="202.5" y="708.0"/>
      <point x="45.5" y="557.0"/>
      <point x="40.0" y="295.0" type="curve" smooth="yes"/>
      <point x="36.0" y="97.5"/>
      <point x="160.5" y="-8.0"/>
    </contour>
    <contour>
      <point x="434.5" y="179.5" type="curve" smooth="yes"/>
      <point x="342.0" y="179.5"/>
      <point x="302.5" y="210.0"/>
      <point x="302.5" y="300.5" type="curve" smooth="yes"/>
      <point x="302.5" y="415.0"/>
      <point x="365.0" y="520.5"/>
      <point x="469.0" y="520.5" type="curve" smooth="yes"/>
      <point x="561.5" y="520.5"/>
      <point x="600.9999999999999" y="489.5"/>
      <point x="600.9999999999999" y="399.0" type="curve" smooth="yes"/>
      <point x="600.9999999999999" y="284.5"/>
      <point x="538.5" y="179.5"/>
    </contour>
  </outline>
</glyph>
<glyph name="P" format="2">
  <advance width="867.5"/>
  <unicode hex="0050"/>
  <outline>
    <contour>
      <point x="13.000000000000004" y="0.0" type="line"/>
      <point x="270.5" y="0.0" type="line"/>
      <point x="298.5" y="164.0" type="line"/>
      <point x="371.5" y="160.0"/>
      <point x="393.5" y="159.5"/>
      <point x="426.5" y="159.5" type="curve" smooth="yes"/>
      <point x="756.0" y="159.5"/>
      <point x="878.0" y="253.0"/>
      <point x="878.0" y="476.0" type="curve" smooth="yes"/>
      <point x="878.0" y="646.5"/>
      <point x="767.5" y="710.0"/>
      <point x="485.0" y="710.0" type="curve" smooth="yes"/>
      <point x="430.5" y="710.0"/>
      <point x="311.0" y="707.0"/>
      <point x="127.5" y="700.5" type="curve"/>
    </contour>
    <contour>
      <point x="356.0" y="516.5" type="line"/>
      <point x="431.0" y="519.5"/>
      <point x="440.5" y="520.0"/>
      <point x="493.5" y="520.0" type="curve" smooth="yes"/>
      <point x="585.0" y="520.0"/>
      <point x="612.0" y="497.5"/>
      <point x="612.0" y="452.0" type="curve" smooth="yes"/>
      <point x="612.0" y="391.0"/>
      <point x="579.5" y="352.0"/>
      <point x="413.99999999999994" y="352.0" type="curve" smooth="yes"/>
      <point x="391.5" y="352.0"/>
      <point x="377.0" y="353.0"/>
      <point x="330.0" y="356.0" type="curve"/>
    </contour>
  </outline>
</glyph>
<glyph name="Q" format="2">
  <advance width="881.0999999999999"/>
  <unicode hex="0051"/>
  <note>
14
</note>
  <outline>
    <contour>
      <point x="638.9999999999999" y="-196.7" type="curve" smooth="yes"/>
      <point x="675.5999999999999" y="-196.7"/>
      <point x="714.3" y="-191.2"/>
      <point x="756.3" y="-179.5" type="curve"/>
      <point x="762.3000000000001" y="9.799999999999997" type="line"/>
      <point x="749.8" y="5.399999999999999"/>
      <point x="734.3" y="3.3999999999999986"/>
      <point x="716.4" y="3.3999999999999986" type="curve" smooth="yes"/>
      <point x="681.0" y="3.3999999999999986"/>
      <point x="640.8999999999999" y="16.9"/>
      <point x="623.8000000000001" y="40.7" type="curve"/>
      <point x="392.19999999999993" y="11.3" type="line"/>
      <point x="427.09999999999997" y="-134.9"/>
      <point x="521.1999999999999" y="-196.7"/>
    </contour>
    <component base="O"/>
  </outline>
</glyph>
<glyph name="R" format="2">
  <advance width="886.5"/>
  <unicode hex="0052"/>
  <anchor x="424.99999999999994" y="0.0" name="bottom"/>
  <anchor x="479.5" y="700.0" name="top"/>
  <outline>
    <contour>
      <point x="13.000000000000004" y="0.0" type="line"/>
      <point x="271.5" y="0.0" type="line"/>
      <point x="304.5" y="204.5" type="line"/>
      <point x="364.5" y="204.0"/>
      <point x="423.5" y="203.5"/>
      <point x="483.5" y="202.5" type="curve"/>
      <point x="561.5" y="252.0" type="line"/>
      <point x="748.5" y="252.0"/>
      <point x="870.0" y="340.5"/>
      <point x="870.0" y="501.5" type="curve" smooth="yes"/>
      <point x="870.0" y="636.5"/>
      <point x="761.5" y="710.0"/>
      <point x="497.0" y="710.0" type="curve" smooth="yes"/>
      <point x="437.5" y="710.0"/>
      <point x="308.5" y="706.5"/>
      <point x="127.0" y="699.5" type="curve"/>
    </contour>
    <contour>
      <point x="750.9999999999999" y="-10.0" type="curve" smooth="yes"/>
      <point x="762.4999999999999" y="-10.0"/>
      <point x="796.9999999999999" y="-8.0"/>
      <point x="806.9999999999999" y="-4.999999999999999" type="curve"/>
      <point x="839.4999999999999" y="211.5" type="line"/>
      <point x="833.4999999999999" y="210.5"/>
      <point x="820.9999999999999" y="210.5"/>
      <point x="813.4999999999999" y="210.5" type="curve" smooth="yes"/>
      <point x="756.5" y="210.5"/>
      <point x="676.5" y="243.5"/>
      <point x="619.0" y="286.5" type="curve"/>
      <point x="350.5" y="226.5" type="line"/>
      <point x="497.0" y="79.0"/>
      <point x="602.5" y="-10.0"/>
    </contour>
    <contour>
      <point x="454.5" y="369.5" type="curve" smooth="yes"/>
      <point x="410.5" y="369.5"/>
      <point x="371.5" y="371.5"/>
      <point x="332.5" y="375.0" type="curve"/>
      <point x="356.0" y="525.5" type="line"/>
      <point x="428.0" y="528.5"/>
      <point x="437.5" y="529.0"/>
      <point x="488.0" y="529.0" type="curve" smooth="yes"/>
      <point x="573.5" y="529.0"/>
      <point x="599.0" y="503.0"/>
      <point x="599.0" y="468.0" type="curve" smooth="yes"/>
      <point x="599.0" y="404.5"/>
      <point x="547.5" y="369.5"/>
    </contour>
  </outline>
</glyph>
<glyph name="S" format="2">
  <advance width="788.5"/>
  <unicode hex="0053"/>
  <anchor x="387.5" y="0.0" name="bottom"/>
  <anchor x="460.0" y="700.0" name="top"/>
  <outline>
    <contour>
      <point x="783.5" y="662.0" type="line"/>
      <point x="689.5" y="693.0"/>
      <point x="587.5" y="710.0"/>
      <point x="478.0" y="710.0" type="curve" smooth="yes"/>
      <point x="172.0" y="710.0"/>
      <point x="54.0" y="616.5"/>
      <point x="54.0" y="457.0" type="curve" smooth="yes"/>
      <point x="54.0" y="208.5"/>
      <point x="477.0" y="271.5"/>
      <point x="477.0" y="206.0" type="curve" smooth="yes"/>
      <point x="477.0" y="187.5"/>
      <point x="457.0" y="172.0"/>
      <point x="390.0" y="172.0" type="curve" smooth="yes"/>
      <point x="267.5" y="172.0"/>
      <point x="155.0" y="192.5"/>
      <point x="41.5" y="229.5" type="curve"/>
      <point x="-27.5" y="49.0" type="line"/>
      <point x="73.5" y="15.0"/>
      <point x="199.5" y="-10.0"/>
      <point x="347.5" y="-10.0" type="curve" smooth="yes"/>
      <point x="654.0" y="-10.0"/>
      <point x="767.5" y="86.5"/>
      <point x="767.5" y="240.5" type="curve" smooth="yes"/>
      <point x="767.5" y="484.5"/>
      <point x="342.5" y="428.5"/>
      <point x="342.5" y="490.0" type="curve" smooth="yes"/>
      <point x="342.5" y="511.5"/>
      <point x="358.0" y="526.0"/>
      <point x="440.0" y="526.0" type="curve" smooth="yes"/>
      <point x="543.5" y="526.0"/>
      <point x="640.0" y="513.5"/>
      <point x="720.5" y="487.0" type="curve"/>
    </contour>
  </outline>
</glyph>
<glyph name="T" format="2">
  <advance width="810.8"/>
  <unicode hex="0054"/>
  <anchor x="361.5332" y="0.0" name="bottom"/>
  <anchor x="417.36369999999994" y="350.0" name="center"/>
  <anchor x="472.49389999999994" y="700.0" name="top"/>
  <outline>
    <contour>
      <point x="824.0999999999999" y="507.4" type="line"/>
      <point x="858.9" y="700.0" type="line"/>
      <point x="91.1" y="700.0" type="line"/>
      <point x="55.6" y="507.4" type="line"/>
      <point x="311.4" y="507.4" type="line"/>
      <point x="231.39999999999998" y="0.0" type="line"/>
      <point x="490.0" y="0.0" type="line"/>
      <point x="569.3" y="507.4" type="line"/>
    </contour>
  </outline>
</glyph>
<glyph name="U" format="2">
  <advance width="863.5"/>
  <unicode hex="0055"/>
  <anchor x="388.544" y="0.0" name="bottom"/>
  <anchor x="509.9999999999999" y="0.0" name="ogonek"/>
  <anchor x="499.41299999999995" y="700.0" name="top"/>
  <anchor x="869.3" y="700.0" name="topright"/>
  <outline>
    <contour>
      <point x="383.4" y="-10.0" type="curve" smooth="yes"/>
      <point x="642.4" y="-10.0"/>
      <point x="778.1" y="77.4"/>
      <point x="809.1" y="265.6" type="curve" smooth="yes"/>
      <point x="879.6999999999999" y="700.0" type="line"/>
      <point x="626.0" y="700.0" type="line"/>
      <point x="557.4" y="276.59999999999997" type="line" smooth="yes"/>
      <point x="548.4000000000001" y="217.6"/>
      <point x="501.1" y="187.8"/>
      <point x="418.09999999999997" y="187.8" type="curve" smooth="yes"/>
      <point x="334.0" y="187.8"/>
      <point x="293.6" y="218.9"/>
      <point x="303.6" y="276.6" type="curve" smooth="yes"/>
      <point x="373.9" y="700.0" type="line"/>
      <point x="120.20000000000002" y="700.0" type="line"/>
      <point x="49.599999999999994" y="265.6" type="line" smooth="yes"/>
      <point x="45.3" y="236.00000000000003"/>
      <point x="44.0" y="219.1"/>
      <point x="44.0" y="203.5" type="curve" smooth="yes"/>
      <point x="44.0" y="58.699999999999996"/>
      <point x="153.6" y="-10.0"/>
    </contour>
  </outline>
</glyph>
<glyph name="V" format="2">
  <advance width="789.5"/>
  <unicode hex="0056"/>
  <outline>
    <contour>
      <point x="487.5" y="0.0" type="line"/>
      <point x="748.5" y="396.5"/>
      <point x="824.0" y="543.0"/>
      <point x="849.5" y="677.0" type="curve" smooth="yes"/>
      <point x="851.0" y="685.0"/>
      <point x="852.0" y="692.0"/>
      <point x="853.0" y="700.0" type="curve"/>
      <point x="567.0" y="700.0" type="line"/>
      <point x="567.0" y="696.5"/>
      <point x="568.0" y="692.0"/>
      <point x="568.0" y="681.5" type="curve" smooth="yes"/>
      <point x="568.0" y="543.5"/>
      <point x="461.5" y="356.5"/>
      <point x="393.0" y="212.5" type="curve"/>
      <point x="341.5" y="700.0" type="line"/>
      <point x="63.0" y="700.0" type="line"/>
      <point x="212.0" y="0.0" type="line"/>
    </contour>
  </outline>
</glyph>
<glyph name="W" format="2">
  <advance width="1078.5"/>
  <unicode hex="0057"/>
  <anchor x="487.0" y="0.0" name="bottom"/>
  <anchor x="606.5" y="700.0" name="top"/>
  <outline>
    <contour>
      <point x="860.5" y="0.0" type="line"/>
      <point x="1050.5" y="361.5"/>
      <point x="1127.5" y="576.5"/>
      <point x="1131.5" y="686.0" type="curve" smooth="yes"/>
      <point x="1131.5" y="691.0"/>
      <point x="1131.0" y="698.0"/>
      <point x="1131.5" y="700.0" type="curve"/>
      <point x="905.0" y="700.0" type="line"/>
      <point x="904.5" y="694.5"/>
      <point x="904.0" y="688.5"/>
      <point x="903.5" y="682.0" type="curve" smooth="yes"/>
      <point x="891.5" y="527.5"/>
      <point x="842.5" y="411.0"/>
      <point x="747.5" y="204.5" type="curve"/>
      <point x="729.5" y="662.5" type="line"/>
      <point x="472.5" y="662.5" type="line"/>
      <point x="433.5" y="514.0"/>
      <point x="379.0" y="344.0"/>
      <point x="317.0" y="201.0" type="curve"/>
      <point x="305.0" y="700.0" type="line"/>
      <point x="66.0" y="700.0" type="line"/>
      <point x="133.5" y="0.0" type="line"/>
      <point x="380.5" y="0.0" type="line"/>
      <point x="452.0" y="134.5"/>
      <point x="517.0" y="263.0"/>
      <point x="561.0" y="371.5" type="curve"/>
      <point x="592.0" y="0.0" type="line"/>
    </contour>
  </outline>
</glyph>
<glyph name="X" format="2">
  <advance width="810.0"/>
  <unicode hex="0058"/>
  <outline>
    <contour>
      <point x="490.5" y="-0.5000000000000002" type="line"/>
      <point x="764.5" y="1.0" type="line"/>
      <point x="593.5" y="356.5" type="line"/>
      <point x="740.5" y="546.5"/>
      <point x="825.5" y="610.5"/>
      <point x="850.5" y="701.0" type="curve"/>
      <point x="583.5" y="702.5" type="line"/>
      <point x="570.0" y="621.0"/>
      <point x="516.0" y="550.5"/>
      <point x="428.0" y="461.5" type="curve"/>
      <point x="354.0" y="700.5" type="line"/>
      <point x="86.5" y="699.0" type="line"/>
      <point x="232.5" y="359.5" type="line"/>
      <point x="100.0" y="214.5"/>
      <point x="5.0" y="110.5"/>
      <point x="-19.0" y="0.0" type="curve"/>
      <point x="247.5" y="0.0" type="line"/>
      <point x="263.5" y="93.5"/>
      <point x="307.0" y="145.5"/>
      <point x="400.5" y="254.0" type="curve"/>
    </contour>
  </outline>
</glyph>
<glyph name="Y" format="2">
  <advance width="774.7"/>
  <unicode hex="0059"/>
  <anchor x="341.8" y="0.0" name="bottom"/>
  <anchor x="459.1" y="700.0" name="top"/>
  <anchor x="80.9" y="700.0" name="topleft"/>
  <outline>
    <contour>
      <point x="222.8" y="0.0" type="line"/>
      <point x="477.7" y="0.0" type="line"/>
      <point x="514.5" y="220.6" type="line"/>
      <point x="743.4" y="477.6"/>
      <point x="803.7" y="566.8"/>
      <point x="837.0" y="670.6" type="curve" smooth="yes"/>
      <point x="839.7" y="679.8"/>
      <point x="843.0" y="690.5"/>
      <point x="845.7" y="700.7" type="curve"/>
      <point x="562.5" y="700.2" type="line"/>
      <point x="561.3" y="690.4"/>
      <point x="559.3" y="681.8"/>
      <point x="557.8" y="673.2" type="curve" smooth="yes"/>
      <point x="532.8" y="571.1"/>
      <point x="506.1" y="514.4"/>
      <point x="416.7" y="385.5" type="curve"/>
      <point x="347.2" y="699.8" type="line"/>
      <point x="60.2" y="699.8" type="line"/>
      <point x="258.5" y="220.6" type="line"/>
    </contour>
  </outline>
</glyph>
<glyph name="Z" format="2">
  <advance width="790.0"/>
  <unicode hex="005A"/>
  <anchor x="351.5" y="0.0" name="bottom"/>
  <anchor x="407.5" y="350.0" name="center"/>
  <anchor x="455.5" y="700.0" name="top"/>
  <outline>
    <contour>
      <point x="-16.000000000000004" y="0.0" type="line"/>
      <point x="715.0" y="0.0" type="line"/>
      <point x="746.0" y="188.0" type="line"/>
      <point x="373.0" y="188.0" type="line"/>
      <point x="776.5" y="522.5" type="line"/>
      <point x="805.5" y="700.0" type="line"/>
      <point x="129.0" y="700.0" type="line"/>
      <point x="98.0" y="512.0" type="line"/>
      <point x="432.5" y="512.0" type="line"/>
      <point x="12.499999999999996" y="175.0" type="line"/>
    </contour>
  </outline>
</glyph>
<glyph name="bracketleft" format="2">
  <advance width="421.70000000000005"/>
  <unicode hex="005B"/>
  <outline>
    <contour>
      <point x="193.4" y="-55.0" type="line"/>
      <point x="296.2" y="585.0" type="line"/>
      <point x="442.4" y="585.0" type="line"/>
      <point x="467.4" y="740.0" type="line"/>
      <point x="136.39999999999998" y="740.0" type="line"/>
      <point x="-15.699999999999996" y="-210.0" type="line"/>
      <point x="314.3" y="-210.0" type="line"/>
      <point x="339.59999999999997" y="-55.0" type="line"/>
    </contour>
  </outline>
</glyph>
<glyph name="backslash" format="2">
  <advance width="465.7"/>
  <unicode hex="005C"/>
  <outline>
    <contour>
      <point x="247.6" y="740.0" type="line"/>
      <point x="70.3" y="740.0" type="line"/>
      <point x="245.2" y="-210.0" type="line"/>
      <point x="422.2" y="-210.0" type="line"/>
    </contour>
  </outline>
</glyph>
<glyph name="bracketright" format="2">
  <advance width="421.70000000000005"/>
  <unicode hex="005D"/>
  <outline>
    <contour>
      <point x="-23.700000000000003" y="-55.0" type="line"/>
      <point x="-48.0" y="-210.0" type="line"/>
      <point x="282.0" y="-210.0" type="line"/>
      <point x="435.1" y="740.0" type="line"/>
      <point x="104.10000000000001" y="740.0" type="line"/>
      <point x="78.80000000000001" y="585.0" type="line"/>
      <point x="225.00000000000003" y="585.0" type="line"/>
      <point x="121.9" y="-55.0" type="line"/>
    </contour>
  </outline>
</glyph>
<glyph name="asciicircum" format="2">
  <advance width="633.0"/>
  <unicode hex="005E"/>
  <outline>
    <contour>
      <point x="34.8" y="214.0" type="line"/>
      <point x="221.7" y="214.0" type="line"/>
      <point x="344.7" y="476.09999999999997" type="line"/>
      <point x="391.8" y="214.0" type="line"/>
      <point x="578.4" y="214.0" type="line"/>
      <point x="484.59999999999997" y="700.0" type="line"/>
      <point x="282.5" y="700.0" type="line"/>
    </contour>
  </outline>
</glyph>
<glyph name="underscore" format="2">
  <advance width="836.1999999999999"/>
  <unicode hex="005F"/>
  <outline>
    <contour>
      <point x="-63.00000000000001" y="-209.7" type="line"/>
      <point x="744.6" y="-209.7" type="line"/>
      <point x="772.2" y="-41.699999999999996" type="line"/>
      <point x="-35.400000000000006" y="-41.699999999999996" type="line"/>
    </contour>
  </outline>
</glyph>
<glyph name="a" format="2">
  <advance width="747.9999999999999"/>
  <unicode hex="0061"/>
  <note>
15
</note>
  <anchor x="333.22200000000004" y="0.0" name="bottom"/>
  <anchor x="706.0" y="7.0" name="ogonek"/>
  <anchor x="412.0" y="550.0" name="top"/>
  <outline>
    <contour>
      <point x="591.0" y="-10.0" type="curve" smooth="yes"/>
      <point x="631.0" y="-10.0"/>
      <point x="679.5" y="-1.9999999999999996"/>
      <point x="705.5" y="7.000000000000001" type="curve"/>
      <point x="711.9999999999999" y="181.0" type="line"/>
      <point x="707.0" y="180.0"/>
      <point x="698.9999999999999" y="179.5"/>
      <point x="694.5" y="179.5" type="curve" smooth="yes"/>
      <point x="681.4999999999999" y="179.5"/>
      <point x="677.9999999999999" y="186.00000000000003"/>
      <point x="677.9999999999999" y="197.0" type="curve" smooth="yes"/>
      <point x="677.9999999999999" y="207.0"/>
      <point x="685.5" y="250.99999999999997"/>
      <point x="728.4999999999999" y="519.0" type="curve"/>
      <point x="661.5" y="540.0"/>
      <point x="517.0000000000001" y="560.0"/>
      <point x="396.0" y="560.0" type="curve" smooth="yes"/>
      <point x="161.0" y="560.0"/>
      <point x="21.0" y="454.00000000000006"/>
      <point x="21.0" y="207.99999999999997" type="curve" smooth="yes"/>
      <point x="21.0" y="56.0"/>
      <point x="114.5" y="-10.0"/>
      <point x="236.5" y="-10.0" type="curve" smooth="yes"/>
      <point x="312.5" y="-10.0"/>
      <point x="378.99999999999994" y="14.5"/>
      <point x="434.49999999999994" y="52.49999999999999" type="curve"/>
      <point x="466.5" y="14.499999999999996"/>
      <point x="531.9999999999999" y="-10.0"/>
    </contour>
    <contour>
      <point x="429.5" y="197.5" type="line"/>
      <point x="402.49999999999994" y="187.0"/>
      <point x="367.5" y="177.0"/>
      <point x="336.99999999999994" y="177.0" type="curve" smooth="yes"/>
      <point x="301.0" y="177.0"/>
      <point x="269.99999999999994" y="199.5"/>
      <point x="269.99999999999994" y="246.0" type="curve" smooth="yes"/>
      <point x="269.99999999999994" y="329.5"/>
      <point x="318.5" y="385.50000000000006"/>
      <point x="388.5" y="385.50000000000006" type="curve" smooth="yes"/>
      <point x="412.00000000000006" y="385.50000000000006"/>
      <point x="436.49999999999994" y="383.5"/>
      <point x="458.0" y="376.5" type="curve"/>
    </contour>
  </outline>
</glyph>
<glyph name="b" format="2">
  <advance width="734.0"/>
  <unicode hex="0062"/>
  <note>
12
</note>
  <outline>
    <contour>
      <point x="368.5" y="740.0" type="line"/>
      <point x="120.50000000000001" y="740.0" type="line"/>
      <point x="6.4999999999999964" y="21.999999999999996" type="line"/>
      <point x="81.99999999999999" y="7.999999999999999"/>
      <point x="196.5" y="-10.0"/>
      <point x="321.99999999999994" y="-10.0" type="curve" smooth="yes"/>
      <point x="565.5" y="-10.0"/>
      <point x="716.0000000000001" y="105.00000000000001"/>
      <point x="715.5000000000001" y="351.5" type="curve" smooth="yes"/>
      <point x="715.5" y="479.0"/>
      <point x="654.0" y="560.0"/>
      <point x="526.0" y="560.0" type="curve" smooth="yes"/>
      <point x="459.5" y="560.0"/>
      <point x="399.0" y="542.5"/>
      <point x="329.5" y="503.0" type="curve"/>
    </contour>
    <contour>
      <point x="401.0" y="366.50000000000006" type="curve" smooth="yes"/>
      <point x="441.0" y="366.50000000000006"/>
      <point x="465.50000000000006" y="348.0"/>
      <point x="465.50000000000006" y="296.99999999999994" type="curve" smooth="yes"/>
      <point x="465.50000000000006" y="225.0"/>
      <point x="419.5" y="157.49999999999997"/>
      <point x="349.5" y="157.49999999999997" type="curve" smooth="yes"/>
      <point x="323.99999999999994" y="157.49999999999997"/>
      <point x="299.0" y="161.50000000000003"/>
      <point x="277.5" y="168.00000000000003" type="curve"/>
      <point x="305.5" y="346.5" type="line"/>
      <point x="333.0" y="356.0"/>
      <point x="368.5" y="366.50000000000006"/>
    </contour>
  </outline>
</glyph>
<glyph name="c" format="2">
  <advance width="642.5"/>
  <unicode hex="0063"/>
  <note>
10
</note>
  <anchor x="339.5" y="0.0" name="bottom"/>
  <anchor x="410.0" y="550.0" name="top"/>
  <outline>
    <contour>
      <point x="317.99999999999994" y="-10.0" type="curve" smooth="yes"/>
      <point x="397.99999999999994" y="-10.0"/>
      <point x="500.99999999999994" y="-4.0"/>
      <point x="583.0" y="21.499999999999993" type="curve"/>
      <point x="575.4999999999999" y="189.5" type="line"/>
      <point x="495.5" y="176.0"/>
      <point x="447.50000000000006" y="173.0"/>
      <point x="390.5" y="173.0" type="curve" smooth="yes"/>
      <point x="314.0" y="173.0"/>
      <point x="275.5" y="204.0"/>
      <point x="275.5" y="255.49999999999994" type="curve" smooth="yes"/>
      <point x="275.5" y="326.00000000000006"/>
      <point x="314.0" y="380.5"/>
      <point x="407.5" y="380.5" type="curve" smooth="yes"/>
      <point x="460.00000000000006" y="380.5"/>
      <point x="520.9999999999999" y="375.50000000000006"/>
      <point x="593.9999999999999" y="360.0" type="curve"/>
      <point x="653.5" y="534.0" type="line"/>
      <point x="590.5" y="550.5"/>
      <point x="495.99999999999994" y="560.0"/>
      <point x="414.5" y="560.0" type="curve" smooth="yes"/>
      <point x="144.99999999999997" y="560.0"/>
      <point x="21.499999999999993" y="435.50000000000006"/>
      <point x="21.499999999999993" y="224.0" type="curve" smooth="yes"/>
      <point x="21.499999999999993" y="74.0"/>
      <point x="109.50000000000001" y="-10.0"/>
    </contour>
  </outline>
</glyph>
<glyph name="d" format="2">
  <advance width="748.0"/>
  <unicode hex="0064"/>
  <note>
17
</note>
  <anchor x="353.0" y="0.0" name="bottom"/>
  <anchor x="374.0" y="275.0" name="center"/>
  <anchor x="429.5" y="740.0" name="top"/>
  <anchor x="788.0" y="740.0" name="topright"/>
  <outline>
    <contour>
      <point x="591.0" y="-10.0" type="curve" smooth="yes"/>
      <point x="629.9999999999999" y="-10.0"/>
      <point x="678.5000000000001" y="-2.5"/>
      <point x="705.0" y="7.000000000000001" type="curve"/>
      <point x="711.5" y="181.0" type="line"/>
      <point x="706.5" y="180.0"/>
      <point x="699.0000000000001" y="179.5"/>
      <point x="694.4999999999999" y="179.5" type="curve" smooth="yes"/>
      <point x="682.4999999999999" y="179.5"/>
      <point x="677.9999999999999" y="185.0"/>
      <point x="677.9999999999999" y="195.0" type="curve" smooth="yes"/>
      <point x="677.9999999999999" y="212.5"/>
      <point x="761.4999999999999" y="740.0"/>
      <point x="761.5" y="740.0" type="curve"/>
      <point x="515.5" y="740.0" type="line"/>
      <point x="484.49999999999994" y="546.0" type="line"/>
      <point x="453.49999999999994" y="554.5"/>
      <point x="409.5" y="560.0"/>
      <point x="363.0" y="560.0" type="curve" smooth="yes"/>
      <point x="176.0" y="560.0"/>
      <point x="21.0" y="457.5"/>
      <point x="21.0" y="209.0" type="curve" smooth="yes"/>
      <point x="21.0" y="57.0"/>
      <point x="116.49999999999999" y="-10.0"/>
      <point x="237.49999999999997" y="-10.0" type="curve" smooth="yes"/>
      <point x="313.5" y="-10.0"/>
      <point x="380.49999999999994" y="16.5"/>
      <point x="434.0" y="52.499999999999986" type="curve"/>
      <point x="465.99999999999994" y="15.0"/>
      <point x="531.5" y="-10.0"/>
    </contour>
    <contour>
      <point x="336.5" y="177.0" type="curve" smooth="yes"/>
      <point x="300.0" y="177.0"/>
      <point x="269.49999999999994" y="199.0"/>
      <point x="269.49999999999994" y="241.0" type="curve" smooth="yes"/>
      <point x="269.49999999999994" y="321.5"/>
      <point x="316.99999999999994" y="385.50000000000006"/>
      <point x="388.5" y="385.50000000000006" type="curve" smooth="yes"/>
      <point x="412.0" y="385.50000000000006"/>
      <point x="436.50000000000006" y="383.5"/>
      <point x="457.5" y="376.5" type="curve"/>
      <point x="428.99999999999994" y="197.5" type="line"/>
      <point x="402.0" y="187.0"/>
      <point x="366.49999999999994" y="177.0"/>
    </contour>
  </outline>
</glyph>
<glyph name="e" format="2">
  <advance width="684.5"/>
  <unicode hex="0065"/>
  <note>
14 points
</note>
  <anchor x="308.5" y="0.0" name="bottom"/>
  <anchor x="563.5" y="8.999999999999998" name="ogonek"/>
  <anchor x="392.99999999999994" y="549.5" name="top"/>
  <outline>
    <contour>
      <point x="228.99999999999997" y="310.5" type="curve"/>
      <point x="231.99999999999997" y="202.0" type="line"/>
      <point x="273.5" y="195.5"/>
      <point x="321.50000000000006" y="193.0"/>
      <point x="387.5" y="197.0" type="curve" smooth="yes"/>
      <point x="572.0" y="209.99999999999997"/>
      <point x="675.5" y="283.0"/>
      <point x="675.5" y="392.99999999999994" type="curve" smooth="yes"/>
      <point x="675.5" y="496.5"/>
      <point x="572.5" y="559.5"/>
      <point x="405.0" y="559.5" type="curve" smooth="yes"/>
      <point x="145.5" y="559.5"/>
      <point x="22.000000000000004" y="427.0"/>
      <point x="22.000000000000004" y="231.5" type="curve" smooth="yes"/>
      <point x="22.000000000000004" y="75.5"/>
      <point x="140.0" y="-10.0"/>
      <point x="343.00000000000006" y="-10.0" type="curve" smooth="yes"/>
      <point x="436.49999999999994" y="-10.0"/>
      <point x="528.0" y="0.49999999999999906"/>
      <point x="613.0" y="22.0" type="curve"/>
      <point x="591.5" y="195.0" type="line"/>
      <point x="508.4999999999999" y="174.0"/>
      <point x="430.49999999999994" y="166.5"/>
      <point x="395.5" y="166.5" type="curve" smooth="yes"/>
      <point x="293.00000000000006" y="166.5"/>
      <point x="268.0" y="181.5"/>
      <point x="269.0" y="251.0" type="curve" smooth="yes"/>
      <point x="270.0" y="339.5"/>
      <point x="319.50000000000006" y="396.50000000000006"/>
      <point x="381.50000000000006" y="396.50000000000006" type="curve" smooth="yes"/>
      <point x="410.0" y="396.50000000000006"/>
      <point x="422.99999999999994" y="387.0"/>
      <point x="422.99999999999994" y="368.0" type="curve" smooth="yes"/>
      <point x="422.5" y="340.5"/>
      <point x="379.99999999999994" y="319.0"/>
      <point x="305.0" y="312.5" type="curve" smooth="yes"/>
      <point x="275.5" y="310.0"/>
      <point x="248.5" y="308.0"/>
    </contour>
  </outline>
</glyph>
<glyph name="f" format="2">
  <advance width="516.5"/>
  <unicode hex="0066"/>
  <outline>
    <contour>
      <point x="68.39999999999999" y="-220.0" type="curve" smooth="yes"/>
      <point x="192.2" y="-220.0"/>
      <point x="273.5" y="-139.8"/>
      <point x="296.09999999999997" y="0.0" type="curve" smooth="yes"/>
      <point x="347.7" y="327.2" type="line"/>
      <point x="494.0" y="327.2" type="line"/>
      <point x="521.5" y="497.5" type="line"/>
      <point x="374.5" y="497.5" type="line"/>
      <point x="381.5" y="538.9"/>
      <point x="411.1" y="555.0"/>
      <point x="459.09999999999997" y="555.0" type="curve" smooth="yes"/>
      <point x="491.5" y="555.0"/>
      <point x="537.8" y="547.8"/>
      <point x="561.3" y="540.0" type="curve"/>
      <point x="619.0999999999999" y="717.5" type="line"/>
      <point x="569.1" y="737.0"/>
      <point x="500.59999999999997" y="750.0"/>
      <point x="433.09999999999997" y="750.0" type="curve" smooth="yes"/>
      <point x="262.4" y="750.0"/>
      <point x="148.79999999999998" y="659.1999999999999"/>
      <point x="127.80000000000001" y="497.5" type="curve"/>
      <point x="47.5" y="481.40000000000003" type="line"/>
      <point x="22.1" y="327.2" type="line"/>
      <point x="100.3" y="327.2" type="line"/>
      <point x="53.199999999999996" y="28.599999999999998" type="line" smooth="yes"/>
      <point x="47.599999999999994" y="-7.800000000000004"/>
      <point x="31.199999999999996" y="-26.1"/>
      <point x="7.299999999999994" y="-26.1" type="curve" smooth="yes"/>
      <point x="-3.2000000000000015" y="-26.1"/>
      <point x="-16.000000000000007" y="-24.7"/>
      <point x="-27.2" y="-21.1" type="curve"/>
      <point x="-72.10000000000001" y="-195.70000000000002" type="line"/>
      <point x="-29.900000000000002" y="-212.60000000000002"/>
      <point x="12.399999999999991" y="-220.0"/>
    </contour>
  </outline>
</glyph>
<glyph name="g" format="2">
  <advance width="737.0"/>
  <unicode hex="0067"/>
  <note>
16
</note>
  <anchor x="284.5" y="-213.0" name="bottom"/>
  <anchor x="417.5" y="550.0" name="top"/>
  <outline>
    <contour>
      <point x="-14.500000000000002" y="-167.5" type="line"/>
      <point x="64.0" y="-197.0"/>
      <point x="167.5" y="-220.0"/>
      <point x="298.5" y="-220.0" type="curve" smooth="yes"/>
      <point x="514.4999999999999" y="-220.0"/>
      <point x="627.0" y="-117.49999999999999"/>
      <point x="657.5000000000001" y="75.0" type="curve" smooth="yes"/>
      <point x="728.9999999999999" y="524.0" type="line"/>
      <point x="675.9999999999999" y="539.5"/>
      <point x="514.5" y="560.0"/>
      <point x="423.5" y="560.0" type="curve" smooth="yes"/>
      <point x="118.99999999999999" y="560.0"/>
      <point x="21.999999999999996" y="418.0"/>
      <point x="21.999999999999996" y="217.0" type="curve" smooth="yes"/>
      <point x="21.999999999999996" y="88.5"/>
      <point x="100.0" y="24.0"/>
      <point x="228.5" y="24.0" type="curve" smooth="yes"/>
      <point x="269.5" y="24.0"/>
      <point x="356.0" y="40.5"/>
      <point x="410.49999999999994" y="73.99999999999999" type="curve"/>
      <point x="406.99999999999994" y="51.5" type="line" smooth="yes"/>
      <point x="395.5" y="-25.0"/>
      <point x="352.49999999999994" y="-38.0"/>
      <point x="272.49999999999994" y="-38.0" type="curve" smooth="yes"/>
      <point x="194.99999999999997" y="-38.0"/>
      <point x="114.49999999999999" y="-19.5"/>
      <point x="42.49999999999999" y="1.9999999999999947" type="curve"/>
    </contour>
    <contour>
      <point x="458.99999999999994" y="384.0" type="curve"/>
      <point x="431.00000000000006" y="206.5" type="line"/>
      <point x="398.5" y="196.0"/>
      <point x="369.0" y="189.5"/>
      <point x="345.49999999999994" y="189.5" type="curve" smooth="yes"/>
      <point x="296.0" y="189.5"/>
      <point x="273.0" y="217.5"/>
      <point x="273.0" y="266.5" type="curve" smooth="yes"/>
      <point x="273.0" y="332.5"/>
      <point x="312.5" y="393.0"/>
      <point x="389.49999999999994" y="393.0" type="curve" smooth="yes"/>
      <point x="421.5" y="393.0"/>
      <point x="444.49999999999994" y="388.0"/>
    </contour>
  </outline>
</glyph>
<glyph name="h" format="2">
  <advance width="716.0"/>
  <unicode hex="0068"/>
  <note>
16
</note>
  <anchor x="324.9" y="0.0" name="bottom"/>
  <anchor x="379.0042" y="387.5" name="center"/>
  <anchor x="421.29999999999995" y="740.0" name="top"/>
  <outline>
    <contour>
      <point x="652.6999999999999" y="196.7" type="curve" smooth="yes"/>
      <point x="652.6999999999999" y="225.0"/>
      <point x="685.3000000000001" y="380.1"/>
      <point x="685.3000000000001" y="417.9" type="curve" smooth="yes"/>
      <point x="685.3000000000001" y="495.79999999999995"/>
      <point x="634.6" y="560.0"/>
      <point x="514.0999999999999" y="560.0" type="curve" smooth="yes"/>
      <point x="450.69999999999993" y="560.0"/>
      <point x="406.1" y="545.8"/>
      <point x="331.0" y="506.0" type="curve"/>
      <point x="368.4" y="740.0" type="line"/>
      <point x="121.0" y="740.0" type="line"/>
      <point x="2.3000000000000007" y="0.0" type="line"/>
      <point x="250.4" y="0.0" type="line"/>
      <point x="306.4" y="349.5" type="line"/>
      <point x="334.1" y="361.5"/>
      <point x="364.3" y="369.8"/>
      <point x="385.4" y="369.8" type="curve" smooth="yes"/>
      <point x="414.1" y="369.8"/>
      <point x="426.9000000000001" y="356.0"/>
      <point x="426.9000000000001" y="333.2" type="curve" smooth="yes"/>
      <point x="426.9000000000001" y="309.79999999999995"/>
      <point x="395.30000000000007" y="144.9"/>
      <point x="395.30000000000007" y="115.3" type="curve" smooth="yes"/>
      <point x="395.30000000000007" y="34.4"/>
      <point x="464.9999999999999" y="-10.0"/>
      <point x="558.5999999999999" y="-10.0" type="curve" smooth="yes"/>
      <point x="600.6" y="-10.0"/>
      <point x="649.6" y="-4.199999999999999"/>
      <point x="680.4" y="4.5" type="curve"/>
      <point x="687.0" y="181.4" type="line"/>
      <point x="681.8999999999999" y="180.4"/>
      <point x="673.7" y="179.7"/>
      <point x="668.9" y="179.7" type="curve" smooth="yes"/>
      <point x="657.6999999999999" y="179.7"/>
      <point x="652.6999999999999" y="186.6"/>
    </contour>
  </outline>
</glyph>
<glyph name="i" format="2">
  <advance width="341.7"/>
  <unicode hex="0069"/>
  <note>
Ajuster pts sur points
8
</note>
  <anchor x="127.31079999999997" y="0.0" name="bottom"/>
  <anchor x="251.39999999999998" y="0.0" name="ogonek"/>
  <anchor x="214.38920000000002" y="550.0" name="top"/>
  <outline>
    <contour>
      <point x="3.3000000000000007" y="0.0" type="line"/>
      <point x="251.39999999999998" y="0.0" type="line"/>
      <point x="337.7" y="550.0" type="line"/>
      <point x="90.99999999999999" y="550.0" type="line"/>
    </contour>
    <contour>
      <point x="251.2" y="790.0" type="curve" smooth="yes"/>
      <point x="138.29999999999998" y="790.0"/>
      <point x="85.6" y="739.4"/>
      <point x="85.6" y="658.5" type="curve" smooth="yes"/>
      <point x="85.6" y="602.0"/>
      <point x="124.9" y="569.7"/>
      <point x="214.5" y="569.7" type="curve" smooth="yes"/>
      <point x="308.1" y="569.7"/>
      <point x="379.4" y="611.1"/>
      <point x="379.40000000000003" y="702.2" type="curve" smooth="yes"/>
      <point x="379.4" y="758.0"/>
      <point x="339.8" y="790.0"/>
    </contour>
  </outline>
</glyph>
<glyph name="j" format="2">
  <advance width="363.0"/>
  <unicode hex="006A"/>
  <note>
idem /i
12
</note>
  <outline>
    <contour>
      <point x="273.2" y="790.0" type="curve" smooth="yes"/>
      <point x="159.6" y="790.0"/>
      <point x="107.6" y="739.4"/>
      <point x="107.6" y="658.5" type="curve" smooth="yes"/>
      <point x="107.6" y="602.0"/>
      <point x="147.9" y="569.7"/>
      <point x="237.5" y="569.7" type="curve" smooth="yes"/>
      <point x="330.8" y="569.7"/>
      <point x="401.4" y="611.1"/>
      <point x="401.4" y="702.2" type="curve" smooth="yes"/>
      <point x="401.4" y="758.0"/>
      <point x="361.8" y="790.0"/>
    </contour>
    <contour>
      <point x="360.7" y="550.0" type="line"/>
      <point x="112.99999999999999" y="550.0" type="line"/>
      <point x="31.599999999999994" y="34.599999999999994" type="line" smooth="yes"/>
      <point x="25.3" y="-6.700000000000006"/>
      <point x="13.399999999999993" y="-26.1"/>
      <point x="-17.5" y="-26.1" type="curve" smooth="yes"/>
      <point x="-25.5" y="-26.1"/>
      <point x="-38.300000000000004" y="-25.400000000000002"/>
      <point x="-47.800000000000004" y="-22.5" type="curve"/>
      <point x="-96.10000000000001" y="-207.5" type="line"/>
      <point x="-53.2" y="-216.0"/>
      <point x="-6.700000000000003" y="-220.0"/>
      <point x="19.799999999999997" y="-220.0" type="curve" smooth="yes"/>
      <point x="185.6" y="-220.0"/>
      <point x="253.29999999999998" y="-124.69999999999999"/>
      <point x="281.79999999999995" y="56.099999999999994" type="curve" smooth="yes"/>
    </contour>
  </outline>
</glyph>
<glyph name="k" format="2">
  <advance width="695.0"/>
  <unicode hex="006B"/>
  <anchor x="316.5" y="0.0" name="bottom"/>
  <anchor x="244.5" y="740.0" name="top"/>
  <outline>
    <contour>
      <point x="2.9999999999999964" y="0.0" type="line"/>
      <point x="249.5" y="0.0" type="line"/>
      <point x="368.0" y="740.0" type="line"/>
      <point x="120.5" y="740.0" type="line"/>
    </contour>
    <contour>
      <point x="581.5" y="-10.0" type="curve" smooth="yes"/>
      <point x="596.5" y="-10.0"/>
      <point x="611.5" y="-8.5"/>
      <point x="627.0" y="-5.0" type="curve"/>
      <point x="662.0" y="215.0" type="line"/>
      <point x="653.0" y="214.5"/>
      <point x="645.0" y="214.5"/>
      <point x="635.5" y="215.0" type="curve" smooth="yes"/>
      <point x="583.5" y="217.5"/>
      <point x="529.5" y="234.0"/>
      <point x="439.5" y="297.0" type="curve" smooth="yes"/>
      <point x="289.5" y="403.5" type="line"/>
      <point x="252.0" y="186.0" type="line"/>
      <point x="365.0" y="85.5" type="line" smooth="yes"/>
      <point x="430.99999999999994" y="26.5"/>
      <point x="507.0" y="-10.0"/>
    </contour>
    <contour>
      <point x="454.5" y="264.0" type="line"/>
      <point x="572.5" y="345.0"/>
      <point x="677.0" y="458.5"/>
      <point x="715.0" y="548.5" type="curve"/>
      <point x="454.0" y="560.0" type="line"/>
      <point x="417.0" y="475.5"/>
      <point x="358.5" y="415.0"/>
      <point x="280.0" y="348.5" type="curve"/>
    </contour>
  </outline>
</glyph>
<glyph name="l" format="2">
  <advance width="414.29999999999995"/>
  <unicode hex="006C"/>
  <anchor x="184.2" y="0.0" name="bottom"/>
  <anchor x="228.1042" y="387.5" name="center"/>
  <anchor x="244.0" y="740.0" name="top"/>
  <anchor x="394.1" y="740.0" name="topright"/>
  <outline>
    <contour>
      <point x="120.30000000000001" y="740.0" type="line"/>
      <point x="35.599999999999994" y="206.8" type="line" smooth="yes"/>
      <point x="31.499999999999996" y="179.4"/>
      <point x="28.399999999999995" y="154.2"/>
      <point x="28.399999999999995" y="132.29999999999998" type="curve" smooth="yes"/>
      <point x="28.399999999999995" y="31.900000000000006"/>
      <point x="79.4" y="-10.0"/>
      <point x="184.2" y="-10.0" type="curve" smooth="yes"/>
      <point x="251.4" y="-10.0"/>
      <point x="318.6" y="2.8"/>
      <point x="376.5" y="22.0" type="curve"/>
      <point x="383.09999999999997" y="206.60000000000002" type="line"/>
      <point x="352.09999999999997" y="200.0"/>
      <point x="334.1" y="196.5"/>
      <point x="316.0" y="196.5" type="curve" smooth="yes"/>
      <point x="297.1" y="196.5"/>
      <point x="286.4" y="202.9"/>
      <point x="286.4" y="220.9" type="curve" smooth="yes"/>
      <point x="286.4" y="225.89999999999998"/>
      <point x="286.7" y="232.2"/>
      <point x="288.4" y="241.3" type="curve" smooth="yes"/>
      <point x="367.70000000000005" y="740.0" type="line"/>
    </contour>
  </outline>
</glyph>
<glyph name="m" format="2">
  <advance width="1041.1000000000001"/>
  <unicode hex="006D"/>
  <note>
24&gt;23 points
un point de trop dans la jointure avec 2e jambage
</note>
  <outline>
    <contour>
      <point x="882.8" y="-10.0" type="curve" smooth="yes"/>
      <point x="924.8" y="-10.0"/>
      <point x="975.5999999999999" y="-4.199999999999999"/>
      <point x="1005.4999999999998" y="4.5" type="curve"/>
      <point x="1012.0999999999998" y="181.4" type="line"/>
      <point x="1007.0" y="180.4"/>
      <point x="998.8" y="179.7"/>
      <point x="994.0" y="179.7" type="curve" smooth="yes"/>
      <point x="982.7999999999998" y="179.7"/>
      <point x="977.7999999999998" y="187.5"/>
      <point x="977.7999999999998" y="198.5" type="curve" smooth="yes"/>
      <point x="977.7999999999998" y="232.20000000000002"/>
      <point x="1010.4" y="382.2"/>
      <point x="1010.4" y="419.7" type="curve" smooth="yes"/>
      <point x="1010.4" y="495.2"/>
      <point x="956.4999999999999" y="560.0"/>
      <point x="835.7" y="560.0" type="curve" smooth="yes"/>
      <point x="758.8999999999999" y="560.0"/>
      <point x="714.5999999999999" y="537.0"/>
      <point x="638.8" y="486.1" type="curve"/>
      <point x="621.1" y="529.0"/>
      <point x="583.5" y="560.0"/>
      <point x="502.1" y="560.0" type="curve" smooth="yes"/>
      <point x="444.29999999999995" y="560.0"/>
      <point x="384.2" y="540.5"/>
      <point x="304.1" y="494.4" type="curve"/>
      <point x="312.9" y="550.0" type="line"/>
      <point x="90.30000000000001" y="550.0" type="line"/>
      <point x="3.299999999999997" y="0.0" type="line"/>
      <point x="250.7" y="0.0" type="line"/>
      <point x="306.4" y="355.8" type="line"/>
      <point x="326.8" y="364.7"/>
      <point x="344.3" y="369.8"/>
      <point x="359.4" y="369.8" type="curve" smooth="yes"/>
      <point x="386.7" y="369.8"/>
      <point x="402.70000000000005" y="355.3"/>
      <point x="402.70000000000005" y="326.90000000000003" type="curve" smooth="yes"/>
      <point x="402.70000000000005" y="310.79999999999995"/>
      <point x="373.7" y="131.2"/>
      <point x="352.29999999999995" y="0.0" type="curve"/>
      <point x="596.6" y="0.0" type="line"/>
      <point x="613.8000000000001" y="105.59999999999997"/>
      <point x="630.7" y="212.20000000000002"/>
      <point x="647.9" y="317.8" type="curve" smooth="yes"/>
      <point x="648.9" y="323.4"/>
      <point x="652.3" y="346.3"/>
      <point x="653.3" y="350.20000000000005" type="curve"/>
      <point x="676.0999999999999" y="363.6"/>
      <point x="692.5999999999999" y="367.7"/>
      <point x="708.8" y="367.7" type="curve" smooth="yes"/>
      <point x="738.9000000000001" y="367.7"/>
      <point x="751.0" y="353.2"/>
      <point x="751.0" y="329.70000000000005" type="curve" smooth="yes"/>
      <point x="751.0" y="307.0"/>
      <point x="720.1" y="149.0"/>
      <point x="720.1" y="116.19999999999999" type="curve" smooth="yes"/>
      <point x="720.1" y="32.6"/>
      <point x="789.2" y="-10.0"/>
    </contour>
  </outline>
</glyph>
<glyph name="n" format="2">
  <advance width="716.0"/>
  <unicode hex="006E"/>
  <note>
16
</note>
  <anchor x="326.1" y="0.0" name="bottom"/>
  <anchor x="395.9" y="550.0" name="top"/>
  <outline>
    <contour>
      <point x="90.30000000000001" y="550.0" type="line"/>
      <point x="3.299999999999997" y="0.0" type="line"/>
      <point x="250.0" y="0.0" type="line"/>
      <point x="306.7" y="349.5" type="line"/>
      <point x="327.4" y="359.4"/>
      <point x="362.9" y="369.8"/>
      <point x="385.0" y="369.8" type="curve" smooth="yes"/>
      <point x="413.0" y="369.8"/>
      <point x="427.20000000000005" y="358.09999999999997"/>
      <point x="427.20000000000005" y="333.20000000000005" type="curve" smooth="yes"/>
      <point x="427.20000000000005" y="303.7"/>
      <point x="395.6" y="156.0"/>
      <point x="395.6" y="113.8" type="curve" smooth="yes"/>
      <point x="395.6" y="34.7"/>
      <point x="464.7" y="-10.0"/>
      <point x="558.3" y="-10.0" type="curve" smooth="yes"/>
      <point x="600.3" y="-10.0"/>
      <point x="650.5" y="-4.199999999999999"/>
      <point x="680.4000000000001" y="4.5" type="curve"/>
      <point x="687.0" y="181.4" type="line"/>
      <point x="681.9" y="180.4"/>
      <point x="673.6999999999999" y="179.7"/>
      <point x="668.9" y="179.7" type="curve" smooth="yes"/>
      <point x="657.7" y="179.7"/>
      <point x="652.6999999999999" y="186.6"/>
      <point x="652.6999999999999" y="196.7" type="curve" smooth="yes"/>
      <point x="652.6999999999999" y="225.0"/>
      <point x="685.6" y="380.1"/>
      <point x="685.6" y="417.9" type="curve" smooth="yes"/>
      <point x="685.6" y="505.59999999999997"/>
      <point x="618.8" y="560.0"/>
      <point x="510.90000000000003" y="560.0" type="curve" smooth="yes"/>
      <point x="441.2" y="560.0"/>
      <point x="367.8" y="538.4"/>
      <point x="308.0" y="494.40000000000003" type="curve"/>
      <point x="316.5" y="550.0" type="line"/>
    </contour>
  </outline>
</glyph>
<glyph name="o" format="2">
  <advance width="706.0"/>
  <unicode hex="006F"/>
  <note>
8
</note>
  <anchor x="309.0" y="0.0" name="bottom"/>
  <anchor x="353.0" y="275.0" name="center"/>
  <anchor x="433.5" y="0.0" name="ogonek"/>
  <anchor x="385.0" y="550.0" name="top"/>
  <anchor x="594.5" y="540.0" name="topright"/>
  <outline>
    <contour>
      <point x="342.0" y="-9.5" type="curve" smooth="yes"/>
      <point x="552.5" y="-9.5"/>
      <point x="678.5" y="98.00000000000001"/>
      <point x="682.0" y="309.5" type="curve" smooth="yes"/>
      <point x="684.5" y="485.5"/>
      <point x="562.5" y="561.0"/>
      <point x="368.0" y="561.0" type="curve" smooth="yes"/>
      <point x="153.5" y="561.0"/>
      <point x="27.5" y="454.0"/>
      <point x="24.000000000000004" y="242.0" type="curve" smooth="yes"/>
      <point x="21.500000000000004" y="66.0"/>
      <point x="143.5" y="-9.5"/>
    </contour>
    <contour>
      <point x="345.0" y="156.0" type="curve" smooth="yes"/>
      <point x="300.5" y="155.5"/>
      <point x="273.5" y="177.0"/>
      <point x="272.5" y="226.5" type="curve" smooth="yes"/>
      <point x="270.5" y="306.0"/>
      <point x="299.0" y="394.5"/>
      <point x="361.0" y="395.5" type="curve" smooth="yes"/>
      <point x="404.5" y="396.0"/>
      <point x="432.5" y="374.0"/>
      <point x="433.5" y="324.5" type="curve" smooth="yes"/>
      <point x="435.5" y="245.00000000000006"/>
      <point x="406.99999999999994" y="157.0"/>
    </contour>
  </outline>
</glyph>
<glyph name="p" format="2">
  <advance width="734.5"/>
  <unicode hex="0070"/>
  <note>
14 point
</note>
  <outline>
    <contour>
      <point x="-29.5" y="-210.0" type="line"/>
      <point x="216.5" y="-210.0" type="line"/>
      <point x="250.49999999999997" y="-1.27675647831893e-15" type="line"/>
      <point x="275.5" y="-5.0"/>
      <point x="314.0" y="-9.5"/>
      <point x="353.49999999999994" y="-9.5" type="curve" smooth="yes"/>
      <point x="603.5" y="-9.5"/>
      <point x="715.5000000000001" y="129.5"/>
      <point x="715.5000000000001" y="351.50000000000006" type="curve" smooth="yes"/>
      <point x="715.5000000000001" y="478.0"/>
      <point x="655.0" y="560.0"/>
      <point x="524.5000000000001" y="560.0" type="curve" smooth="yes"/>
      <point x="441.0" y="560.0"/>
      <point x="380.0" y="537.0"/>
      <point x="308.5" y="496.0" type="curve"/>
      <point x="315.5" y="550.0" type="line"/>
      <point x="90.5" y="550.0" type="line"/>
    </contour>
    <contour>
      <point x="349.49999999999994" y="157.49999999999997" type="curve" smooth="yes"/>
      <point x="323.99999999999994" y="157.49999999999997"/>
      <point x="299.0" y="161.5"/>
      <point x="277.5" y="168.0" type="curve"/>
      <point x="305.5" y="346.5" type="line"/>
      <point x="333.0" y="356.0"/>
      <point x="369.49999999999994" y="366.50000000000006"/>
      <point x="402.0" y="366.50000000000006" type="curve" smooth="yes"/>
      <point x="442.0" y="366.50000000000006"/>
      <point x="465.50000000000006" y="348.0"/>
      <point x="465.50000000000006" y="296.99999999999994" type="curve" smooth="yes"/>
      <point x="465.50000000000006" y="225.0"/>
      <point x="419.5" y="157.49999999999997"/>
    </contour>
  </outline>
</glyph>
<glyph name="q" format="2">
  <advance width="735.9999999999999"/>
  <unicode hex="0071"/>
  <note>
12
</note>
  <outline>
    <contour>
      <point x="728.0" y="523.5" type="line"/>
      <point x="650.0" y="542.5"/>
      <point x="522.0" y="560.0"/>
      <point x="404.5" y="560.0" type="curve" smooth="yes"/>
      <point x="145.0" y="560.0"/>
      <point x="19.999999999999996" y="430.49999999999994"/>
      <point x="19.999999999999996" y="205.49999999999997" type="curve" smooth="yes"/>
      <point x="19.999999999999996" y="72.5"/>
      <point x="90.99999999999999" y="-10.0"/>
      <point x="237.00000000000003" y="-10.0" type="curve" smooth="yes"/>
      <point x="294.5" y="-10.0"/>
      <point x="342.0" y="8.499999999999998"/>
      <point x="404.5" y="46.99999999999999" type="curve"/>
      <point x="364.0" y="-210.0" type="line"/>
      <point x="610.0" y="-210.0" type="line"/>
    </contour>
    <contour>
      <point x="456.99999999999994" y="377.00000000000006" type="curve"/>
      <point x="428.50000000000006" y="198.0" type="line"/>
      <point x="402.0" y="187.50000000000003"/>
      <point x="368.0" y="177.5"/>
      <point x="338.0" y="177.5" type="curve" smooth="yes"/>
      <point x="300.0" y="177.5"/>
      <point x="268.5" y="196.0"/>
      <point x="268.5" y="252.5" type="curve" smooth="yes"/>
      <point x="268.5" y="322.5"/>
      <point x="313.0" y="386.50000000000006"/>
      <point x="389.0" y="386.50000000000006" type="curve" smooth="yes"/>
      <point x="415.0" y="386.50000000000006"/>
      <point x="437.5" y="383.5"/>
    </contour>
  </outline>
</glyph>
<glyph name="r" format="2">
  <advance width="516.0"/>
  <unicode hex="0072"/>
  <anchor x="121.8" y="0.0" name="bottom"/>
  <anchor x="324.9" y="550.0" name="top"/>
  <outline>
    <contour>
      <point x="310.9" y="550.0" type="line"/>
      <point x="91.7" y="550.0" type="line"/>
      <point x="2.5999999999999943" y="0.0" type="line"/>
      <point x="249.8" y="0.0" type="line"/>
      <point x="302.2" y="321.7" type="line"/>
      <point x="345.9" y="339.8"/>
      <point x="377.2" y="344.6"/>
      <point x="407.3" y="344.6" type="curve" smooth="yes"/>
      <point x="433.6" y="344.6"/>
      <point x="459.4" y="340.1"/>
      <point x="490.7" y="332.6" type="curve"/>
      <point x="558.7" y="548.1999999999999" type="line"/>
      <point x="531.8" y="556.2"/>
      <point x="505.4" y="560.0"/>
      <point x="480.19999999999993" y="560.0" type="curve" smooth="yes"/>
      <point x="420.40000000000003" y="560.0"/>
      <point x="378.90000000000003" y="538.0"/>
      <point x="299.7" y="477.0" type="curve"/>
    </contour>
  </outline>
</glyph>
<glyph name="s" format="2">
  <advance width="599.0"/>
  <unicode hex="0073"/>
  <anchor x="283.5" y="0.0" name="bottom"/>
  <anchor x="346.0" y="550.0" name="top"/>
  <outline>
    <contour>
      <point x="-18.5" y="34.0" type="line"/>
      <point x="61.0" y="8.000000000000002"/>
      <point x="146.5" y="-10.0"/>
      <point x="258.5" y="-10.0" type="curve" smooth="yes"/>
      <point x="412.0" y="-10.0"/>
      <point x="567.0" y="16.500000000000007"/>
      <point x="567.0" y="195.0" type="curve" smooth="yes"/>
      <point x="567.0" y="408.0"/>
      <point x="250.0" y="320.0"/>
      <point x="250.0" y="383.0" type="curve" smooth="yes"/>
      <point x="250.0" y="398.0"/>
      <point x="274.5" y="397.5"/>
      <point x="330.5" y="397.5" type="curve" smooth="yes"/>
      <point x="389.0" y="397.5"/>
      <point x="473.5" y="386.5"/>
      <point x="531.0" y="367.0" type="curve"/>
      <point x="579.0" y="525.5" type="line"/>
      <point x="517.5" y="545.5"/>
      <point x="442.5" y="560.0"/>
      <point x="351.0" y="560.0" type="curve" smooth="yes"/>
      <point x="161.5" y="560.0"/>
      <point x="37.5" y="501.5"/>
      <point x="37.5" y="356.5" type="curve" smooth="yes"/>
      <point x="37.5" y="144.0"/>
      <point x="351.5" y="229.5"/>
      <point x="351.5" y="157.0" type="curve" smooth="yes"/>
      <point x="351.5" y="144.5"/>
      <point x="323.5" y="147.0"/>
      <point x="270.5" y="147.0" type="curve" smooth="yes"/>
      <point x="196.0" y="147.0"/>
      <point x="91.5" y="165.0"/>
      <point x="30.5" y="187.0" type="curve"/>
    </contour>
  </outline>
</glyph>
<glyph name="t" format="2">
  <advance width="496.69999999999993"/>
  <unicode hex="0074"/>
  <anchor x="230.1" y="0.0" name="bottom"/>
  <anchor x="246.79999999999998" y="275.0" name="center"/>
  <anchor x="281.9" y="661.7" name="top"/>
  <anchor x="453.3" y="782.5" name="topright"/>
  <outline>
    <contour>
      <point x="447.4" y="202.5" type="line"/>
      <point x="405.09999999999997" y="194.9"/>
      <point x="381.9" y="189.7"/>
      <point x="360.8" y="189.7" type="curve" smooth="yes"/>
      <point x="332.70000000000005" y="189.7"/>
      <point x="320.0" y="200.6"/>
      <point x="320.0" y="222.89999999999998" type="curve" smooth="yes"/>
      <point x="320.0" y="228.5"/>
      <point x="320.3" y="234.4"/>
      <point x="321.29999999999995" y="241.3" type="curve" smooth="yes"/>
      <point x="344.9" y="379.7" type="line"/>
      <point x="477.9" y="379.7" type="line"/>
      <point x="507.40000000000003" y="550.0" type="line"/>
      <point x="372.3" y="550.0" type="line"/>
      <point x="390.4" y="661.7" type="line"/>
      <point x="172.70000000000002" y="661.7" type="line"/>
      <point x="128.7" y="550.0" type="line"/>
      <point x="42.9" y="534.2" type="line"/>
      <point x="15.8" y="380.0" type="line"/>
      <point x="97.1" y="380.0" type="line"/>
      <point x="73.29999999999998" y="228.70000000000002" type="line" smooth="yes"/>
      <point x="68.29999999999998" y="198.39999999999998"/>
      <point x="65.4" y="167.0"/>
      <point x="65.4" y="143.29999999999998" type="curve" smooth="yes"/>
      <point x="65.4" y="24.2"/>
      <point x="138.6" y="-10.0"/>
      <point x="238.79999999999998" y="-10.0" type="curve" smooth="yes"/>
      <point x="310.69999999999993" y="-10.0"/>
      <point x="367.79999999999995" y="1.5"/>
      <point x="436.5" y="19.9" type="curve"/>
    </contour>
  </outline>
</glyph>
<glyph name="u" format="2">
  <advance width="718.2"/>
  <unicode hex="0075"/>
  <note>
15
</note>
  <anchor x="316.6" y="0.0" name="bottom"/>
  <anchor x="678.0" y="22.7" name="ogonek"/>
  <anchor x="395.2668" y="550.0" name="top"/>
  <anchor x="695.5999999999999" y="550.0" name="topright"/>
  <outline>
    <contour>
      <point x="204.39999999999998" y="-10.0" type="curve" smooth="yes"/>
      <point x="268.20000000000005" y="-10.0"/>
      <point x="342.5" y="14.7"/>
      <point x="407.2" y="61.4" type="curve"/>
      <point x="428.0" y="22.700000000000003"/>
      <point x="477.5" y="-10.0"/>
      <point x="541.9000000000001" y="-10.0" type="curve" smooth="yes"/>
      <point x="589.5" y="-10.0"/>
      <point x="641.0999999999999" y="4.199999999999999"/>
      <point x="678.0" y="30.4" type="curve"/>
      <point x="683.1999999999999" y="181.1" type="line"/>
      <point x="673.2" y="178.0"/>
      <point x="667.8" y="178.0"/>
      <point x="665.1" y="178.0" type="curve" smooth="yes"/>
      <point x="656.0" y="178.0"/>
      <point x="648.1" y="183.70000000000002"/>
      <point x="648.1" y="198.9" type="curve" smooth="yes"/>
      <point x="648.1" y="203.20000000000002"/>
      <point x="649.1" y="211.2"/>
      <point x="704.5999999999999" y="550.0" type="curve"/>
      <point x="457.3999999999999" y="550.0" type="line"/>
      <point x="401.79999999999995" y="197.8" type="line"/>
      <point x="381.8" y="187.9"/>
      <point x="348.0" y="178.2"/>
      <point x="324.19999999999993" y="178.2" type="curve" smooth="yes"/>
      <point x="296.6" y="178.2"/>
      <point x="280.7" y="188.7"/>
      <point x="281.3" y="218.3" type="curve" smooth="yes"/>
      <point x="286.7" y="272.70000000000005"/>
      <point x="297.8" y="330.6"/>
      <point x="335.70000000000005" y="550.0" type="curve"/>
      <point x="88.19999999999999" y="550.0" type="line"/>
      <point x="32.69999999999999" y="211.79999999999998"/>
      <point x="24.200000000000003" y="166.9"/>
      <point x="24.200000000000003" y="132.3" type="curve" smooth="yes"/>
      <point x="24.200000000000003" y="44.3"/>
      <point x="87.1" y="-10.0"/>
    </contour>
  </outline>
</glyph>
<glyph name="v" format="2">
  <advance width="656.4"/>
  <unicode hex="0076"/>
  <outline>
    <contour>
      <point x="391.8" y="0.20000000000000018" type="line"/>
      <point x="542.9" y="174.3"/>
      <point x="659.6" y="355.5"/>
      <point x="686.7" y="550.0" type="curve"/>
      <point x="425.5" y="550.0" type="line"/>
      <point x="416.9" y="436.1"/>
      <point x="361.79999999999995" y="297.9"/>
      <point x="295.7" y="192.0" type="curve"/>
      <point x="288.6" y="550.0" type="line"/>
      <point x="26.4" y="549.9" type="line"/>
      <point x="109.49999999999997" y="0.20000000000000018" type="line"/>
    </contour>
  </outline>
</glyph>
<glyph name="w" format="2">
  <advance width="903.0"/>
  <unicode hex="0077"/>
  <note>
15
</note>
  <anchor x="402.9" y="0.0" name="bottom"/>
  <anchor x="479.7" y="550.0" name="top"/>
  <outline>
    <contour>
      <point x="712.9" y="0.0" type="line"/>
      <point x="820.8" y="182.4"/>
      <point x="919.0" y="385.9"/>
      <point x="919.1" y="550.0" type="curve"/>
      <point x="695.9" y="550.0" type="line"/>
      <point x="691.4" y="429.0"/>
      <point x="652.6" y="299.5"/>
      <point x="601.3" y="176.2" type="curve"/>
      <point x="622.1" y="550.2" type="line"/>
      <point x="349.7" y="550.2" type="line"/>
      <point x="319.3" y="398.6"/>
      <point x="283.0" y="298.6"/>
      <point x="244.9" y="177.1" type="curve"/>
      <point x="266.3" y="550.0" type="line"/>
      <point x="37.3" y="549.9" type="line"/>
      <point x="58.30000000000001" y="0.0" type="line"/>
      <point x="352.3" y="0.0" type="line"/>
      <point x="386.6" y="82.0"/>
      <point x="431.5" y="210.6"/>
      <point x="447.6" y="279.3" type="curve"/>
      <point x="442.20000000000005" y="0.0" type="line"/>
    </contour>
  </outline>
</glyph>
<glyph name="x" format="2">
  <advance width="681.3"/>
  <unicode hex="0078"/>
  <outline>
    <contour>
      <point x="452.8" y="550.0" type="line"/>
      <point x="437.0" y="470.5"/>
      <point x="413.4" y="425.6"/>
      <point x="361.3" y="360.1" type="curve"/>
      <point x="337.2" y="550.1" type="line"/>
      <point x="72.7" y="550.4" type="line"/>
      <point x="153.9" y="278.3" type="line"/>
      <point x="78.6" y="190.3"/>
      <point x="12.999999999999998" y="103.8"/>
      <point x="-22.5" y="0.0" type="curve"/>
      <point x="245.5" y="0.0" type="line"/>
      <point x="272.1" y="89.5"/>
      <point x="308.8" y="148.6"/>
      <point x="337.5" y="194.5" type="curve"/>
      <point x="365.8" y="-0.40000000000000036" type="line"/>
      <point x="636.0" y="-0.40000000000000013" type="line"/>
      <point x="545.1" y="276.5" type="line"/>
      <point x="624.3" y="364.8"/>
      <point x="672.8" y="444.9"/>
      <point x="714.1" y="550.0" type="curve"/>
    </contour>
  </outline>
</glyph>
<glyph name="y" format="2">
  <advance width="663.5"/>
  <unicode hex="0079"/>
  <anchor x="555.5" y="0.0" name="bottom"/>
  <anchor x="366.5" y="550.0" name="top"/>
  <outline>
    <contour>
      <point x="465.5" y="548.0" type="line"/>
      <point x="454.0" y="445.5"/>
      <point x="392.0" y="305.5"/>
      <point x="311.0" y="166.0" type="curve"/>
      <point x="259.5" y="550.0" type="line"/>
      <point x="29.5" y="549.0" type="line"/>
      <point x="129.0" y="-2.000000000000001" type="line"/>
      <point x="213.49999999999997" y="-2.000000000000001" type="line"/>
      <point x="167.5" y="-67.0"/>
      <point x="110.5" y="-133.0"/>
      <point x="44.00000000000001" y="-209.0" type="curve"/>
      <point x="280.0" y="-210.0" type="line"/>
      <point x="476.0" y="54.0"/>
      <point x="675.5" y="360.5"/>
      <point x="693.5" y="549.0" type="curve"/>
    </contour>
  </outline>
</glyph>
<glyph name="z" format="2">
  <advance width="657.2"/>
  <unicode hex="007A"/>
  <anchor x="292.6" y="0.0" name="bottom"/>
  <anchor x="333.7" y="275.0" name="center"/>
  <anchor x="377.6" y="550.0" name="top"/>
  <outline>
    <contour>
      <point x="-2.0000000000000036" y="0.0" type="line"/>
      <point x="582.1" y="0.0" type="line"/>
      <point x="610.3" y="173.0" type="line"/>
      <point x="353.29999999999995" y="173.0" type="line"/>
      <point x="624.4" y="391.7" type="line"/>
      <point x="652.2" y="550.0" type="line"/>
      <point x="101.3" y="550.0" type="line"/>
      <point x="72.1" y="376.4" type="line"/>
      <point x="302.29999999999995" y="376.4" type="line"/>
      <point x="21.4" y="150.5" type="line"/>
    </contour>
  </outline>
</glyph>
<glyph name="braceleft" format="2">
  <advance width="421.7"/>
  <unicode hex="007B"/>
  <outline>
    <contour>
      <point x="31.299999999999997" y="-73.0" type="curve" smooth="yes"/>
      <point x="31.299999999999997" y="-172.5"/>
      <point x="104.4" y="-210.0"/>
      <point x="194.5" y="-210.0" type="curve" smooth="yes"/>
      <point x="314.59999999999997" y="-210.0" type="line"/>
      <point x="339.9" y="-55.0" type="line"/>
      <point x="286.4" y="-55.0" type="line" smooth="yes"/>
      <point x="259.2" y="-55.0"/>
      <point x="246.6" y="-42.6"/>
      <point x="246.6" y="-18.8" type="curve" smooth="yes"/>
      <point x="246.6" y="46.0"/>
      <point x="306.1" y="94.3"/>
      <point x="306.1" y="166.20000000000002" type="curve" smooth="yes"/>
      <point x="306.1" y="203.1"/>
      <point x="291.6" y="236.3"/>
      <point x="241.1" y="265.0" type="curve"/>
      <point x="308.70000000000005" y="301.59999999999997"/>
      <point x="346.9" y="348.5"/>
      <point x="346.9" y="417.3" type="curve" smooth="yes"/>
      <point x="346.9" y="452.1"/>
      <point x="332.7" y="471.90000000000003"/>
      <point x="332.7" y="517.2" type="curve" smooth="yes"/>
      <point x="332.7" y="553.5"/>
      <point x="352.7" y="585.0"/>
      <point x="389.79999999999995" y="585.0" type="curve" smooth="yes"/>
      <point x="442.7" y="585.0" type="line"/>
      <point x="467.4" y="740.0" type="line"/>
      <point x="347.3" y="740.0" type="line" smooth="yes"/>
      <point x="210.8" y="740.0"/>
      <point x="126.89999999999998" y="649.1999999999999"/>
      <point x="126.89999999999998" y="516.3" type="curve" smooth="yes"/>
      <point x="126.89999999999998" y="468.6"/>
      <point x="141.3" y="436.90000000000003"/>
      <point x="141.3" y="405.3" type="curve" smooth="yes"/>
      <point x="141.3" y="367.7"/>
      <point x="124.00000000000001" y="343.0"/>
      <point x="90.9" y="343.0" type="curve" smooth="yes"/>
      <point x="75.5" y="343.0" type="line"/>
      <point x="50.5" y="186.70000000000002" type="line"/>
      <point x="65.89999999999999" y="186.70000000000002" type="line" smooth="yes"/>
      <point x="92.8" y="186.70000000000002"/>
      <point x="102.0" y="176.6"/>
      <point x="102.0" y="156.1" type="curve" smooth="yes"/>
      <point x="102.0" y="101.60000000000001"/>
      <point x="31.299999999999997" y="24.6"/>
    </contour>
  </outline>
</glyph>
<glyph name="bar" format="2">
  <advance width="289.4"/>
  <unicode hex="007C"/>
  <outline>
    <contour>
      <point x="322.6" y="790.3" type="line"/>
      <point x="132.6" y="790.3" type="line"/>
      <point x="-28.500000000000004" y="-210.0" type="line"/>
      <point x="161.1" y="-210.0" type="line"/>
    </contour>
  </outline>
</glyph>
<glyph name="braceright" format="2">
  <advance width="421.7"/>
  <unicode hex="007D"/>
  <outline>
    <contour>
      <point x="387.4" y="603.0" type="curve" smooth="yes"/>
      <point x="387.4" y="702.8"/>
      <point x="314.0" y="740.3"/>
      <point x="223.89999999999998" y="740.3" type="curve" smooth="yes"/>
      <point x="103.8" y="740.3" type="line"/>
      <point x="78.5" y="585.3" type="line"/>
      <point x="129.0" y="585.3" type="line" smooth="yes"/>
      <point x="156.5" y="585.3"/>
      <point x="169.4" y="572.6"/>
      <point x="169.4" y="548.8" type="curve" smooth="yes"/>
      <point x="169.4" y="483.4"/>
      <point x="109.89999999999999" y="441.09999999999997"/>
      <point x="109.89999999999999" y="362.9" type="curve" smooth="yes"/>
      <point x="109.89999999999999" y="326.90000000000003"/>
      <point x="124.10000000000002" y="293.7"/>
      <point x="175.20000000000002" y="265.3" type="curve"/>
      <point x="107.6" y="228.4"/>
      <point x="69.1" y="182.1"/>
      <point x="69.1" y="113.0" type="curve" smooth="yes"/>
      <point x="69.1" y="78.2"/>
      <point x="83.3" y="58.4"/>
      <point x="83.3" y="13.700000000000001" type="curve" smooth="yes"/>
      <point x="83.3" y="-22.6"/>
      <point x="63.599999999999994" y="-54.7"/>
      <point x="26.5" y="-54.7" type="curve" smooth="yes"/>
      <point x="-24.0" y="-54.7" type="line"/>
      <point x="-48.7" y="-210.0" type="line"/>
      <point x="71.1" y="-210.0" type="line" smooth="yes"/>
      <point x="207.6" y="-210.0"/>
      <point x="291.5" y="-115.30000000000001"/>
      <point x="291.5" y="8.0" type="curve" smooth="yes"/>
      <point x="291.5" y="63.8"/>
      <point x="277.1" y="96.7"/>
      <point x="277.1" y="126.2" type="curve" smooth="yes"/>
      <point x="277.1" y="163.2"/>
      <point x="295.0" y="187.3"/>
      <point x="327.5" y="187.3" type="curve" smooth="yes"/>
      <point x="342.9" y="187.3" type="line"/>
      <point x="367.9" y="343.29999999999995" type="line"/>
      <point x="352.5" y="343.29999999999995" type="line" smooth="yes"/>
      <point x="325.59999999999997" y="343.29999999999995"/>
      <point x="316.40000000000003" y="353.40000000000003"/>
      <point x="316.40000000000003" y="373.90000000000003" type="curve" smooth="yes"/>
      <point x="316.40000000000003" y="428.7"/>
      <point x="387.4" y="501.2"/>
    </contour>
  </outline>
</glyph>
<glyph name="asciitilde" format="2">
  <advance width="638.9"/>
  <unicode hex="007E"/>
  <outline>
    <contour>
      <point x="573.1999999999999" y="222.3" type="curve"/>
      <point x="601.4" y="413.3" type="line"/>
      <point x="568.1" y="385.8"/>
      <point x="528.7" y="375.70000000000005"/>
      <point x="482.0" y="375.70000000000005" type="curve" smooth="yes"/>
      <point x="353.7" y="375.70000000000005"/>
      <point x="281.9" y="452.3"/>
      <point x="196.4" y="452.3" type="curve" smooth="yes"/>
      <point x="132.8" y="452.3"/>
      <point x="93.5" y="424.5"/>
      <point x="82.9" y="417.5" type="curve"/>
      <point x="51.2" y="226.5" type="line"/>
      <point x="82.1" y="244.7"/>
      <point x="111.60000000000001" y="258.5"/>
      <point x="164.7" y="258.5" type="curve" smooth="yes"/>
      <point x="279.6" y="258.5"/>
      <point x="347.2" y="181.9"/>
      <point x="462.9" y="181.9" type="curve" smooth="yes"/>
      <point x="497.0" y="181.9"/>
      <point x="544.8" y="197.60000000000002"/>
    </contour>
  </outline>
</glyph>
<glyph name="cent" format="2">
  <advance width="861.0"/>
  <unicode hex="00A2"/>
  <outline>
    <contour>
      <point x="293.1" y="-104.6" type="line"/>
      <point x="467.50000000000006" y="-104.6" type="line"/>
      <point x="483.50000000000006" y="-6.8999999999999995" type="line"/>
      <point x="549.8999999999999" y="-4.299999999999999"/>
      <point x="613.6" y="2.400000000000002"/>
      <point x="676.0" y="19.499999999999996" type="curve"/>
      <point x="676.0" y="198.29999999999998" type="line"/>
      <point x="591.0999999999999" y="184.5"/>
      <point x="552.4999999999999" y="182.0"/>
      <point x="511.29999999999995" y="182.0" type="curve" smooth="yes"/>
      <point x="433.5" y="182.0"/>
      <point x="396.0" y="205.9"/>
      <point x="396.0" y="246.5" type="curve" smooth="yes"/>
      <point x="396.0" y="325.0"/>
      <point x="461.09999999999997" y="364.2"/>
      <point x="527.5999999999999" y="364.2" type="curve" smooth="yes"/>
      <point x="576.8999999999999" y="364.2"/>
      <point x="608.7" y="359.40000000000003"/>
      <point x="687.9" y="342.5" type="curve"/>
      <point x="748.0999999999999" y="531.8000000000001" type="line"/>
      <point x="690.2" y="545.9"/>
      <point x="645.4999999999999" y="556.1999999999999"/>
      <point x="574.3" y="558.5" type="curve"/>
      <point x="591.0" y="654.7" type="line"/>
      <point x="416.59999999999997" y="654.7" type="line"/>
      <point x="397.2" y="541.0" type="line"/>
      <point x="238.7" y="492.0"/>
      <point x="139.8" y="356.2"/>
      <point x="139.8" y="188.7" type="curve" smooth="yes"/>
      <point x="139.8" y="85.69999999999999"/>
      <point x="195.40000000000003" y="25.1"/>
      <point x="310.8" y="2.1000000000000005" type="curve"/>
    </contour>
  </outline>
</glyph>
<glyph name="sterling" format="2">
  <advance width="861.0"/>
  <unicode hex="00A3"/>
  <outline>
    <contour>
      <point x="83.8" y="0.0" type="line"/>
      <point x="690.3" y="0.0" type="line"/>
      <point x="718.8" y="181.0" type="line"/>
      <point x="396.8" y="181.0" type="line"/>
      <point x="429.1" y="205.6"/>
      <point x="456.3" y="241.20000000000002"/>
      <point x="456.3" y="292.5" type="curve" smooth="yes"/>
      <point x="456.3" y="328.2"/>
      <point x="427.4" y="393.0"/>
      <point x="427.4" y="441.1" type="curve" smooth="yes"/>
      <point x="427.4" y="491.2"/>
      <point x="472.29999999999995" y="517.0"/>
      <point x="552.6999999999999" y="517.0" type="curve" smooth="yes"/>
      <point x="623.5" y="517.0"/>
      <point x="672.6" y="509.7"/>
      <point x="733.1" y="488.7" type="curve"/>
      <point x="793.3" y="667.2" type="line"/>
      <point x="715.6" y="695.5"/>
      <point x="659.7" y="710.0"/>
      <point x="550.5999999999999" y="710.0" type="curve" smooth="yes"/>
      <point x="394.4" y="710.0"/>
      <point x="191.7" y="642.9000000000001"/>
      <point x="191.7" y="479.90000000000003" type="curve" smooth="yes"/>
      <point x="191.7" y="405.1"/>
      <point x="227.5" y="340.9"/>
      <point x="227.5" y="287.2" type="curve" smooth="yes"/>
      <point x="227.5" y="228.7"/>
      <point x="185.0" y="187.29999999999998"/>
      <point x="106.69999999999999" y="146.0" type="curve"/>
    </contour>
    <contour>
      <point x="123.1" y="301.6" type="line"/>
      <point x="622.9" y="301.59999999999997" type="line"/>
      <point x="639.7" y="406.6" type="line"/>
      <point x="139.2" y="406.6" type="line"/>
    </contour>
  </outline>
</glyph>
<glyph name="currency" format="2">
  <advance width="521.3"/>
  <unicode hex="00A4"/>
  <outline>
    <contour>
      <point x="129.1" y="84.7" type="line"/>
      <point x="205.5" y="155.6" type="line"/>
      <point x="215.6" y="153.6"/>
      <point x="227.39999999999998" y="152.9"/>
      <point x="239.5" y="152.9" type="curve" smooth="yes"/>
      <point x="252.4" y="152.9"/>
      <point x="264.6" y="153.6"/>
      <point x="276.8" y="156.0" type="curve"/>
      <point x="331.9" y="84.7" type="line"/>
      <point x="454.8" y="199.8" type="line"/>
      <point x="411.5" y="256.6" type="line"/>
      <point x="423.1" y="280.4"/>
      <point x="429.9" y="306.3"/>
      <point x="430.5" y="335.0" type="curve" smooth="yes"/>
      <point x="431.1" y="344.9"/>
      <point x="430.4" y="355.09999999999997"/>
      <point x="429.4" y="364.6" type="curve"/>
      <point x="489.90000000000003" y="421.4" type="line"/>
      <point x="404.8" y="536.5" type="line"/>
      <point x="327.6" y="466.1" type="line"/>
      <point x="316.09999999999997" y="468.5"/>
      <point x="303.6" y="469.5"/>
      <point x="289.7" y="469.5" type="curve" smooth="yes"/>
      <point x="277.29999999999995" y="469.5"/>
      <point x="265.2" y="468.2"/>
      <point x="253.8" y="466.5" type="curve"/>
      <point x="201.3" y="536.5" type="line"/>
      <point x="77.8" y="421.4" type="line"/>
      <point x="118.5" y="366.6" type="line"/>
      <point x="106.1" y="343.7"/>
      <point x="99.60000000000001" y="317.3"/>
      <point x="99.0" y="289.5" type="curve" smooth="yes"/>
      <point x="98.4" y="277.5"/>
      <point x="98.80000000000001" y="265.2"/>
      <point x="100.5" y="254.6" type="curve"/>
      <point x="42.0" y="199.8" type="line"/>
    </contour>
    <contour>
      <point x="259.2" y="278.4" type="curve" smooth="yes"/>
      <point x="242.89999999999998" y="278.4"/>
      <point x="232.79999999999998" y="289.1"/>
      <point x="233.7" y="306.0" type="curve" smooth="yes"/>
      <point x="234.6" y="327.2"/>
      <point x="250.5" y="343.7"/>
      <point x="269.59999999999997" y="343.7" type="curve" smooth="yes"/>
      <point x="286.6" y="343.7"/>
      <point x="296.4" y="330.7"/>
      <point x="295.5" y="315.09999999999997" type="curve" smooth="yes"/>
      <point x="294.6" y="291.2"/>
      <point x="276.9" y="278.4"/>
    </contour>
  </outline>
</glyph>
<glyph name="yen" format="2">
  <advance width="891.9999999999999"/>
  <unicode hex="00A5"/>
  <outline>
    <contour>
      <point x="127.5" y="296.5" type="line"/>
      <point x="329.49999999999994" y="296.5" type="line"/>
      <point x="322.99999999999994" y="253.5" type="line"/>
      <point x="120.5" y="253.5" type="line"/>
      <point x="106.5" y="162.5" type="line"/>
      <point x="308.99999999999994" y="162.5" type="line"/>
      <point x="282.49999999999994" y="0.0" type="line"/>
      <point x="519.0" y="0.0" type="line"/>
      <point x="546.0" y="162.5" type="line"/>
      <point x="753.0" y="162.5" type="line"/>
      <point x="767.0" y="253.5" type="line"/>
      <point x="559.5" y="253.5" type="line"/>
      <point x="566.0" y="296.5" type="line"/>
      <point x="774.0" y="296.5" type="line"/>
      <point x="788.0" y="388.0" type="line"/>
      <point x="580.0" y="388.0" type="line"/>
      <point x="891.0" y="698.5" type="line"/>
      <point x="647.0" y="700.0" type="line"/>
      <point x="480.5" y="508.5" type="line"/>
      <point x="371.5" y="701.0" type="line"/>
      <point x="130.0" y="698.5" type="line"/>
      <point x="343.99999999999994" y="388.0" type="line"/>
      <point x="142.0" y="388.0" type="line"/>
    </contour>
  </outline>
</glyph>
<glyph name="brokenbar" format="2">
  <advance width="290.9"/>
  <unicode hex="00A6"/>
  <outline>
    <contour>
      <point x="259.1" y="391.0" type="line"/>
      <point x="324.40000000000003" y="790.3" type="line"/>
      <point x="134.4" y="790.3" type="line"/>
      <point x="69.1" y="391.0" type="line"/>
    </contour>
    <contour>
      <point x="36.5" y="190.3" type="line"/>
      <point x="-28.500000000000007" y="-210.0" type="line"/>
      <point x="160.79999999999998" y="-210.0" type="line"/>
      <point x="226.1" y="190.3" type="line"/>
    </contour>
  </outline>
</glyph>
<glyph name="section" format="2">
  <advance width="622.9"/>
  <unicode hex="00A7"/>
  <outline>
    <contour>
      <point x="32.3" y="10.200000000000003" type="curve"/>
      <point x="-44.3" y="-191.3" type="line"/>
      <point x="20.599999999999994" y="-207.2"/>
      <point x="96.79999999999998" y="-220.0"/>
      <point x="157.0" y="-220.0" type="curve" smooth="yes"/>
      <point x="397.5" y="-220.0"/>
      <point x="576.8" y="-57.6"/>
      <point x="576.8" y="169.9" type="curve" smooth="yes"/>
      <point x="576.8" y="325.8"/>
      <point x="467.6" y="400.5"/>
      <point x="467.6" y="472.6" type="curve" smooth="yes"/>
      <point x="467.6" y="515.9"/>
      <point x="495.6" y="531.7"/>
      <point x="526.1" y="531.7" type="curve" smooth="yes"/>
      <point x="537.7" y="531.7"/>
      <point x="548.9" y="528.3"/>
      <point x="563.2" y="522.5" type="curve"/>
      <point x="627.0" y="732.9" type="line"/>
      <point x="579.2" y="743.7"/>
      <point x="517.1" y="749.8"/>
      <point x="466.3" y="749.8" type="curve" smooth="yes"/>
      <point x="212.3" y="749.8"/>
      <point x="47.7" y="590.9"/>
      <point x="47.7" y="390.0" type="curve" smooth="yes"/>
      <point x="47.7" y="213.0"/>
      <point x="162.2" y="126.1"/>
      <point x="162.2" y="38.9" type="curve" smooth="yes"/>
      <point x="162.2" y="14.7"/>
      <point x="151.0" y="-7.100000000000002"/>
      <point x="118.1" y="-7.100000000000002" type="curve" smooth="yes"/>
      <point x="94.9" y="-7.100000000000002"/>
      <point x="66.4" y="-2.0000000000000018"/>
    </contour>
    <contour>
      <point x="378.6" y="613.1" type="curve"/>
      <point x="307.2" y="572.8"/>
      <point x="286.7" y="508.9"/>
      <point x="286.7" y="445.4" type="curve" smooth="yes"/>
      <point x="286.7" y="342.8"/>
      <point x="384.1" y="215.0"/>
      <point x="384.1" y="115.9" type="curve" smooth="yes"/>
      <point x="384.1" y="10.70000000000001"/>
      <point x="321.6" y="-97.2"/>
      <point x="199.89999999999998" y="-103.3" type="curve"/>
      <point x="292.7" y="-77.5"/>
      <point x="344.4" y="2.6"/>
      <point x="344.4" y="84.2" type="curve" smooth="yes"/>
      <point x="344.4" y="187.6"/>
      <point x="246.6" y="311.5"/>
      <point x="246.6" y="419.0" type="curve" smooth="yes"/>
      <point x="246.6" y="507.2"/>
      <point x="283.2" y="590.5"/>
    </contour>
  </outline>
</glyph>
<glyph name="copyright" format="2">
  <advance width="855.9000000000001"/>
  <unicode hex="00A9"/>
  <outline>
    <contour>
      <point x="414.3" y="-10.2" type="curve" smooth="yes"/>
      <point x="676.3" y="-12.3"/>
      <point x="818.7" y="128.3"/>
      <point x="818.7" y="363.5" type="curve" smooth="yes"/>
      <point x="818.7" y="565.2"/>
      <point x="703.0" y="707.2"/>
      <point x="467.0" y="709.3" type="curve" smooth="yes"/>
      <point x="204.7" y="711.4"/>
      <point x="60.900000000000006" y="571.4"/>
      <point x="60.900000000000006" y="335.8" type="curve" smooth="yes"/>
      <point x="60.900000000000006" y="134.3"/>
      <point x="177.0" y="-8.1"/>
    </contour>
    <contour>
      <point x="424.9" y="156.8" type="curve" smooth="yes"/>
      <point x="486.3" y="156.8"/>
      <point x="543.8" y="170.0"/>
      <point x="585.2" y="186.7" type="curve"/>
      <point x="576.6" y="282.7" type="line"/>
      <point x="535.5" y="271.4"/>
      <point x="492.6" y="264.2"/>
      <point x="459.20000000000005" y="264.2" type="curve" smooth="yes"/>
      <point x="404.20000000000005" y="264.2"/>
      <point x="378.2" y="287.6"/>
      <point x="378.2" y="333.4" type="curve" smooth="yes"/>
      <point x="378.2" y="396.0"/>
      <point x="410.20000000000005" y="434.2"/>
      <point x="479.1" y="434.2" type="curve" smooth="yes"/>
      <point x="516.1" y="434.2"/>
      <point x="548.7" y="430.9"/>
      <point x="586.8" y="423.0" type="curve"/>
      <point x="614.3" y="529.0" type="line"/>
      <point x="578.3" y="539.6"/>
      <point x="533.7" y="546.2"/>
      <point x="481.6" y="546.2" type="curve" smooth="yes"/>
      <point x="344.1" y="546.2"/>
      <point x="244.7" y="471.3"/>
      <point x="244.7" y="325.8" type="curve" smooth="yes"/>
      <point x="244.7" y="215.9"/>
      <point x="313.70000000000005" y="156.8"/>
    </contour>
    <contour>
      <point x="425.3" y="68.0" type="curve" smooth="yes"/>
      <point x="230.9" y="68.0"/>
      <point x="150.2" y="172.6"/>
      <point x="150.2" y="342.4" type="curve" smooth="yes"/>
      <point x="150.2" y="526.2"/>
      <point x="245.6" y="631.1"/>
      <point x="456.1" y="631.1" type="curve" smooth="yes"/>
      <point x="642.5" y="631.1"/>
      <point x="729.4000000000001" y="526.5"/>
      <point x="729.4000000000001" y="357.3" type="curve" smooth="yes"/>
      <point x="729.4000000000001" y="173.9"/>
      <point x="635.4000000000001" y="68.0"/>
    </contour>
  </outline>
</glyph>
<glyph name="ordfeminine" format="2">
  <advance width="501.2"/>
  <unicode hex="00AA"/>
  <outline>
    <contour>
      <point x="22.9" y="191.3" type="line"/>
      <point x="448.29999999999995" y="191.3" type="line"/>
      <point x="466.9" y="311.6" type="line"/>
      <point x="41.5" y="311.6" type="line"/>
    </contour>
    <component base="a.superior" xOffset="8.0"/>
  </outline>
</glyph>
<glyph name="logicalnot" format="2">
  <advance width="634.8"/>
  <unicode hex="00AC"/>
  <outline>
    <contour>
      <point x="56.2" y="285.8" type="line"/>
      <point x="400.1" y="285.8" type="line"/>
      <point x="381.0" y="160.1" type="line"/>
      <point x="561.7" y="160.1" type="line"/>
      <point x="612.0999999999999" y="474.3" type="line"/>
      <point x="87.5" y="474.3" type="line"/>
    </contour>
  </outline>
</glyph>
<glyph name="registered" format="2">
  <advance width="763.7"/>
  <unicode hex="00AE"/>
  <outline>
    <contour>
      <point x="385.4" y="208.9" type="curve" smooth="yes"/>
      <point x="622.4000000000001" y="208.9"/>
      <point x="761.7" y="356.2"/>
      <point x="761.7" y="585.6" type="curve" smooth="yes"/>
      <point x="761.7" y="768.8"/>
      <point x="655.1" y="893.0"/>
      <point x="465.20000000000005" y="893.0" type="curve" smooth="yes"/>
      <point x="228.2" y="893.0"/>
      <point x="89.9" y="745.2"/>
      <point x="89.9" y="516.3" type="curve" smooth="yes"/>
      <point x="89.9" y="333.1"/>
      <point x="195.5" y="208.9"/>
    </contour>
    <contour>
      <point x="394.3" y="284.8" type="curve" smooth="yes"/>
      <point x="246.9" y="284.8"/>
      <point x="170.1" y="382.8"/>
      <point x="170.1" y="516.0" type="curve" smooth="yes"/>
      <point x="170.1" y="713.4"/>
      <point x="276.2" y="816.6"/>
      <point x="456.3" y="816.6" type="curve" smooth="yes"/>
      <point x="603.7" y="816.6"/>
      <point x="681.5" y="719.1"/>
      <point x="681.5" y="585.4" type="curve" smooth="yes"/>
      <point x="681.5" y="388.0"/>
      <point x="574.4000000000001" y="284.8"/>
    </contour>
    <contour>
      <point x="243.1" y="386.6" type="line"/>
      <point x="356.9" y="386.6" type="line"/>
      <point x="372.5" y="484.2" type="line"/>
      <point x="383.1" y="484.0"/>
      <point x="393.3" y="483.8"/>
      <point x="404.3" y="483.8" type="curve"/>
      <point x="488.3" y="510.8" type="line"/>
      <point x="554.3" y="509.7"/>
      <point x="613.3" y="542.5"/>
      <point x="613.3" y="632.9" type="curve" smooth="yes"/>
      <point x="613.3" y="693.9"/>
      <point x="569.5" y="724.5"/>
      <point x="454.3" y="724.5" type="curve" smooth="yes"/>
      <point x="424.7" y="724.5"/>
      <point x="371.1" y="723.0"/>
      <point x="296.3" y="718.1" type="curve"/>
    </contour>
    <contour>
      <point x="416.1" y="560.1" type="curve" smooth="yes"/>
      <point x="409.20000000000005" y="560.1"/>
      <point x="404.1" y="560.8"/>
      <point x="385.1" y="561.1" type="curve"/>
      <point x="397.0" y="636.4" type="line"/>
      <point x="424.9" y="636.8"/>
      <point x="429.9" y="637.3"/>
      <point x="449.6" y="637.3" type="curve" smooth="yes"/>
      <point x="485.5" y="637.3"/>
      <point x="496.20000000000005" y="630.7"/>
      <point x="496.20000000000005" y="615.4" type="curve" smooth="yes"/>
      <point x="496.20000000000005" y="580.2"/>
      <point x="483.4" y="560.1"/>
    </contour>
    <contour>
      <point x="561.1" y="381.4" type="curve" smooth="yes"/>
      <point x="564.8" y="381.4"/>
      <point x="572.6" y="382.0"/>
      <point x="576.9" y="383.4" type="curve"/>
      <point x="592.0" y="489.3" type="line"/>
      <point x="589.8" y="489.4"/>
      <point x="587.1" y="489.4"/>
      <point x="584.4" y="489.4" type="curve" smooth="yes"/>
      <point x="570.0" y="489.4"/>
      <point x="533.1" y="504.5"/>
      <point x="509.6" y="528.4" type="curve"/>
      <point x="383.0" y="496.3" type="line"/>
      <point x="441.6" y="423.7"/>
      <point x="494.5" y="381.4"/>
    </contour>
  </outline>
</glyph>
<glyph name="degree" format="2">
  <advance width="423.6"/>
  <unicode hex="00B0"/>
  <outline>
    <contour>
      <point x="226.4" y="328.6" type="curve" smooth="yes"/>
      <point x="348.79999999999995" y="328.6"/>
      <point x="427.9" y="434.5"/>
      <point x="427.9" y="558.9" type="curve" smooth="yes"/>
      <point x="427.9" y="636.6999999999999"/>
      <point x="388.3" y="708.6"/>
      <point x="274.5" y="708.6" type="curve" smooth="yes"/>
      <point x="152.39999999999998" y="708.6"/>
      <point x="72.7" y="603.3"/>
      <point x="72.7" y="478.9" type="curve" smooth="yes"/>
      <point x="72.7" y="399.9"/>
      <point x="113.8" y="328.6"/>
    </contour>
    <contour>
      <point x="243.3" y="471.4" type="curve" smooth="yes"/>
      <point x="223.2" y="471.4"/>
      <point x="212.3" y="484.90000000000003"/>
      <point x="212.3" y="505.4" type="curve" smooth="yes"/>
      <point x="212.3" y="537.5"/>
      <point x="229.4" y="564.6"/>
      <point x="257.0" y="564.6" type="curve" smooth="yes"/>
      <point x="277.4" y="564.6"/>
      <point x="288.3" y="551.1"/>
      <point x="288.3" y="530.9" type="curve" smooth="yes"/>
      <point x="288.3" y="499.1"/>
      <point x="270.9" y="471.4"/>
    </contour>
  </outline>
</glyph>
<glyph name="plusminus" format="2">
  <advance width="636.1999999999999"/>
  <unicode hex="00B1"/>
  <outline>
    <contour>
      <point x="535.5" y="-0.7" type="line"/>
      <point x="566.8" y="190.8" type="line"/>
      <point x="405.9" y="190.8" type="line"/>
      <point x="421.7" y="288.6" type="line"/>
      <point x="582.6" y="288.6" type="line"/>
      <point x="613.9" y="480.1" type="line"/>
      <point x="453.0" y="480.1" type="line"/>
      <point x="471.2" y="596.1" type="line"/>
      <point x="267.7" y="596.1" type="line"/>
      <point x="248.1" y="480.1" type="line"/>
      <point x="89.3" y="480.1" type="line"/>
      <point x="58.0" y="288.6" type="line"/>
      <point x="218.2" y="288.6" type="line"/>
      <point x="201.0" y="190.8" type="line"/>
      <point x="42.199999999999996" y="190.8" type="line"/>
      <point x="10.899999999999999" y="-0.7" type="line"/>
    </contour>
  </outline>
</glyph>
<glyph name="uni00B2" format="2">
  <advance width="497.0"/>
  <unicode hex="00B2"/>
  <outline>
    <contour>
      <point x="50.5" y="369.9" type="line"/>
      <point x="479.3" y="369.9" type="line"/>
      <point x="498.4" y="474.9" type="line"/>
      <point x="334.79999999999995" y="474.9" type="line"/>
      <point x="415.4" y="516.6"/>
      <point x="484.8" y="574.8"/>
      <point x="484.8" y="657.1" type="curve" smooth="yes"/>
      <point x="484.8" y="740.4"/>
      <point x="394.2" y="773.4"/>
      <point x="306.9" y="773.4" type="curve" smooth="yes"/>
      <point x="242.5" y="773.4"/>
      <point x="150.7" y="753.7"/>
      <point x="98.0" y="726.6" type="curve"/>
      <point x="128.3" y="614.8" type="line"/>
      <point x="171.3" y="635.4"/>
      <point x="209.3" y="645.9"/>
      <point x="241.5" y="645.9" type="curve" smooth="yes"/>
      <point x="269.9" y="645.9"/>
      <point x="291.7" y="633.8"/>
      <point x="291.7" y="611.9" type="curve" smooth="yes"/>
      <point x="291.5" y="557.0"/>
      <point x="214.29999999999998" y="503.0"/>
      <point x="63.8" y="455.1" type="curve"/>
    </contour>
  </outline>
</glyph>
<glyph name="uni00B3" format="2">
  <advance width="507.0"/>
  <unicode hex="00B3"/>
  <outline>
    <contour>
      <point x="46.0" y="392.5" type="line"/>
      <point x="101.0" y="370.5"/>
      <point x="177.0" y="363.0"/>
      <point x="248.0" y="363.0" type="curve" smooth="yes"/>
      <point x="373.0" y="363.0"/>
      <point x="509.5" y="392.5"/>
      <point x="509.5" y="500.5" type="curve" smooth="yes"/>
      <point x="509.5" y="536.0"/>
      <point x="486.0" y="563.5"/>
      <point x="443.0" y="577.0" type="curve"/>
      <point x="493.0" y="592.5"/>
      <point x="530.5" y="624.0"/>
      <point x="530.5" y="675.5" type="curve" smooth="yes"/>
      <point x="530.5" y="735.5"/>
      <point x="451.0" y="774.0"/>
      <point x="311.5" y="774.0" type="curve" smooth="yes"/>
      <point x="236.0" y="774.0"/>
      <point x="152.0" y="761.5"/>
      <point x="114.5" y="746.5" type="curve"/>
      <point x="119.5" y="641.5" type="line"/>
      <point x="167.0" y="651.5"/>
      <point x="226.5" y="656.5"/>
      <point x="273.0" y="656.5" type="curve" smooth="yes"/>
      <point x="328.0" y="656.5"/>
      <point x="362.0" y="650.5"/>
      <point x="362.0" y="638.5" type="curve" smooth="yes"/>
      <point x="362.0" y="622.0"/>
      <point x="337.0" y="615.0"/>
      <point x="266.0" y="615.0" type="curve" smooth="yes"/>
      <point x="181.0" y="615.0" type="line"/>
      <point x="164.0" y="521.0" type="line"/>
      <point x="235.5" y="521.0" type="line" smooth="yes"/>
      <point x="327.5" y="521.0"/>
      <point x="345.5" y="510.5"/>
      <point x="345.5" y="498.5" type="curve" smooth="yes"/>
      <point x="345.5" y="482.0"/>
      <point x="307.0" y="474.0"/>
      <point x="243.0" y="474.0" type="curve" smooth="yes"/>
      <point x="187.5" y="474.0"/>
      <point x="128.5" y="483.5"/>
      <point x="93.0" y="494.0" type="curve"/>
    </contour>
  </outline>
</glyph>
<glyph name="uni00B5" format="2">
  <advance width="720.6"/>
  <unicode hex="00B5"/>
  <outline>
    <contour>
      <point x="-30.0" y="-210.0" type="line"/>
      <point x="216.1" y="-210.0" type="line"/>
      <point x="248.8" y="-8.600000000000001" type="line"/>
      <point x="256.09999999999997" y="-9.3"/>
      <point x="263.8" y="-10.0"/>
      <point x="271.8" y="-10.0" type="curve" smooth="yes"/>
      <point x="313.29999999999995" y="-10.0"/>
      <point x="367.5" y="12.6"/>
      <point x="412.29999999999995" y="57.8" type="curve"/>
      <point x="433.1" y="22.1"/>
      <point x="481.4" y="-10.0"/>
      <point x="544.3" y="-10.0" type="curve" smooth="yes"/>
      <point x="591.9" y="-10.0"/>
      <point x="643.5" y="4.199999999999999"/>
      <point x="680.4" y="30.4" type="curve"/>
      <point x="685.6" y="181.1" type="line"/>
      <point x="675.5999999999999" y="178.0"/>
      <point x="670.1999999999999" y="178.0"/>
      <point x="667.5" y="178.0" type="curve" smooth="yes"/>
      <point x="658.3999999999999" y="178.0"/>
      <point x="650.5" y="183.70000000000002"/>
      <point x="650.5" y="198.9" type="curve" smooth="yes"/>
      <point x="650.5" y="203.20000000000002"/>
      <point x="651.5" y="211.2"/>
      <point x="706.9999999999999" y="550.0" type="curve"/>
      <point x="459.79999999999995" y="550.0" type="line"/>
      <point x="404.20000000000005" y="197.8" type="line"/>
      <point x="384.2" y="187.9"/>
      <point x="350.40000000000003" y="178.2"/>
      <point x="326.6" y="178.2" type="curve" smooth="yes"/>
      <point x="299.0" y="178.2"/>
      <point x="283.1" y="188.7"/>
      <point x="283.7" y="218.3" type="curve" smooth="yes"/>
      <point x="290.6" y="272.7"/>
      <point x="300.2" y="330.6"/>
      <point x="338.09999999999997" y="550.0" type="curve"/>
      <point x="90.60000000000001" y="550.0" type="line"/>
    </contour>
  </outline>
</glyph>
<glyph name="paragraph" format="2">
  <advance width="749.8"/>
  <unicode hex="00B6"/>
  <outline>
    <contour>
      <point x="433.49999999999994" y="-210.0" type="line"/>
      <point x="615.5999999999999" y="-210.0" type="line"/>
      <point x="767.1999999999999" y="740.0" type="line"/>
      <point x="585.0999999999999" y="740.0" type="line"/>
    </contour>
    <contour>
      <point x="294.0" y="349.0" type="line"/>
      <point x="278.2" y="355.1"/>
      <point x="267.8" y="376.1"/>
      <point x="267.8" y="410.9" type="curve" smooth="yes"/>
      <point x="267.8" y="463.2"/>
      <point x="280.0" y="547.3000000000001"/>
      <point x="342.8" y="547.9" type="curve"/>
      <point x="222.39999999999998" y="-210.0" type="line"/>
      <point x="404.5" y="-210.0" type="line"/>
      <point x="556.1" y="740.0" type="line"/>
      <point x="426.19999999999993" y="740.0" type="line" smooth="yes"/>
      <point x="194.7" y="740.0"/>
      <point x="69.89999999999999" y="627.0999999999999"/>
      <point x="69.89999999999999" y="410.90000000000003" type="curve" smooth="yes"/>
      <point x="69.89999999999999" y="297.1"/>
      <point x="128.0" y="229.5"/>
      <point x="252.5" y="214.6" type="curve"/>
    </contour>
  </outline>
</glyph>
<glyph name="periodcentered" format="2">
  <advance width="325.8"/>
  <unicode hex="00B7"/>
  <outline>
    <contour>
      <point x="35.8" y="295.0" type="curve" smooth="yes"/>
      <point x="35.8" y="236.7"/>
      <point x="72.5" y="204.7"/>
      <point x="151.5" y="204.7" type="curve" smooth="yes"/>
      <point x="247.7" y="204.7"/>
      <point x="303.2" y="261.9"/>
      <point x="303.2" y="344.4" type="curve" smooth="yes"/>
      <point x="303.2" y="403.5"/>
      <point x="266.5" y="435.5"/>
      <point x="188.5" y="435.5" type="curve" smooth="yes"/>
      <point x="93.3" y="435.5"/>
      <point x="35.8" y="374.7"/>
    </contour>
  </outline>
</glyph>
<glyph name="uni00B9" format="2">
  <advance width="455.19999999999993"/>
  <unicode hex="00B9"/>
  <outline>
    <contour>
      <point x="63.8" y="370.0" type="line"/>
      <point x="443.6" y="370.0" type="line"/>
      <point x="462.7" y="477.8" type="line"/>
      <point x="367.79999999999995" y="477.8" type="line"/>
      <point x="415.1" y="765.2" type="line"/>
      <point x="317.2" y="765.2" type="line"/>
      <point x="97.10000000000001" y="693.0999999999999" type="line"/>
      <point x="112.5" y="571.3" type="line"/>
      <point x="209.5" y="602.4" type="line"/>
      <point x="187.7" y="477.8" type="line"/>
      <point x="82.3" y="477.8" type="line"/>
    </contour>
  </outline>
</glyph>
<glyph name="ordmasculine" format="2">
  <advance width="478.70000000000005"/>
  <unicode hex="00BA"/>
  <outline>
    <contour>
      <point x="24.299999999999997" y="191.3" type="line"/>
      <point x="429.5" y="191.3" type="line"/>
      <point x="448.09999999999997" y="311.6" type="line"/>
      <point x="42.9" y="311.6" type="line"/>
    </contour>
    <component base="o.superior" xOffset="8.0"/>
  </outline>
</glyph>
<glyph name="AE" format="2">
  <advance width="1232.9999999999998"/>
  <unicode hex="00C6"/>
  <anchor x="600.2331999999999" y="0.0" name="bottom"/>
  <anchor x="788.4000000000001" y="700.0" name="top"/>
  <outline>
    <contour>
      <point x="484.9" y="0.0" type="line"/>
      <point x="1157.3" y="0.0" type="line"/>
      <point x="1188.6" y="190.9" type="line"/>
      <point x="751.6999999999999" y="190.9" type="line"/>
      <point x="763.4" y="264.90000000000003" type="line"/>
      <point x="1151.1" y="264.90000000000003" type="line"/>
      <point x="1179.6" y="435.3" type="line"/>
      <point x="791.6" y="435.3" type="line"/>
      <point x="803.3" y="507.6" type="line"/>
      <point x="1217.8999999999999" y="507.6" type="line"/>
      <point x="1249.8" y="700.0" type="line"/>
      <point x="446.9" y="700.0" type="line"/>
      <point x="-44.0" y="0.0" type="line"/>
      <point x="241.09999999999997" y="0.0" type="line"/>
      <point x="329.4" y="134.5" type="line"/>
      <point x="506.2" y="134.5" type="line"/>
    </contour>
    <contour>
      <point x="438.20000000000005" y="309.20000000000005" type="line"/>
      <point x="571.4000000000001" y="544.7" type="line"/>
      <point x="532.6" y="309.20000000000005" type="line"/>
    </contour>
  </outline>
</glyph>
<glyph name="multiply" format="2">
  <advance width="555.5"/>
  <unicode hex="00D7"/>
  <outline>
    <contour>
      <point x="135.6" y="95.5" type="line"/>
      <point x="266.9" y="200.70000000000002" type="line"/>
      <point x="373.3" y="84.3" type="line"/>
      <point x="509.09999999999997" y="229.5" type="line"/>
      <point x="420.5" y="325.6" type="line"/>
      <point x="539.2" y="421.0" type="line"/>
      <point x="437.0" y="558.5" type="line"/>
      <point x="305.0" y="451.9" type="line"/>
      <point x="197.9" y="566.9" type="line"/>
      <point x="63.9" y="428.0" type="line"/>
      <point x="154.2" y="327.7" type="line"/>
      <point x="32.4" y="229.5" type="line"/>
    </contour>
  </outline>
</glyph>
<glyph name="Oslash" format="2">
  <advance width="879.9999999999999"/>
  <unicode hex="00D8"/>
  <anchor x="501.0" y="700.0" name="top"/>
  <outline>
    <contour>
      <point x="952.0" y="720.0" type="line"/>
      <point x="757.4999999999999" y="720.0" type="line"/>
      <point x="625.0" y="600.5" type="line"/>
      <point x="622.5" y="600.5" type="line"/>
      <point x="190.0" y="197.0" type="line"/>
      <point x="187.5" y="197.0" type="line"/>
      <point x="-43.5" y="-17.0" type="line"/>
      <point x="150.0" y="-17.0" type="line"/>
      <point x="287.0" y="108.5" type="line"/>
      <point x="289.5" y="108.5" type="line"/>
      <point x="735.0" y="518.5" type="line"/>
      <point x="737.0" y="518.5" type="line"/>
    </contour>
    <contour>
      <point x="421.49999999999994" y="-8.0" type="curve" smooth="yes"/>
      <point x="703.5" y="-8.0"/>
      <point x="860.4999999999999" y="143.00000000000003"/>
      <point x="865.9999999999999" y="405.0" type="curve" smooth="yes"/>
      <point x="869.9999999999999" y="602.5"/>
      <point x="745.5" y="708.0"/>
      <point x="487.0" y="708.0" type="curve" smooth="yes"/>
      <point x="205.0" y="708.0"/>
      <point x="48.0" y="557.0"/>
      <point x="42.5" y="295.0" type="curve" smooth="yes"/>
      <point x="38.5" y="97.5"/>
      <point x="163.0" y="-8.0"/>
    </contour>
    <contour>
      <point x="436.0" y="169.5" type="curve" smooth="yes"/>
      <point x="336.5" y="169.5"/>
      <point x="294.0" y="207.5"/>
      <point x="294.0" y="300.5" type="curve" smooth="yes"/>
      <point x="294.0" y="432.5"/>
      <point x="367.0" y="530.5"/>
      <point x="472.5" y="530.5" type="curve" smooth="yes"/>
      <point x="571.5" y="530.5"/>
      <point x="614.4999999999999" y="492.5"/>
      <point x="614.4999999999999" y="399.0" type="curve" smooth="yes"/>
      <point x="614.4999999999999" y="267.0"/>
      <point x="541.5" y="169.5"/>
    </contour>
  </outline>
</glyph>
<glyph name="Thorn" format="2">
  <advance width="869.5"/>
  <unicode hex="00DE"/>
  <outline>
    <contour>
      <point x="13.000000000000004" y="0.0" type="line"/>
      <point x="271.5" y="0.0" type="line"/>
      <point x="286.5" y="89.0" type="line"/>
      <point x="360.0" y="85.0"/>
      <point x="382.0" y="84.0"/>
      <point x="414.49999999999994" y="84.0" type="curve" smooth="yes"/>
      <point x="740.0" y="84.0"/>
      <point x="867.0" y="179.5"/>
      <point x="867.0" y="394.0" type="curve" smooth="yes"/>
      <point x="867.0" y="556.5"/>
      <point x="776.0" y="635.0"/>
      <point x="490.0" y="635.0" type="curve" smooth="yes"/>
      <point x="468.0" y="635.0"/>
      <point x="429.0" y="634.0"/>
      <point x="375.5" y="633.5" type="curve"/>
      <point x="387.0" y="700.0" type="line"/>
      <point x="128.5" y="700.0" type="line"/>
    </contour>
    <contour>
      <point x="401.99999999999994" y="276.5" type="curve" smooth="yes"/>
      <point x="380.0" y="276.5"/>
      <point x="365.0" y="277.0"/>
      <point x="318.5" y="280.5" type="curve"/>
      <point x="344.0" y="441.0" type="line"/>
      <point x="419.0" y="444.5"/>
      <point x="428.0" y="445.0"/>
      <point x="480.5" y="445.0" type="curve" smooth="yes"/>
      <point x="573.5" y="445.0"/>
      <point x="600.5" y="415.0"/>
      <point x="600.5" y="377.5" type="curve" smooth="yes"/>
      <point x="600.5" y="305.0"/>
      <point x="564.0" y="276.5"/>
    </contour>
  </outline>
</glyph>
<glyph name="germandbls" format="2">
  <advance width="883.0"/>
  <unicode hex="00DF"/>
  <outline>
    <contour>
      <point x="52.7" y="28.599999999999998" type="line" smooth="yes"/>
      <point x="46.8" y="-7.600000000000001"/>
      <point x="30.7" y="-26.0"/>
      <point x="6.899999999999997" y="-26.0" type="curve" smooth="yes"/>
      <point x="-3.9000000000000057" y="-26.0"/>
      <point x="-16.400000000000006" y="-24.6"/>
      <point x="-27.900000000000006" y="-21.200000000000003" type="curve"/>
      <point x="-72.6" y="-195.9" type="line"/>
      <point x="-30.40000000000001" y="-212.8"/>
      <point x="11.599999999999993" y="-220.0"/>
      <point x="67.69999999999999" y="-220.0" type="curve" smooth="yes"/>
      <point x="191.4" y="-220.0"/>
      <point x="266.7" y="-140.0"/>
      <point x="288.6" y="0.0" type="curve" smooth="yes"/>
      <point x="362.2" y="475.3" type="line" smooth="yes"/>
      <point x="374.0" y="548.7"/>
      <point x="442.7" y="574.7"/>
      <point x="542.5" y="574.7" type="curve" smooth="yes"/>
      <point x="624.3" y="574.7"/>
      <point x="641.4" y="560.2"/>
      <point x="641.4" y="548.4" type="curve" smooth="yes"/>
      <point x="641.4" y="533.1"/>
      <point x="629.3" y="526.2"/>
      <point x="539.5" y="508.8" type="curve" smooth="yes"/>
      <point x="441.7" y="490.0"/>
      <point x="395.7" y="443.6"/>
      <point x="395.7" y="343.2" type="curve" smooth="yes"/>
      <point x="395.7" y="256.6"/>
      <point x="440.0" y="213.7"/>
      <point x="537.8" y="196.0" type="curve" smooth="yes"/>
      <point x="619.8" y="180.0"/>
      <point x="634.1" y="177.3"/>
      <point x="634.1" y="159.7" type="curve" smooth="yes"/>
      <point x="634.1" y="153.5"/>
      <point x="619.5" y="145.1"/>
      <point x="586.8" y="145.1" type="curve" smooth="yes"/>
      <point x="526.2" y="145.1"/>
      <point x="433.7" y="159.3"/>
      <point x="376.1" y="175.6" type="curve"/>
      <point x="333.2" y="24.200000000000003" type="line"/>
      <point x="403.8" y="2.8999999999999986"/>
      <point x="481.6" y="-9.8"/>
      <point x="564.8" y="-9.8" type="curve" smooth="yes"/>
      <point x="783.3" y="-9.8"/>
      <point x="870.1" y="54.1"/>
      <point x="870.1" y="183.2" type="curve" smooth="yes"/>
      <point x="870.1" y="276.5"/>
      <point x="825.2" y="323.7"/>
      <point x="722.6" y="337.4" type="curve" smooth="yes"/>
      <point x="629.1" y="348.9"/>
      <point x="615.9" y="353.6"/>
      <point x="615.9" y="367.5" type="curve" smooth="yes"/>
      <point x="615.9" y="379.1"/>
      <point x="625.7" y="380.6"/>
      <point x="702.8" y="391.6" type="curve" smooth="yes"/>
      <point x="819.3" y="408.8"/>
      <point x="856.5" y="464.9"/>
      <point x="856.5" y="561.2" type="curve" smooth="yes"/>
      <point x="856.5" y="679.2"/>
      <point x="755.0" y="750.0"/>
      <point x="534.7" y="750.0" type="curve" smooth="yes"/>
      <point x="289.6" y="750.0"/>
      <point x="156.7" y="678.7"/>
      <point x="130.0" y="508.6" type="curve" smooth="yes"/>
      <point x="128.8" y="497.5" type="line"/>
      <point x="46.9" y="481.5" type="line"/>
      <point x="21.2" y="326.9" type="line"/>
      <point x="99.6" y="326.9" type="line"/>
    </contour>
  </outline>
</glyph>
<glyph name="ae" format="2">
  <advance width="1052.0"/>
  <unicode hex="00E6"/>
  <anchor x="485.5" y="0.0" name="bottom"/>
  <anchor x="573.5" y="550.0" name="top"/>
  <outline>
    <contour>
      <point x="214.0" y="-10.0" type="curve" smooth="yes"/>
      <point x="271.0" y="-10.0"/>
      <point x="326.99999999999994" y="9.000000000000002"/>
      <point x="387.5" y="50.00000000000001" type="curve"/>
      <point x="378.49999999999994" y="4.440892098500626e-16" type="line"/>
      <point x="596.5" y="4.440892098500626e-16" type="line"/>
      <point x="604.5" y="49.0" type="line"/>
      <point x="647.5" y="11.5"/>
      <point x="708.0" y="-9.5"/>
      <point x="784.5" y="-9.5" type="curve" smooth="yes"/>
      <point x="853.5" y="-9.5"/>
      <point x="920.0" y="1.5000000000000018"/>
      <point x="983.0" y="23.000000000000007" type="curve"/>
      <point x="963.0" y="194.5" type="line"/>
      <point x="879.5" y="173.0"/>
      <point x="800.5" y="165.0"/>
      <point x="766.0" y="165.0" type="curve" smooth="yes"/>
      <point x="664.0" y="165.0"/>
      <point x="636.0" y="181.5"/>
      <point x="636.0" y="249.5" type="curve" smooth="yes"/>
      <point x="636.0" y="325.5"/>
      <point x="681.0" y="396.5"/>
      <point x="749.0" y="396.5" type="curve" smooth="yes"/>
      <point x="776.4999999999999" y="396.5"/>
      <point x="790.0" y="387.5"/>
      <point x="790.0" y="369.5" type="curve" smooth="yes"/>
      <point x="790.0" y="340.5"/>
      <point x="748.4999999999999" y="319.0"/>
      <point x="672.0" y="311.5" type="curve" smooth="yes"/>
      <point x="642.0" y="308.5"/>
      <point x="619.0" y="307.0"/>
      <point x="596.5" y="309.0" type="curve"/>
      <point x="600.5" y="202.0" type="line"/>
      <point x="642.0" y="195.5"/>
      <point x="690.5" y="193.5"/>
      <point x="756.0" y="198.0" type="curve" smooth="yes"/>
      <point x="940.0" y="211.0"/>
      <point x="1041.5" y="287.0"/>
      <point x="1041.5" y="399.0" type="curve" smooth="yes"/>
      <point x="1041.5" y="500.0"/>
      <point x="964.5" y="560.0"/>
      <point x="839.5" y="560.0" type="curve" smooth="yes"/>
      <point x="775.0" y="560.0"/>
      <point x="722.0" y="546.5"/>
      <point x="679.0" y="523.5" type="curve"/>
      <point x="684.0" y="553.0" type="line"/>
      <point x="466.0" y="553.0" type="line"/>
      <point x="459.5" y="512.0" type="line"/>
      <point x="430.5" y="543.5"/>
      <point x="384.5" y="560.0"/>
      <point x="326.0" y="560.0" type="curve" smooth="yes"/>
      <point x="128.0" y="560.0"/>
      <point x="19.5" y="400.5"/>
      <point x="19.5" y="201.0" type="curve" smooth="yes"/>
      <point x="19.5" y="58.5"/>
      <point x="94.99999999999999" y="-10.0"/>
    </contour>
    <contour>
      <point x="334.0" y="169.0" type="curve" smooth="yes"/>
      <point x="301.5" y="169.0"/>
      <point x="266.5" y="183.5"/>
      <point x="266.5" y="236.5" type="curve" smooth="yes"/>
      <point x="266.5" y="335.0"/>
      <point x="327.5" y="394.5"/>
      <point x="385.5" y="394.5" type="curve" smooth="yes"/>
      <point x="405.0" y="394.5"/>
      <point x="422.99999999999994" y="391.5"/>
      <point x="438.5" y="386.5" type="curve"/>
      <point x="407.0" y="182.5" type="line"/>
      <point x="382.49999999999994" y="175.0"/>
      <point x="359.0" y="169.0"/>
    </contour>
  </outline>
</glyph>
<glyph name="eth" format="2">
  <advance width="715.5"/>
  <unicode hex="00F0"/>
  <outline>
    <contour>
      <point x="487.0" y="350.5" type="curve"/>
      <point x="514.5" y="496.5" type="line"/>
      <point x="462.0" y="512.0"/>
      <point x="392.49999999999994" y="520.5"/>
      <point x="330.5" y="520.5" type="curve" smooth="yes"/>
      <point x="136.0" y="520.5"/>
      <point x="13.0" y="408.0"/>
      <point x="13.0" y="230.0" type="curve" smooth="yes"/>
      <point x="13.0" y="54.5"/>
      <point x="137.5" y="-8.5"/>
      <point x="307.5" y="-8.5" type="curve" smooth="yes"/>
      <point x="528.5" y="-8.5"/>
      <point x="659.0" y="91.0"/>
      <point x="700.0" y="327.5" type="curve" smooth="yes"/>
      <point x="706.5" y="363.5"/>
      <point x="709.0" y="398.0"/>
      <point x="709.0" y="428.5" type="curve" smooth="yes"/>
      <point x="709.0" y="689.0"/>
      <point x="514.0" y="763.5"/>
      <point x="224.5" y="763.5" type="curve" smooth="yes"/>
      <point x="167.5" y="763.5"/>
      <point x="116.0" y="756.0"/>
      <point x="69.0" y="748.0" type="curve"/>
      <point x="55.000000000000014" y="610.5" type="line"/>
      <point x="92.50000000000001" y="614.5"/>
      <point x="113.50000000000001" y="620.0"/>
      <point x="194.0" y="620.0" type="curve" smooth="yes"/>
      <point x="396.5" y="620.0"/>
      <point x="463.5" y="584.5"/>
      <point x="463.5" y="474.0" type="curve" smooth="yes"/>
      <point x="463.5" y="443.5"/>
      <point x="461.5" y="406.5"/>
      <point x="454.0" y="361.0" type="curve" smooth="yes"/>
      <point x="427.5" y="197.5"/>
      <point x="392.5" y="154.0"/>
      <point x="329.0" y="154.0" type="curve" smooth="yes"/>
      <point x="277.5" y="154.0"/>
      <point x="258.0" y="182.5"/>
      <point x="258.0" y="230.0" type="curve" smooth="yes"/>
      <point x="258.0" y="311.0"/>
      <point x="308.5" y="367.5"/>
      <point x="376.5" y="367.5" type="curve" smooth="yes"/>
      <point x="425.0" y="367.5"/>
      <point x="454.5" y="357.5"/>
    </contour>
    <contour>
      <point x="254.5" y="538.5" type="line"/>
      <point x="483.5" y="638.0" type="line"/>
      <point x="483.5" y="643.5" type="line"/>
      <point x="752.5" y="761.5" type="line"/>
      <point x="545.5" y="762.0" type="line"/>
      <point x="390.5" y="694.5" type="line"/>
      <point x="383.0" y="685.5" type="line"/>
      <point x="47.000000000000014" y="538.5" type="line"/>
    </contour>
  </outline>
</glyph>
<glyph name="divide" format="2">
  <advance width="636.2"/>
  <unicode hex="00F7"/>
  <outline>
    <contour>
      <point x="179.4" y="72.5" type="curve" smooth="yes"/>
      <point x="179.4" y="28.400000000000006"/>
      <point x="208.4" y="5.0"/>
      <point x="273.9" y="5.0" type="curve" smooth="yes"/>
      <point x="344.40000000000003" y="5.0"/>
      <point x="395.8" y="36.3"/>
      <point x="395.8" y="114.80000000000001" type="curve" smooth="yes"/>
      <point x="395.8" y="158.9"/>
      <point x="367.5" y="181.3"/>
      <point x="302.6" y="181.3" type="curve" smooth="yes"/>
      <point x="232.10000000000002" y="181.3"/>
      <point x="179.4" y="144.5"/>
    </contour>
    <contour>
      <point x="255.3" y="530.5" type="curve" smooth="yes"/>
      <point x="255.3" y="487.1"/>
      <point x="282.6" y="464.0"/>
      <point x="348.79999999999995" y="464.0" type="curve" smooth="yes"/>
      <point x="420.0" y="464.0"/>
      <point x="470.3" y="496.7"/>
      <point x="470.3" y="574.2" type="curve" smooth="yes"/>
      <point x="470.3" y="618.6"/>
      <point x="442.4" y="640.3000000000001"/>
      <point x="376.8" y="640.3000000000001" type="curve" smooth="yes"/>
      <point x="304.0" y="640.3000000000001"/>
      <point x="255.3" y="602.0"/>
    </contour>
    <contour>
      <point x="47.4" y="226.5" type="line"/>
      <point x="572.0" y="226.5" type="line"/>
      <point x="604.0" y="418.0" type="line"/>
      <point x="79.4" y="418.0" type="line"/>
    </contour>
  </outline>
</glyph>
<glyph name="oslash" format="2">
  <advance width="706.0"/>
  <unicode hex="00F8"/>
  <anchor x="384.5" y="550.0" name="top"/>
  <outline>
    <contour>
      <point x="570.0" y="561.5" type="line"/>
      <point x="473.5" y="465.0" type="line"/>
      <point x="471.0" y="466.5" type="line"/>
      <point x="171.5" y="161.0" type="line"/>
      <point x="170.0" y="163.0" type="line"/>
      <point x="-2.0000000000000036" y="-9.5" type="line"/>
      <point x="132.5" y="-9.5" type="line"/>
      <point x="229.5" y="86.5" type="line"/>
      <point x="232.0" y="85.0" type="line"/>
      <point x="552.5" y="410.0" type="line"/>
      <point x="554.0" y="408.0" type="line"/>
      <point x="707.0" y="561.5" type="line"/>
    </contour>
    <contour>
      <point x="341.5" y="-9.5" type="curve" smooth="yes"/>
      <point x="556.5" y="-9.5"/>
      <point x="681.0" y="98.00000000000001"/>
      <point x="681.0" y="313.0" type="curve" smooth="yes"/>
      <point x="681.0" y="485.5"/>
      <point x="559.5" y="561.0"/>
      <point x="368.0" y="561.0" type="curve" smooth="yes"/>
      <point x="149.0" y="561.0"/>
      <point x="24.000000000000004" y="454.0"/>
      <point x="24.000000000000004" y="238.5" type="curve" smooth="yes"/>
      <point x="24.000000000000004" y="66.0"/>
      <point x="145.5" y="-9.5"/>
    </contour>
    <contour>
      <point x="345.0" y="151.0" type="curve" smooth="yes"/>
      <point x="292.5" y="150.5"/>
      <point x="263.5" y="177.0"/>
      <point x="262.5" y="229.0" type="curve" smooth="yes"/>
      <point x="259.0" y="332.5"/>
      <point x="296.5" y="399.5"/>
      <point x="360.0" y="400.5" type="curve" smooth="yes"/>
      <point x="411.5" y="401.0"/>
      <point x="441.5" y="374.0"/>
      <point x="442.5" y="322.0" type="curve" smooth="yes"/>
      <point x="446.0" y="218.50000000000003"/>
      <point x="408.49999999999994" y="151.5"/>
    </contour>
  </outline>
</glyph>
<glyph name="thorn" format="2">
  <advance width="733.0"/>
  <unicode hex="00FE"/>
  <outline>
    <contour>
      <point x="-29.999999999999996" y="-210.0" type="line"/>
      <point x="215.99999999999997" y="-210.0" type="line"/>
      <point x="250.0" y="-1.27675647831893e-15" type="line"/>
      <point x="275.0" y="-5.0"/>
      <point x="313.49999999999994" y="-9.5"/>
      <point x="352.99999999999994" y="-9.5" type="curve" smooth="yes"/>
      <point x="603.0" y="-9.5"/>
      <point x="715.0" y="134.5"/>
      <point x="715.0" y="356.50000000000006" type="curve" smooth="yes"/>
      <point x="715.0" y="483.0"/>
      <point x="653.9999999999999" y="560.0"/>
      <point x="528.5000000000001" y="560.0" type="curve" smooth="yes"/>
      <point x="446.0" y="560.0"/>
      <point x="389.5" y="535.5"/>
      <point x="327.0" y="496.0" type="curve"/>
      <point x="365.0" y="740.0" type="line"/>
      <point x="120.50000000000001" y="740.0" type="line"/>
    </contour>
    <contour>
      <point x="350.5" y="162.49999999999997" type="curve" smooth="yes"/>
      <point x="325.5" y="162.49999999999997"/>
      <point x="300.0" y="166.5"/>
      <point x="277.5" y="173.0" type="curve"/>
      <point x="305.0" y="342.0" type="line"/>
      <point x="332.0" y="351.50000000000006"/>
      <point x="369.49999999999994" y="361.5"/>
      <point x="402.0" y="361.5" type="curve" smooth="yes"/>
      <point x="441.5" y="361.5"/>
      <point x="465.50000000000006" y="345.5"/>
      <point x="465.50000000000006" y="297.5" type="curve" smooth="yes"/>
      <point x="465.50000000000006" y="228.0"/>
      <point x="422.5" y="162.49999999999997"/>
    </contour>
  </outline>
</glyph>
<glyph name="Dcroat" format="2">
  <advance width="891.3"/>
  <unicode hex="0110"/>
  <outline>
    <contour>
      <point x="15.2" y="264.5" type="line"/>
      <point x="461.1" y="264.5" type="line"/>
      <point x="492.3" y="442.9" type="line"/>
      <point x="44.3" y="442.9" type="line"/>
    </contour>
    <component base="D" xOffset="10.600000000000001"/>
  </outline>
</glyph>
<glyph name="dcroat" format="2">
  <advance width="761.1"/>
  <unicode hex="0111"/>
  <outline>
    <contour>
      <point x="338.5" y="598.6" type="line"/>
      <point x="790.6" y="598.6" type="line"/>
      <point x="806.3" y="701.6" type="line"/>
      <point x="354.5" y="701.6" type="line"/>
    </contour>
    <component base="d"/>
  </outline>
</glyph>
<glyph name="Hbar" format="2">
  <advance width="880.5"/>
  <unicode hex="0126"/>
  <outline>
    <contour>
      <point x="53.5" y="491.5" type="line"/>
      <point x="898.3" y="491.5" type="line"/>
      <point x="924.3999999999999" y="655.3000000000001" type="line"/>
      <point x="79.6" y="655.3000000000001" type="line"/>
    </contour>
    <component base="H" xOffset="2.2"/>
  </outline>
</glyph>
<glyph name="hbar" format="2">
  <advance width="714.2"/>
  <unicode hex="0127"/>
  <outline>
    <contour>
      <point x="34.0" y="598.6" type="line"/>
      <point x="471.4" y="598.6" type="line"/>
      <point x="487.09999999999997" y="701.6" type="line"/>
      <point x="49.7" y="701.6" type="line"/>
    </contour>
    <component base="h" xOffset="-1.799999999999999"/>
  </outline>
</glyph>
<glyph name="Idotaccent" format="2">
  <advance width="375.4"/>
  <unicode hex="0130"/>
  <outline>
    <contour>
      <point x="293.3" y="940.0" type="curve" smooth="yes"/>
      <point x="180.4" y="940.0"/>
      <point x="127.70000000000002" y="889.4"/>
      <point x="127.69999999999999" y="808.5" type="curve" smooth="yes"/>
      <point x="127.69999999999999" y="752.0"/>
      <point x="167.0" y="719.7"/>
      <point x="256.59999999999997" y="719.7" type="curve" smooth="yes"/>
      <point x="350.2" y="719.7"/>
      <point x="421.5" y="761.1"/>
      <point x="421.5" y="852.2" type="curve" smooth="yes"/>
      <point x="421.5" y="908.0"/>
      <point x="381.9" y="940.0"/>
    </contour>
    <component base="I"/>
  </outline>
</glyph>
<glyph name="dotlessi" format="2">
  <advance width="341.7"/>
  <unicode hex="0131"/>
  <anchor x="127.3108" y="0.0" name="bottom"/>
  <anchor x="251.4" y="0.0" name="ogonek"/>
  <anchor x="214.3892" y="550.0" name="top"/>
  <outline>
    <contour>
      <point x="251.4" y="0.0" type="line"/>
      <point x="337.7" y="550.0" type="line"/>
      <point x="91.0" y="550.0" type="line"/>
      <point x="3.299999999999997" y="0.7" type="line"/>
    </contour>
  </outline>
</glyph>
<glyph name="Ldot" format="2">
  <advance width="731.0"/>
  <unicode hex="013F"/>
  <outline>
    <contour>
      <point x="451.9994" y="419.3886" type="curve" smooth="yes"/>
      <point x="451.9994" y="366.2906"/>
      <point x="486.4986" y="336.7917"/>
      <point x="560.3965" y="336.7917" type="curve" smooth="yes"/>
      <point x="648.0932999999999" y="336.7917"/>
      <point x="701.1923999999999" y="384.48769999999996"/>
      <point x="701.1924" y="460.4852" type="curve" smooth="yes"/>
      <point x="701.1923999999999" y="514.5833"/>
      <point x="666.6932" y="544.0822"/>
      <point x="593.6951" y="544.0822" type="curve" smooth="yes"/>
      <point x="506.89840000000004" y="544.0822"/>
      <point x="451.9994" y="492.5861"/>
    </contour>
    <component base="L"/>
  </outline>
</glyph>
<glyph name="ldot" format="2">
  <advance width="486.4"/>
  <unicode hex="0140"/>
  <outline>
    <contour>
      <point x="358.677" y="395.1095" type="curve" smooth="yes"/>
      <point x="358.67699999999996" y="355.9494"/>
      <point x="380.20679999999993" y="334.4344"/>
      <point x="426.6387" y="334.4344" type="curve" smooth="yes"/>
      <point x="483.7241" y="334.4344"/>
      <point x="516.0625" y="372.6017"/>
      <point x="516.0625" y="428.0668" type="curve" smooth="yes"/>
      <point x="516.0625" y="467.78090000000003"/>
      <point x="494.5326999999999" y="489.29589999999996"/>
      <point x="448.69750000000005" y="489.29589999999996" type="curve" smooth="yes"/>
      <point x="392.2078" y="489.29589999999996"/>
      <point x="358.67699999999996" y="448.67969999999997"/>
    </contour>
    <component base="l"/>
  </outline>
</glyph>
<glyph name="Lslash" format="2">
  <advance width="728.3"/>
  <unicode hex="0141"/>
  <outline>
    <contour>
      <point x="10.299999999999997" y="0.0" type="line"/>
      <point x="656.0999999999999" y="0.0" type="line"/>
      <point x="691.5999999999999" y="204.9" type="line"/>
      <point x="302.7" y="204.9" type="line"/>
      <point x="319.90000000000003" y="313.90000000000003" type="line"/>
      <point x="533.0" y="406.40000000000003" type="line"/>
      <point x="567.6" y="617.0" type="line"/>
      <point x="353.90000000000003" y="524.2" type="line"/>
      <point x="382.7" y="700.0" type="line"/>
      <point x="124.4" y="700.0" type="line"/>
      <point x="75.60000000000002" y="402.29999999999995" type="line"/>
      <point x="14.5" y="375.4" type="line"/>
      <point x="-17.799999999999997" y="168.3" type="line"/>
      <point x="41.6" y="194.5" type="line"/>
    </contour>
  </outline>
</glyph>
<glyph name="lslash" format="2">
  <advance width="429.2"/>
  <unicode hex="0142"/>
  <outline>
    <contour>
      <point x="-11.0" y="192.5" type="line"/>
      <point x="402.8" y="380.2" type="line"/>
      <point x="431.0" y="555.4" type="line"/>
      <point x="16.2" y="367.7" type="line"/>
    </contour>
    <component base="l" xOffset="6.0"/>
  </outline>
</glyph>
<glyph name="Eng" format="2">
  <advance width="830.4999999999999"/>
  <unicode hex="014A"/>
  <outline>
    <contour>
      <point x="13.000000000000004" y="0.0" type="line"/>
      <point x="244.0" y="0.0" type="line"/>
      <point x="299.5" y="333.5" type="line"/>
      <point x="495.5" y="3.4999999999999964" type="line"/>
      <point x="494.0" y="-24.000000000000007"/>
      <point x="468.5" y="-32.000000000000014"/>
      <point x="432.0" y="-32.000000000000014" type="curve" smooth="yes"/>
      <point x="407.49999999999994" y="-32.000000000000014"/>
      <point x="388.99999999999994" y="-27.500000000000014"/>
      <point x="368.49999999999994" y="-17.500000000000014" type="curve"/>
      <point x="331.49999999999994" y="-204.5" type="line"/>
      <point x="376.99999999999994" y="-218.5"/>
      <point x="437.49999999999994" y="-219.5"/>
      <point x="456.5" y="-219.5" type="curve" smooth="yes"/>
      <point x="607.5" y="-218.0"/>
      <point x="698.0" y="-176.0"/>
      <point x="724.5" y="-11.0" type="curve" smooth="yes"/>
      <point x="840.5" y="700.0" type="line"/>
      <point x="608.5" y="700.0" type="line"/>
      <point x="549.5" y="344.5" type="line"/>
      <point x="355.0" y="700.0" type="line"/>
      <point x="127.5" y="700.0" type="line"/>
    </contour>
  </outline>
</glyph>
<glyph name="eng" format="2">
  <advance width="705.6999999999999"/>
  <unicode hex="014B"/>
  <outline>
    <contour>
      <point x="623.1999999999999" y="58.2" type="curve" smooth="yes"/>
      <point x="627.0" y="81.60000000000002"/>
      <point x="682.8" y="414.4"/>
      <point x="682.8" y="429.09999999999997" type="curve" smooth="yes"/>
      <point x="682.8" y="504.2"/>
      <point x="621.6" y="560.0"/>
      <point x="510.2" y="560.0" type="curve" smooth="yes"/>
      <point x="440.5" y="560.0"/>
      <point x="388.1" y="540.5"/>
      <point x="301.7" y="494.40000000000003" type="curve"/>
      <point x="310.2" y="550.0" type="line"/>
      <point x="90.30000000000001" y="550.0" type="line"/>
      <point x="3.299999999999997" y="0.0" type="line"/>
      <point x="246.5" y="0.0" type="line"/>
      <point x="304.6" y="353.0" type="line"/>
      <point x="333.7" y="363.6"/>
      <point x="359.4" y="370.5"/>
      <point x="380.8" y="370.5" type="curve" smooth="yes"/>
      <point x="409.50000000000006" y="370.5"/>
      <point x="429.3" y="358.09999999999997"/>
      <point x="423.70000000000005" y="324.09999999999997" type="curve" smooth="yes"/>
      <point x="415.3" y="272.5"/>
      <point x="406.3" y="218.50000000000003"/>
      <point x="380.5" y="61.3" type="curve" smooth="yes"/>
      <point x="371.2" y="5.199999999999999"/>
      <point x="346.3" y="-13.8"/>
      <point x="301.2" y="-13.8" type="curve" smooth="yes"/>
      <point x="297.4" y="-13.8"/>
      <point x="292.7" y="-13.8"/>
      <point x="288.29999999999995" y="-13.2" type="curve"/>
      <point x="246.2" y="-214.39999999999998" type="line"/>
      <point x="270.3" y="-217.0"/>
      <point x="317.4" y="-220.0"/>
      <point x="357.79999999999995" y="-220.0" type="curve" smooth="yes"/>
      <point x="511.5" y="-220.0"/>
      <point x="594.0" y="-135.3"/>
    </contour>
  </outline>
</glyph>
<glyph name="OE" format="2">
  <advance width="1271.0"/>
  <unicode hex="0152"/>
  <outline>
    <contour>
      <point x="1194.5" y="0.0" type="line"/>
      <point x="1226.5" y="191.0" type="line"/>
      <point x="795.0" y="191.0" type="line"/>
      <point x="807.0" y="265.0" type="line"/>
      <point x="1189.0" y="265.0" type="line"/>
      <point x="1217.5000000000002" y="435.5" type="line"/>
      <point x="834.9999999999999" y="435.5" type="line"/>
      <point x="846.0" y="507.0" type="line"/>
      <point x="1256.0" y="507.0" type="line"/>
      <point x="1287.0" y="700.0" type="line"/>
      <point x="877.5" y="700.0" type="line"/>
      <point x="770.5" y="702.0"/>
      <point x="685.4999999999999" y="710.0"/>
      <point x="501.4999999999999" y="710.0" type="curve" smooth="yes"/>
      <point x="258.5" y="710.0"/>
      <point x="39.0" y="562.0"/>
      <point x="39.0" y="285.0" type="curve" smooth="yes"/>
      <point x="39.0" y="99.99999999999999"/>
      <point x="142.99999999999997" y="-10.0"/>
      <point x="427.99999999999994" y="-10.0" type="curve" smooth="yes"/>
      <point x="562.5" y="-10.0"/>
      <point x="648.5" y="-2.499999999999999"/>
      <point x="759.5" y="0.0" type="curve"/>
    </contour>
    <contour>
      <point x="545.0" y="176.5" type="line"/>
      <point x="518.9999999999999" y="174.5"/>
      <point x="479.99999999999994" y="172.99999999999997"/>
      <point x="430.5" y="172.99999999999997" type="curve" smooth="yes"/>
      <point x="352.0" y="172.99999999999997"/>
      <point x="293.5" y="227.0"/>
      <point x="293.5" y="301.0" type="curve" smooth="yes"/>
      <point x="293.5" y="426.0"/>
      <point x="379.0" y="524.5"/>
      <point x="477.5" y="524.5" type="curve" smooth="yes"/>
      <point x="533.0" y="524.5"/>
      <point x="559.5" y="522.0"/>
      <point x="601.5" y="520.5" type="curve"/>
    </contour>
  </outline>
</glyph>
<glyph name="oe" format="2">
  <advance width="1085.0"/>
  <unicode hex="0153"/>
  <outline>
    <contour>
      <point x="333.5" y="-9.5" type="curve" smooth="yes"/>
      <point x="415.99999999999994" y="-9.5"/>
      <point x="485.0" y="6.5"/>
      <point x="543.0" y="50.0" type="curve"/>
      <point x="597.5" y="8.0"/>
      <point x="673.0" y="-10.0"/>
      <point x="754.5" y="-10.0" type="curve" smooth="yes"/>
      <point x="844.9999999999999" y="-10.0"/>
      <point x="933.5" y="1.5000000000000018"/>
      <point x="1016.0" y="23.000000000000007" type="curve"/>
      <point x="993.0" y="196.0" type="line"/>
      <point x="909.5" y="174.5"/>
      <point x="830.4999999999999" y="166.5"/>
      <point x="796.0" y="166.5" type="curve" smooth="yes"/>
      <point x="694.0" y="166.5"/>
      <point x="670.0" y="182.5"/>
      <point x="670.0" y="250.5" type="curve" smooth="yes"/>
      <point x="670.0" y="337.5"/>
      <point x="719.0" y="393.5"/>
      <point x="780.9999999999999" y="393.5" type="curve" smooth="yes"/>
      <point x="808.0" y="393.5"/>
      <point x="821.0" y="387.0"/>
      <point x="821.0" y="368.5" type="curve" smooth="yes"/>
      <point x="821.0" y="340.5"/>
      <point x="780.0" y="319.0"/>
      <point x="705.5" y="312.5" type="curve" smooth="yes"/>
      <point x="675.5" y="309.5"/>
      <point x="652.0" y="307.5"/>
      <point x="630.0" y="309.5" type="curve"/>
      <point x="633.5" y="201.0" type="line"/>
      <point x="675.0" y="195.0"/>
      <point x="723.0" y="193.0"/>
      <point x="789.0" y="197.5" type="curve" smooth="yes"/>
      <point x="973.0" y="211.0"/>
      <point x="1074.5" y="284.0"/>
      <point x="1074.5" y="392.5" type="curve" smooth="yes"/>
      <point x="1074.5" y="496.5"/>
      <point x="973.5" y="560.0"/>
      <point x="806.4999999999999" y="560.0" type="curve" smooth="yes"/>
      <point x="713.5" y="560.0"/>
      <point x="637.5" y="541.0"/>
      <point x="578.0" y="495.5" type="curve"/>
      <point x="526.0" y="543.5"/>
      <point x="453.0" y="561.0"/>
      <point x="363.5" y="561.0" type="curve" smooth="yes"/>
      <point x="151.5" y="561.0"/>
      <point x="27.999999999999993" y="455.5"/>
      <point x="24.499999999999996" y="244.0" type="curve" smooth="yes"/>
      <point x="21.999999999999996" y="67.5"/>
      <point x="145.5" y="-9.5"/>
    </contour>
    <contour>
      <point x="345.5" y="156.0" type="curve" smooth="yes"/>
      <point x="301.0" y="155.5"/>
      <point x="274.0" y="177.0"/>
      <point x="273.0" y="226.5" type="curve" smooth="yes"/>
      <point x="271.0" y="306.0"/>
      <point x="298.5" y="394.5"/>
      <point x="360.5" y="395.5" type="curve" smooth="yes"/>
      <point x="404.0" y="396.0"/>
      <point x="432.0" y="374.0"/>
      <point x="433.0" y="324.5" type="curve" smooth="yes"/>
      <point x="435.0" y="245.00000000000006"/>
      <point x="407.49999999999994" y="157.0"/>
    </contour>
  </outline>
</glyph>
<glyph name="uni0162" format="2">
  <advance width="796.8000000000001"/>
  <unicode hex="0162"/>
  <anchor x="354.5467" y="0.0" name="_bottom"/>
  <anchor x="262.49999999999994" y="-220.0" name="bottom"/>
  <outline>
    <contour>
      <point x="170.4" y="-208.3" type="line"/>
      <point x="203.79999999999998" y="-216.0"/>
      <point x="232.29999999999998" y="-220.0"/>
      <point x="262.5" y="-220.0" type="curve" smooth="yes"/>
      <point x="364.20000000000005" y="-220.0"/>
      <point x="456.0" y="-165.6"/>
      <point x="456.0" y="-53.9" type="curve" smooth="yes"/>
      <point x="456.0" y="-31.2"/>
      <point x="452.3" y="-9.100000000000001"/>
      <point x="445.4" y="9.4" type="curve"/>
      <point x="260.49999999999994" y="9.1" type="line"/>
      <point x="267.9" y="-2.3"/>
      <point x="271.6" y="-11.9"/>
      <point x="271.6" y="-25.400000000000002" type="curve" smooth="yes"/>
      <point x="271.6" y="-61.0"/>
      <point x="246.79999999999998" y="-69.4"/>
      <point x="219.5" y="-69.4" type="curve" smooth="yes"/>
      <point x="214.1" y="-69.4"/>
      <point x="202.5" y="-68.39999999999999"/>
      <point x="197.4" y="-66.8" type="curve"/>
    </contour>
    <component base="T"/>
  </outline>
</glyph>
<glyph name="Tbar" format="2">
  <advance width="810.8"/>
  <unicode hex="0166"/>
  <outline>
    <contour>
      <point x="824.0999999999999" y="507.4" type="line"/>
      <point x="858.9" y="700.0" type="line"/>
      <point x="91.1" y="700.0" type="line"/>
      <point x="55.6" y="507.4" type="line"/>
      <point x="311.7" y="507.4" type="line"/>
      <point x="290.8" y="379.0" type="line"/>
      <point x="135.79999999999998" y="379.0" type="line"/>
      <point x="106.1" y="199.60000000000002" type="line"/>
      <point x="262.7" y="199.60000000000002" type="line"/>
      <point x="231.39999999999998" y="0.0" type="line"/>
      <point x="489.4" y="0.0" type="line"/>
      <point x="520.6999999999999" y="199.60000000000002" type="line"/>
      <point x="676.3" y="199.60000000000002" type="line"/>
      <point x="706.0" y="379.0" type="line"/>
      <point x="548.8" y="379.0" type="line"/>
      <point x="569.0" y="507.4" type="line"/>
    </contour>
  </outline>
</glyph>
<glyph name="uogonek" format="2">
  <advance width="718.1999999999999"/>
  <unicode hex="0173"/>
  <outline>
    <contour>
      <point x="572.4" y="-197.3" type="curve" smooth="yes"/>
      <point x="600.6999999999999" y="-197.3"/>
      <point x="631.1999999999999" y="-192.70000000000002"/>
      <point x="659.5999999999999" y="-184.70000000000002" type="curve"/>
      <point x="677.1" y="-48.3" type="line"/>
      <point x="671.4999999999999" y="-49.0"/>
      <point x="664.5" y="-50.3"/>
      <point x="654.6999999999999" y="-50.3" type="curve" smooth="yes"/>
      <point x="632.8000000000001" y="-50.3"/>
      <point x="619.0" y="-41.900000000000006"/>
      <point x="619.0" y="-27.700000000000003" type="curve" smooth="yes"/>
      <point x="619.0" y="-8.5"/>
      <point x="631.9" y="11.299999999999997"/>
      <point x="678.0" y="30.4" type="curve"/>
      <point x="683.1999999999999" y="181.1" type="line"/>
      <point x="673.2" y="178.0"/>
      <point x="667.8000000000001" y="178.0"/>
      <point x="665.1" y="178.0" type="curve" smooth="yes"/>
      <point x="656.0" y="178.0"/>
      <point x="648.0999999999999" y="183.70000000000002"/>
      <point x="648.0999999999999" y="198.9" type="curve" smooth="yes"/>
      <point x="648.0999999999999" y="203.20000000000002"/>
      <point x="649.1" y="211.2"/>
      <point x="704.6" y="550.0" type="curve"/>
      <point x="457.4" y="550.0" type="line"/>
      <point x="401.79999999999995" y="197.8" type="line"/>
      <point x="381.8" y="187.9"/>
      <point x="348.0" y="178.2"/>
      <point x="324.2" y="178.2" type="curve" smooth="yes"/>
      <point x="296.6" y="178.2"/>
      <point x="280.7" y="188.7"/>
      <point x="281.29999999999995" y="218.3" type="curve" smooth="yes"/>
      <point x="286.7" y="272.70000000000005"/>
      <point x="297.8" y="330.6"/>
      <point x="335.7" y="550.0" type="curve"/>
      <point x="88.2" y="550.0" type="line"/>
      <point x="32.7" y="211.79999999999998"/>
      <point x="24.200000000000003" y="166.89999999999998"/>
      <point x="24.200000000000003" y="132.29999999999998" type="curve" smooth="yes"/>
      <point x="24.200000000000003" y="44.3"/>
      <point x="87.1" y="-10.0"/>
      <point x="204.4" y="-10.0" type="curve" smooth="yes"/>
      <point x="268.19999999999993" y="-10.0"/>
      <point x="342.5" y="14.7"/>
      <point x="407.2" y="61.4" type="curve"/>
      <point x="426.9999999999999" y="23.0"/>
      <point x="475.1" y="-8.6"/>
      <point x="540.5999999999999" y="-8.6" type="curve" smooth="yes"/>
      <point x="571.0999999999999" y="-8.6"/>
      <point x="604.8" y="34.9"/>
      <point x="526.0" y="42.4" type="curve"/>
      <point x="468.5" y="18.2"/>
      <point x="427.5" y="-25.000000000000004"/>
      <point x="427.5" y="-82.10000000000001" type="curve" smooth="yes"/>
      <point x="427.5" y="-139.20000000000002"/>
      <point x="471.2999999999999" y="-197.3"/>
    </contour>
  </outline>
</glyph>
<glyph name="longs" format="2">
  <advance width="501.5"/>
  <unicode hex="017F"/>
  <outline>
    <contour>
      <point x="68.39999999999999" y="-220.0" type="curve" smooth="yes"/>
      <point x="192.20000000000002" y="-220.0"/>
      <point x="273.5" y="-139.8"/>
      <point x="296.09999999999997" y="0.0" type="curve" smooth="yes"/>
      <point x="371.7" y="476.5" type="line" smooth="yes"/>
      <point x="381.5" y="538.9"/>
      <point x="411.1" y="555.0"/>
      <point x="459.1" y="555.0" type="curve" smooth="yes"/>
      <point x="491.5" y="555.0"/>
      <point x="537.8" y="547.8"/>
      <point x="561.3000000000001" y="540.0" type="curve"/>
      <point x="619.1" y="717.5" type="line"/>
      <point x="569.0999999999999" y="737.0"/>
      <point x="500.59999999999997" y="750.0"/>
      <point x="433.1" y="750.0" type="curve" smooth="yes"/>
      <point x="262.4" y="750.0"/>
      <point x="148.79999999999998" y="659.1999999999999"/>
      <point x="127.8" y="497.5" type="curve"/>
      <point x="47.5" y="481.40000000000003" type="line"/>
      <point x="22.1" y="327.2" type="line"/>
      <point x="100.3" y="327.2" type="line"/>
      <point x="54.4" y="36.099999999999994" type="line" smooth="yes"/>
      <point x="48.8" y="-0.3000000000000007"/>
      <point x="32.4" y="-18.6"/>
      <point x="8.499999999999998" y="-18.6" type="curve" smooth="yes"/>
      <point x="-2.0000000000000013" y="-18.6"/>
      <point x="-13.900000000000006" y="-17.2"/>
      <point x="-25.1" y="-13.600000000000001" type="curve"/>
      <point x="-72.10000000000001" y="-195.70000000000002" type="line"/>
      <point x="-29.900000000000002" y="-212.60000000000002"/>
      <point x="12.399999999999991" y="-220.0"/>
    </contour>
  </outline>
</glyph>
<glyph name="uni018F" format="2">
  <advance width="835.0"/>
  <unicode hex="018F"/>
  <outline>
    <contour>
      <point x="324.5" y="-10.0" type="curve" smooth="yes"/>
      <point x="579.5" y="-10.0"/>
      <point x="812.5" y="89.5"/>
      <point x="812.5" y="408.5" type="curve" smooth="yes"/>
      <point x="812.5" y="585.5"/>
      <point x="684.5" y="710.0"/>
      <point x="435.0" y="710.0" type="curve" smooth="yes"/>
      <point x="303.0" y="710.0"/>
      <point x="180.0" y="691.0"/>
      <point x="70.0" y="655.5" type="curve"/>
      <point x="101.5" y="477.5" type="line"/>
      <point x="204.5" y="512.5"/>
      <point x="309.0" y="524.0"/>
      <point x="396.0" y="524.0" type="curve" smooth="yes"/>
      <point x="519.0" y="524.0"/>
      <point x="580.0" y="485.0"/>
      <point x="580.0" y="379.0" type="curve" smooth="yes"/>
      <point x="580.0" y="296.5"/>
      <point x="521.0" y="177.0"/>
      <point x="367.0" y="177.0" type="curve" smooth="yes"/>
      <point x="295.5" y="177.0"/>
      <point x="254.5" y="202.0"/>
      <point x="254.5" y="240.0" type="curve" smooth="yes"/>
      <point x="254.5" y="284.0"/>
      <point x="312.5" y="318.5"/>
      <point x="407.5" y="322.0" type="curve" smooth="yes"/>
      <point x="461.5" y="324.0"/>
      <point x="533.5" y="320.5"/>
      <point x="598.0" y="313.0" type="curve"/>
      <point x="602.5" y="442.5" type="line"/>
      <point x="566.0" y="450.0"/>
      <point x="475.0" y="457.5"/>
      <point x="410.5" y="457.5" type="curve" smooth="yes"/>
      <point x="162.5" y="457.5"/>
      <point x="18.499999999999996" y="379.0"/>
      <point x="18.499999999999996" y="209.0" type="curve" smooth="yes"/>
      <point x="18.499999999999996" y="78.0"/>
      <point x="122.5" y="-10.0"/>
    </contour>
  </outline>
</glyph>
<glyph name="florin" format="2">
  <advance width="861.0"/>
  <unicode hex="0192"/>
  <outline>
    <contour>
      <point x="485.7" y="239.0" type="line"/>
      <point x="693.3" y="239.0" type="line"/>
      <point x="720.0999999999999" y="409.29999999999995" type="line"/>
      <point x="513.2" y="409.29999999999995" type="line"/>
      <point x="517.9" y="436.59999999999997" type="line" smooth="yes"/>
      <point x="526.6999999999999" y="478.9"/>
      <point x="545.5" y="504.2"/>
      <point x="599.1" y="504.2" type="curve" smooth="yes"/>
      <point x="653.9" y="504.2"/>
      <point x="695.9000000000001" y="495.20000000000005"/>
      <point x="748.8" y="477.6" type="curve"/>
      <point x="809.0" y="667.7" type="line"/>
      <point x="746.4000000000001" y="699.8000000000001"/>
      <point x="647.8" y="710.0"/>
      <point x="578.1999999999999" y="710.0" type="curve" smooth="yes"/>
      <point x="435.5" y="710.0"/>
      <point x="292.0" y="640.2"/>
      <point x="264.4" y="473.2" type="curve" smooth="yes"/>
      <point x="254.29999999999998" y="409.29999999999995" type="line"/>
      <point x="160.7" y="393.2" type="line"/>
      <point x="135.99999999999997" y="239.0" type="line"/>
      <point x="226.79999999999998" y="239.0" type="line"/>
      <point x="154.6" y="-210.0" type="line"/>
      <point x="414.2" y="-210.0" type="line"/>
    </contour>
  </outline>
</glyph>
<glyph name="uni0237" format="2">
  <advance width="363.0"/>
  <unicode hex="0237"/>
  <anchor x="25.799999999999997" y="-217.0" name="bottom"/>
  <anchor x="236.4" y="550.0" name="top"/>
  <outline>
    <contour>
      <point x="360.7" y="550.0" type="line"/>
      <point x="112.99999999999999" y="550.0" type="line"/>
      <point x="32.8" y="41.5" type="line" smooth="yes"/>
      <point x="26.5" y="0.1999999999999993"/>
      <point x="14.599999999999994" y="-19.200000000000003"/>
      <point x="-16.3" y="-19.200000000000003" type="curve" smooth="yes"/>
      <point x="-24.3" y="-19.200000000000003"/>
      <point x="-36.2" y="-18.5"/>
      <point x="-45.7" y="-15.600000000000001" type="curve"/>
      <point x="-96.10000000000001" y="-207.5" type="line"/>
      <point x="-53.2" y="-216.0"/>
      <point x="-6.700000000000003" y="-220.0"/>
      <point x="19.799999999999997" y="-220.0" type="curve" smooth="yes"/>
      <point x="185.6" y="-220.0"/>
      <point x="253.29999999999998" y="-124.69999999999999"/>
      <point x="281.79999999999995" y="56.099999999999994" type="curve" smooth="yes"/>
    </contour>
  </outline>
</glyph>
<glyph name="uni0259" format="2">
  <advance width="695.5"/>
  <unicode hex="0259"/>
  <outline>
    <contour>
      <point x="485.0" y="242.5" type="curve"/>
      <point x="492.0" y="350.5" type="line"/>
      <point x="436.5" y="360.0"/>
      <point x="378.0" y="362.5"/>
      <point x="314.0" y="360.0" type="curve" smooth="yes"/>
      <point x="119.5" y="349.0"/>
      <point x="13.000000000000004" y="270.0"/>
      <point x="13.000000000000004" y="157.0" type="curve" smooth="yes"/>
      <point x="13.000000000000004" y="51.5"/>
      <point x="99.99999999999999" y="-10.0"/>
      <point x="262.5" y="-10.0" type="curve" smooth="yes"/>
      <point x="532.5" y="-10.0"/>
      <point x="668.0" y="126.5"/>
      <point x="668.0" y="311.0" type="curve" smooth="yes"/>
      <point x="668.0" y="462.5"/>
      <point x="567.5" y="560.0"/>
      <point x="355.0" y="560.0" type="curve" smooth="yes"/>
      <point x="254.0" y="560.0"/>
      <point x="156.5" y="546.0"/>
      <point x="64.5" y="517.0" type="curve"/>
      <point x="88.5" y="350.0" type="line"/>
      <point x="163.0" y="374.5"/>
      <point x="251.5" y="389.0"/>
      <point x="309.5" y="389.0" type="curve" smooth="yes"/>
      <point x="418.99999999999994" y="389.0"/>
      <point x="447.5" y="357.5"/>
      <point x="447.5" y="290.5" type="curve" smooth="yes"/>
      <point x="447.5" y="196.5"/>
      <point x="384.99999999999994" y="151.0"/>
      <point x="298.0" y="151.0" type="curve" smooth="yes"/>
      <point x="259.5" y="151.0"/>
      <point x="237.0" y="162.5"/>
      <point x="237.0" y="188.0" type="curve" smooth="yes"/>
      <point x="237.0" y="222.5"/>
      <point x="287.0" y="248.0"/>
      <point x="382.5" y="250.5" type="curve" smooth="yes"/>
      <point x="415.5" y="250.5"/>
      <point x="450.5" y="249.0"/>
    </contour>
  </outline>
</glyph>
<glyph name="gravecomb" format="2">
  <unicode hex="0300"/>
  <anchor x="-320.5" y="550.0" name="_top"/>
  <anchor x="-326.0" y="789.7" name="top"/>
  <outline>
    <contour>
      <point x="-381.59999999999997" y="595.7" type="line"/>
      <point x="-197.69999999999996" y="595.7" type="line"/>
      <point x="-261.7" y="789.7" type="line"/>
      <point x="-484.29999999999995" y="789.7" type="line"/>
    </contour>
  </outline>
</glyph>
<glyph name="acutecomb" format="2">
  <unicode hex="0301"/>
  <anchor x="-320.5" y="550.0" name="_top"/>
  <anchor x="-232.7" y="789.7" name="top"/>
  <outline>
    <contour>
      <point x="-421.7" y="595.7" type="line"/>
      <point x="-239.0" y="595.7" type="line"/>
      <point x="-75.0" y="789.7" type="line"/>
      <point x="-312.0" y="789.7" type="line"/>
    </contour>
  </outline>
</glyph>
<glyph name="uni0302" format="2">
  <unicode hex="0302"/>
  <anchor x="-320.5" y="550.0" name="_top"/>
  <anchor x="-283.5" y="787.3" name="top"/>
  <anchor x="-4.900000000000006" y="658.0" name="top_viet"/>
  <outline>
    <contour>
      <point x="-549.5999999999999" y="595.7" type="line"/>
      <point x="-359.2" y="595.7" type="line"/>
      <point x="-301.1" y="672.6" type="line"/>
      <point x="-267.09999999999997" y="595.7" type="line"/>
      <point x="-76.69999999999999" y="595.7" type="line"/>
      <point x="-144.2" y="789.7" type="line"/>
      <point x="-411.79999999999995" y="789.7" type="line"/>
    </contour>
  </outline>
</glyph>
<glyph name="tildecomb" format="2">
  <unicode hex="0303"/>
  <anchor x="-320.5" y="550.0" name="_top"/>
  <anchor x="-288.69999999999993" y="777.3000000000001" name="top"/>
  <outline>
    <contour>
      <point x="-530.5999999999999" y="595.7" type="curve"/>
      <point x="-409.4" y="595.7" type="line"/>
      <point x="-409.4" y="595.6999999999999"/>
      <point x="-408.40000000000003" y="600.6999999999999"/>
      <point x="-408.40000000000003" y="600.6999999999999" type="curve" smooth="yes"/>
      <point x="-405.7" y="614.0"/>
      <point x="-394.6" y="624.6"/>
      <point x="-378.09999999999997" y="624.6" type="curve" smooth="yes"/>
      <point x="-341.69999999999993" y="624.6"/>
      <point x="-292.90000000000003" y="597.8000000000001"/>
      <point x="-235.1" y="597.8000000000001" type="curve" smooth="yes"/>
      <point x="-133.7" y="597.8000000000001"/>
      <point x="-85.19999999999999" y="643.3000000000001"/>
      <point x="-69.89999999999999" y="737.3000000000001" type="curve" smooth="yes"/>
      <point x="-67.89999999999999" y="752.3"/>
      <point x="-65.89999999999999" y="769.3000000000001"/>
      <point x="-65.3" y="787.3" type="curve"/>
      <point x="-187.2" y="787.3" type="line"/>
      <point x="-187.2" y="787.3"/>
      <point x="-188.2" y="782.3"/>
      <point x="-188.20000000000002" y="782.3" type="curve" smooth="yes"/>
      <point x="-190.9" y="769.0"/>
      <point x="-201.3" y="758.4"/>
      <point x="-217.79999999999998" y="758.4" type="curve" smooth="yes"/>
      <point x="-252.79999999999998" y="758.4"/>
      <point x="-307.2" y="785.1999999999999"/>
      <point x="-361.5" y="785.1999999999999" type="curve" smooth="yes"/>
      <point x="-462.9" y="785.1999999999999"/>
      <point x="-510.69999999999993" y="739.7"/>
      <point x="-526.0" y="645.6999999999999" type="curve" smooth="yes"/>
      <point x="-528.0" y="630.7"/>
      <point x="-529.9999999999999" y="613.7"/>
    </contour>
  </outline>
</glyph>
<glyph name="uni0304" format="2">
  <unicode hex="0304"/>
  <anchor x="-320.5" y="550.0" name="_top"/>
  <anchor x="-285.7" y="772.2" name="top"/>
  <outline>
    <contour>
      <point x="-488.59999999999997" y="604.2" type="line"/>
      <point x="-135.29999999999998" y="604.2" type="line"/>
      <point x="-110.39999999999998" y="766.2" type="line"/>
      <point x="-463.4" y="766.2" type="line"/>
    </contour>
  </outline>
</glyph>
<glyph name="uni0306" format="2">
  <unicode hex="0306"/>
  <anchor x="-320.5" y="550.0" name="_top"/>
  <anchor x="-285.70000000000005" y="769.0" name="top"/>
  <outline>
    <contour>
      <point x="-313.8" y="597.2" type="curve" smooth="yes"/>
      <point x="-162.6" y="597.2"/>
      <point x="-89.3" y="631.9"/>
      <point x="-74.89999999999999" y="785.2" type="curve"/>
      <point x="-194.5" y="785.1999999999999" type="line"/>
      <point x="-198.5" y="761.1999999999999"/>
      <point x="-203.79999999999998" y="739.6999999999999"/>
      <point x="-291.0" y="739.6999999999999" type="curve" smooth="yes"/>
      <point x="-321.9" y="739.6999999999999"/>
      <point x="-376.09999999999997" y="745.2"/>
      <point x="-376.09999999999997" y="770.6" type="curve" smooth="yes"/>
      <point x="-376.09999999999997" y="772.5"/>
      <point x="-375.4" y="777.6"/>
      <point x="-374.1" y="785.1999999999999" type="curve"/>
      <point x="-492.99999999999994" y="785.2" type="line"/>
      <point x="-499.7" y="759.0"/>
      <point x="-503.4" y="734.4000000000001"/>
      <point x="-503.4" y="710.9" type="curve" smooth="yes"/>
      <point x="-503.4" y="620.7"/>
      <point x="-443.8" y="597.2"/>
    </contour>
  </outline>
</glyph>
<glyph name="uni0307" format="2">
  <unicode hex="0307"/>
  <anchor x="-320.5" y="550.0" name="_top"/>
  <anchor x="-281.0" y="790.3" name="top"/>
  <outline>
    <contour>
      <point x="-313.1" y="592.5" type="curve" smooth="yes"/>
      <point x="-232.7" y="592.5"/>
      <point x="-199.7" y="649.4"/>
      <point x="-199.7" y="724.5" type="curve" smooth="yes"/>
      <point x="-199.7" y="772.7"/>
      <point x="-225.79999999999998" y="794.5"/>
      <point x="-281.9" y="794.5" type="curve" smooth="yes"/>
      <point x="-360.6" y="794.5"/>
      <point x="-396.0" y="733.5"/>
      <point x="-396.0" y="662.2" type="curve" smooth="yes"/>
      <point x="-396.0" y="614.0"/>
      <point x="-369.9" y="592.5"/>
    </contour>
  </outline>
</glyph>
